<?xml version="1.0" encoding="UTF-8" standalone="no"?>
<!-- Created with Inkscape (http://www.inkscape.org/) -->

<svg
   width="250"
   height="80"
   viewBox="0 0 66.145831 21.166667"
   version="1.1"
   id="svg5"
   inkscape:version="1.1.2 (b8e25be8, 2022-02-05)"
   sodipodi:docname="gitpdb_b.svg"
   xmlns:inkscape="http://www.inkscape.org/namespaces/inkscape"
   xmlns:sodipodi="http://sodipodi.sourceforge.net/DTD/sodipodi-0.dtd"
   xmlns="http://www.w3.org/2000/svg"
   xmlns:svg="http://www.w3.org/2000/svg">
  <sodipodi:namedview
     id="namedview7"
     pagecolor="#ffffff"
     bordercolor="#666666"
     borderopacity="1.0"
     inkscape:pageshadow="2"
     inkscape:pageopacity="0.0"
     inkscape:pagecheckerboard="0"
     inkscape:document-units="mm"
     showgrid="false"
     units="px"
     showguides="true"
     inkscape:guide-bbox="true"
     width="275px"
     inkscape:zoom="5.25169"
     inkscape:cx="219.64358"
     inkscape:cy="61.027974"
     inkscape:window-width="2560"
     inkscape:window-height="1027"
     inkscape:window-x="1512"
     inkscape:window-y="25"
     inkscape:window-maximized="1"
     inkscape:current-layer="layer1">
    <sodipodi:guide
       position="2.6458294,18.520834"
       orientation="0,-1"
       id="guide2373" />
    <sodipodi:guide
       position="2.6458294,18.520834"
       orientation="1,0"
       id="guide2375" />
    <sodipodi:guide
       position="5.6930086,2.626603"
       orientation="0,-1"
       id="guide2377" />
    <sodipodi:guide
       position="17.935496,13.609576"
       orientation="1,0"
       id="guide6482" />
    <sodipodi:guide
       position="20.555288,12.853867"
       orientation="1,0"
       id="guide6506" />
  </sodipodi:namedview>
  <defs
     id="defs2" />
  <g
     inkscape:label="Camada 1"
     inkscape:groupmode="layer"
     id="layer1">
    <path
       style="fill:#040404;stroke:none;stroke-width:0.0134925"
       d="m 11.688722,4.3438865 -0.0065,0.011777 C 11.394717,4.2107312 11.054563,4.1333864 10.748664,4.0345135 10.337643,3.9016686 9.926448,3.7704892 9.5128197,3.6458959 9.0402448,3.5035288 8.5777228,3.3819957 8.1145823,3.6433481 7.6168302,3.9242379 7.6359187,4.4514857 7.7895996,4.932643 8.0050863,5.607358 8.5216809,6.2274579 9.0129325,6.723107 9.1812536,6.8929308 9.3571305,7.1091401 9.5612736,7.2352912 l -0.00652,0.011771 C 9.3286855,7.1438263 9.0725389,7.0902796 8.8373705,7.0093411 8.5986965,6.9271816 8.3568879,6.8537224 8.1158573,6.77912 7.5012839,6.5889111 6.7396725,6.2939791 6.2059385,6.8426494 5.8653135,7.1928127 5.9901874,7.7311052 6.1745846,8.1215487 6.4933576,8.7965108 7.0752178,9.3735593 7.6294652,9.8598443 7.8327969,10.038246 8.0373428,10.260718 8.2730916,10.395148 l -0.013174,0.02355 C 7.9938478,10.277036 7.664948,10.209061 7.3788411,10.11444 7.1349752,10.033769 6.8903464,9.9536596 6.6444588,9.8795879 5.9655714,9.6750641 5.0724627,9.2612222 4.4872973,9.9008756 4.1722689,10.245243 4.329427,10.795687 4.5035379,11.164362 c 0.3107316,0.657941 0.8483222,1.194956 1.3809543,1.676986 0.2300053,0.208161 0.4723612,0.45217 0.7429556,0.606477 l -0.00659,0.01178 C 5.998338,13.25439 5.3770574,13.046654 4.7525499,12.847396 c -0.3575338,-0.114072 -0.7369031,-0.2804 -1.118434,-0.266858 -0.4345525,0.01558 -1.0880891,0.291765 -0.9897288,0.834536 0.08565,0.472431 0.6422546,0.728107 1.0036019,0.964853 0.8286201,0.54279 1.6196168,1.176616 2.3593282,1.834938 0.5040392,0.44874 0.9723998,0.93457 1.3929172,1.462125 0.2279897,0.28614 0.3754541,0.66514 0.7423215,0.801085 C 8.6839352,18.678854 9.228975,18.294986 9.0978371,17.705126 9.0323494,17.410628 8.8521929,17.182007 8.6752485,16.945289 8.46599,16.665297 8.2538705,16.387569 8.0193379,16.127916 l 0.00659,-0.01178 c 0.2631016,0.140089 0.5770297,0.219795 0.8586508,0.316714 0.4764154,0.164133 0.9539776,0.322571 1.4334383,0.477586 0.288865,0.09339 0.579005,0.181632 0.869599,0.269502 0.164062,0.04972 0.332933,0.115574 0.506371,0.117351 0.52588,0.0053 1.288892,-0.531527 1.019439,-1.131595 C 12.62009,15.957779 12.431133,15.864456 12.254528,15.74236 11.920559,15.5115 11.576407,15.293017 11.248178,15.053999 10.548482,14.544504 9.8375861,14.052599 9.1514564,13.523468 8.6501503,13.13686 8.1778411,12.721467 7.6948583,12.313383 l 0.00659,-0.01178 c 0.5165078,0.287091 1.1312075,0.457231 1.6829219,0.667255 1.2377158,0.471151 2.4987578,0.909605 3.7739408,1.26825 0.532325,0.149724 1.290329,-0.267103 1.299562,-0.861822 0.0053,-0.350079 -0.307327,-0.535838 -0.563425,-0.703016 C 13.671472,12.526701 13.453968,12.373113 13.2326,12.224827 12.318414,11.612485 11.436011,10.950982 10.564383,10.27878 10.282227,10.061178 10.009741,9.8299654 9.7392388,9.598133 9.6154584,9.4920417 9.4993494,9.3647495 9.3640575,9.2738782 l 0.00652,-0.011778 c 0.5809831,0.2929934 1.2269335,0.497833 1.8364015,0.7245322 1.106076,0.4114496 2.223103,0.7996976 3.356271,1.1305116 0.16296,0.04757 0.333329,0.118792 0.505238,0.119377 0.475567,0.0016 1.041167,-0.34375 1.08361,-0.855782 C 16.177959,10.06951 15.948399,9.8920369 15.722419,9.7357999 15.466179,9.5586485 15.209466,9.3823185 14.948915,9.2116309 13.99418,8.5861643 13.065973,7.8926735 12.173811,7.1802918 11.909086,6.9688957 11.65021,6.7514063 11.392784,6.5313249 11.275285,6.4308659 11.168204,6.308823 11.039837,6.2225977 c 0.194103,0.042387 0.38675,0.1486268 0.571279,0.222421 0.333111,0.13322 0.667735,0.2622426 1.002652,0.3909364 0.94691,0.3638692 1.907919,0.6878542 2.872905,0.9996712 0.582923,0.1883665 1.299895,0.5574116 1.880623,0.1946788 C 17.713028,7.8143456 18.037513,7.3530726 17.738176,6.961213 17.611328,6.7951855 17.448166,6.7270028 17.281492,6.6168328 16.984691,6.420662 16.680664,6.2350012 16.382599,6.0403955 15.399122,5.3982356 14.39982,4.7202463 13.53176,3.9233426 13.346621,3.7533778 13.157754,3.5817557 12.995861,3.3889169 12.882935,3.2544107 12.797741,3.0920755 12.675524,2.9666084 12.503575,2.7900863 12.247208,2.6948112 12.006581,2.6700386 c -0.492416,-0.050703 -0.933632,0.386901 -0.84347,0.885124 0.05483,0.303052 0.303701,0.5879798 0.525612,0.7887219 m 4.378738,1.7071346 C 15.970087,6.0403384 15.865858,5.9752486 15.77577,5.9368097 15.576155,5.8516253 15.376757,5.7658303 15.177588,5.6795676 14.571355,5.4169881 13.951958,5.1738212 13.332507,4.9429144 13.059455,4.8411235 12.785173,4.7424978 12.512021,4.6408848 12.3782,4.591109 12.224303,4.5612237 12.114284,4.4675119 11.833791,4.2286378 11.504065,3.9667565 11.373776,3.6079373 c -0.105567,-0.2907268 0.0744,-0.6637074 0.382916,-0.7394822 0.64869,-0.159314 0.920701,0.4907399 1.297888,0.8577052 0.65949,0.6416035 1.385876,1.2044308 2.139377,1.730664 0.286889,0.2003526 0.567928,0.42327 0.873504,0.5941909 m 1.171484,0.7524379 c 0.07983,0.033038 0.149291,0.084004 0.217987,0.1354238 0.04882,0.036518 0.09044,0.084024 0.126658,0.1328688 C 17.93126,7.5402656 17.193862,8.007314 16.7962,8.0095936 16.547275,8.0110439 16.275103,7.8878086 16.040076,7.8136113 15.571879,7.6657928 15.103239,7.5209258 14.638994,7.3610946 13.056067,6.8161701 11.496338,6.2208679 9.9647428,5.5465806 9.4860251,5.3358171 9.0012826,5.1330877 8.5337696,4.8987524 8.299138,4.7811472 8.0195865,4.6104895 7.9332028,4.3429327 7.8274769,4.0155388 8.1643275,3.7945942 8.4309645,3.7165078 c 0.5570829,-0.1631395 1.213453,0.1564869 1.7407305,0.3268701 1.505456,0.4864723 2.997588,1.0146224 4.462649,1.6123967 0.879376,0.3587928 1.729124,0.7852066 2.604601,1.147678 m -2.657458,2.3740887 -0.01317,0.023555 C 14.250952,9.0236313 13.896094,8.9047455 13.562909,8.7597995 12.776407,8.4176596 11.971165,8.1195812 11.169751,7.8145222 10.931698,7.7239002 10.690911,7.6363695 10.450036,7.5534445 10.320583,7.5088779 10.170194,7.4783594 10.050506,7.4109181 9.9135745,7.3337566 9.7873889,7.1991877 9.6712341,7.0939753 9.4289239,6.8745101 9.1938472,6.6484404 8.9734958,6.4066591 8.6471045,6.0485193 8.359239,5.6603086 8.1306208,5.2325615 8.0509383,5.0834534 7.9153623,4.8550322 7.927879,4.6829323 8.1933262,4.9671132 8.5234755,5.1065128 8.8725984,5.260362 c 0.4004638,0.1764565 0.7954494,0.3659427 1.1971586,0.5406998 0.160252,0.069713 0.350227,0.1221065 0.495645,0.2194455 0.11555,0.077354 0.212075,0.2021827 0.3122,0.2986598 0.185343,0.1785559 0.381967,0.3480556 0.57753,0.5152769 0.662286,0.5662874 1.361951,1.0979496 2.072442,1.6015795 0.34658,0.2456782 0.683598,0.5330494 1.053911,0.7415242 m 0.798455,0.5901667 c 0.20897,0.086509 0.482803,0.2302453 0.564074,0.4553106 0.157867,0.437212 -0.443043,0.803652 -0.800238,0.823727 -0.235474,0.01323 -0.476003,-0.0942 -0.698432,-0.16093 C 14.005389,10.753847 13.569305,10.610725 13.132258,10.469461 11.455932,9.9276416 9.7706241,9.2997272 8.1769242,8.5494089 7.7318494,8.339884 7.2740048,8.1578608 6.8344331,7.9368654 6.6078898,7.8229859 6.3412741,7.6683668 6.2447337,7.4158168 6.1170913,7.081947 6.4358837,6.843342 6.7203188,6.7593333 7.2515312,6.6024242 7.8636845,6.8794624 8.3651448,7.0520554 9.6130891,7.4815902 10.871282,7.875998 12.098559,8.3651189 13.205446,8.8062413 14.281505,9.312923 15.37994,9.7677144 M 12.929253,12.242 l -0.0065,0.01178 C 12.602414,12.074931 12.242707,11.949817 11.905467,11.805928 11.220997,11.513903 10.527778,11.24512 9.8330725,10.978166 9.5220443,10.858642 9.1665368,10.777706 8.8727462,10.622114 8.7306624,10.546868 8.6069527,10.427358 8.4798685,10.329495 8.1265434,10.057402 7.793435,9.7617963 7.4680271,9.4574812 7.1179226,9.1300457 6.7983437,8.7690682 6.5290842,8.3722184 6.406543,8.1916086 6.2570093,7.9602818 6.2337326,7.739406 6.7717872,8.2051932 7.4856938,8.4532978 8.1335195,8.7375654 8.3778937,8.8448023 8.6829539,8.924748 8.9008608,9.0793299 9.2087247,9.2977104 9.4688692,9.6195354 9.7611461,9.8629902 10.515331,10.491207 11.293043,11.09378 12.097662,11.655794 c 0.276091,0.192847 0.541062,0.415743 0.83159,0.586208 m 0.84037,0.598151 c 0.181003,0.07492 0.400433,0.208906 0.471104,0.401516 0.164649,0.448859 -0.430694,0.822246 -0.807875,0.836276 -0.25276,0.0094 -0.52444,-0.107437 -0.762606,-0.184396 C 12.246694,13.756682 11.821538,13.625281 11.398896,13.48549 9.7412914,12.93723 8.1165906,12.297392 6.5189702,11.596454 6.0849242,11.406018 5.6567168,11.20188 5.2232528,11.010846 4.9556628,10.892904 4.6375347,10.710951 4.5389329,10.414906 4.4317345,10.093103 4.7743461,9.8512173 5.0453475,9.7815243 5.5997239,9.6389788 6.2266942,9.9381716 6.7494729,10.106425 c 1.5761567,0.507281 3.1314054,1.068802 4.6642321,1.69423 0.795585,0.324602 1.563727,0.711508 2.355917,1.039498 m -2.533115,2.428179 -0.0065,0.01177 C 10.951885,15.125533 10.640456,15.019744 10.348862,14.892895 9.655333,14.591198 8.9499756,14.309704 8.2410933,14.045456 7.9160163,13.924268 7.5318123,13.839716 7.2292396,13.67097 7.0615736,13.577447 6.911808,13.438462 6.7593173,13.322619 6.3990121,13.048936 6.0428938,12.759477 5.7233465,12.438464 5.3855138,12.099094 5.0577133,11.749195 4.8087726,11.337273 4.7123809,11.177767 4.5911563,10.985186 4.5697285,10.797268 c 0.235547,0.251209 0.560256,0.383531 0.8688758,0.519548 0.4337497,0.191161 0.8629532,0.392383 1.2979511,0.581617 0.1505671,0.0655 0.3362371,0.114005 0.4713975,0.207516 0.1143634,0.07912 0.2113844,0.202093 0.3128248,0.297541 0.2010346,0.189143 0.4094127,0.371153 0.6204512,0.5491 0.662892,0.558958 1.3578139,1.086082 2.0649211,1.587386 0.338951,0.2403 0.668277,0.524511 1.030358,0.728352 m 0.84037,0.598151 c 0.171451,0.07097 0.376473,0.196186 0.457934,0.369785 0.226022,0.481749 -0.454632,0.866429 -0.843232,0.871845 -0.217616,0.0028 -0.4556,-0.108896 -0.661838,-0.171071 C 10.555338,16.794125 10.081556,16.64615 9.6130717,16.484753 8.0002072,15.92953 6.4113193,15.321241 4.8497779,14.635953 4.3593991,14.42072 3.8590918,14.214778 3.3834705,13.968379 3.1718622,13.858672 2.9192857,13.684784 2.8425417,13.445514 2.7385303,13.121276 3.0698991,12.895702 3.3358834,12.813973 c 0.5464066,-0.167904 1.1894738,0.151903 1.7054408,0.31868 1.5539483,0.502264 3.0901056,1.04952 4.6023975,1.666585 0.8207803,0.334891 1.6158023,0.728825 2.4331563,1.067241 M 4.2900547,14.613986 c 0.1105196,-0.0099 0.2685442,0.09625 0.3684313,0.142849 0.245653,0.114679 0.4971979,0.217194 0.7465825,0.323598 0.5125639,0.218826 1.0316444,0.42136 1.5471324,0.63363 0.2146483,0.08852 0.4908346,0.140818 0.6833725,0.270773 0.2180052,0.147441 0.4131189,0.451839 0.5747909,0.658371 0.2526239,0.323109 0.5825895,0.668917 0.6981486,1.068721 0.064735,0.223734 0.00441,0.49825 -0.2277723,0.594722 -0.625524,0.259852 -0.930591,-0.51836 -1.244904,-0.886788 C 6.805715,16.681226 6.1037163,16.035494 5.3546182,15.419383 5.0204932,15.144526 4.6675764,14.826541 4.2900547,14.613986 Z"
       id="path60" />
    <g
       aria-label="GITPdb"
       id="text781"
       style="font-size:12.7px;line-height:1.25;font-family:Palatino;-inkscape-font-specification:Palatino;stroke-width:0.264583">
      <path
         d="m 29.017576,12.964879 q -0.942578,0.341064 -1.544092,0.458887 -1.0604,0.204638 -2.00918,0.204638 -1.43247,0 -2.548681,-0.558105 -1.116211,-0.564307 -1.723926,-1.575098 -0.607715,-1.010791 -0.607715,-2.387451 0,-1.2092285 0.434082,-2.0525879 0.440283,-0.8495605 1.091406,-1.3952636 0.657325,-0.5457031 1.308448,-0.8061523 0.998388,-0.396875 2.468066,-0.396875 0.68833,0.0062 1.444873,0.1612304 0.762744,0.1488282 1.717725,0.4154785 -0.09302,0.3162598 -0.142627,0.6201172 -0.04961,0.3038574 -0.130225,1.2464355 h -0.378271 l -0.03101,-0.7069335 q -0.0062,-0.1612305 -0.0124,-0.2604492 -0.0062,-0.099219 -0.08062,-0.2542481 -0.167432,-0.2232422 -0.533301,-0.4030762 -0.632519,-0.2418457 -1.047998,-0.3224609 -0.409277,-0.080615 -0.979785,-0.080615 -1.178222,0 -2.040185,0.5022949 -0.861963,0.5022949 -1.308448,1.4386718 -0.440283,0.936377 -0.440283,2.0463867 0,1.2216309 0.514697,2.2014159 0.520899,0.973584 1.389063,1.494483 0.874365,0.514697 2.033984,0.514697 0.545703,0 1.054199,-0.10542 0.514698,-0.10542 0.868165,-0.291455 0.05581,-0.248047 0.05581,-0.79375 v -0.68833 q 0,-0.545703 -0.05581,-0.638721 -0.05581,-0.09302 -0.303858,-0.136426 -0.241846,-0.04961 -1.122412,-0.07441 V 9.9635117 l 1.934766,0.043408 q 0.564306,0 1.153418,-0.043408 l 0.03721,0.2976563 -0.465088,0.272852 q -0.07441,0.663525 -0.07441,1.22163 0,0.558106 0.07441,1.209229 z"
         id="path21603" />
      <path
         d="m 33.829685,13.051695 v 0.396875 q -1.32085,-0.04961 -1.736329,-0.04961 l -1.916162,0.04961 v -0.396875 q 0.731739,-0.0124 0.892969,-0.06201 0.161231,-0.05581 0.223242,-0.148829 0.07441,-0.124023 0.09302,-0.601513 0.0062,-0.130225 0.02481,-1.761133 V 7.6070664 q 0,-0.8433593 -0.0186,-1.6495117 -0.0186,-0.5891113 -0.09302,-0.6945312 -0.06821,-0.1116211 -0.229443,-0.1612305 -0.155029,-0.05581 -0.892969,-0.068213 v -0.396875 q 1.184424,0.043408 1.829346,0.043408 0.620117,0 1.823145,-0.043408 v 0.396875 q -0.73794,0.012402 -0.89917,0.068213 -0.15503,0.049609 -0.217041,0.142627 -0.07441,0.1240234 -0.09302,0.6015136 -0.0062,0.1240235 -0.02481,1.7611328 v 2.8711426 q 0,0.843359 0.0186,1.64331 0.0186,0.589112 0.08682,0.700733 0.07441,0.111621 0.229444,0.167432 0.16123,0.04961 0.89917,0.06201 z"
         id="path21605" />
      <path
         d="m 34.890085,6.689293 h -0.384472 q -0.0062,-1.48208 -0.06201,-2.0525879 0.675928,0.024805 2.120801,0.062012 1.172021,0.024805 1.562695,0.024805 0.42168,0 1.953369,-0.037207 1.11001,-0.024805 1.618506,-0.049609 -0.07441,0.6945313 -0.09922,2.0525879 h -0.396875 l -0.04961,-0.5953125 q -0.04961,-0.5395019 -0.06821,-0.613916 -0.0186,-0.074414 -0.05581,-0.1054199 -0.03101,-0.031006 -0.09922,-0.049609 Q 40.84321,5.3064317 40.309909,5.2754258 39.776609,5.24442 39.46655,5.24442 h -0.756543 q -0.06201,0.5953125 -0.06201,1.6061035 v 3.6276855 q 0,0.843359 0.0186,1.64331 0.0186,0.589112 0.08682,0.700733 0.07441,0.111621 0.229444,0.167432 0.16123,0.04961 0.899169,0.06201 v 0.396875 q -1.110009,-0.04961 -1.668115,-0.04961 -0.241845,0 -1.934765,0.04961 v -0.396875 q 0.737939,-0.0124 0.89917,-0.06201 0.16123,-0.05581 0.217041,-0.148829 0.08062,-0.124023 0.09922,-0.601513 0,-0.130225 0.02481,-1.761133 V 6.8629258 q 0,-0.2604492 -0.0124,-0.5705078 L 37.469773,5.24442 h -0.923975 q -0.799951,0 -1.27124,0.062012 -0.148828,0.018604 -0.192236,0.080615 -0.06821,0.10542 -0.124024,0.6759278 z"
         id="path21607" />
      <path
         d="m 42.300485,5.0335801 v -0.396875 q 1.246436,0.037207 1.971973,0.037207 0.483691,0 1.029394,-0.012402 l 0.973584,-0.031006 q 0.161231,-0.0062 0.297657,-0.0062 0.985986,0 1.550293,0.217041 0.564306,0.217041 0.880566,0.6945313 0.31626,0.471289 0.31626,1.0790038 0,0.5457032 -0.266651,1.0852051 -0.260449,0.539502 -0.762744,0.9177734 -0.502295,0.3720703 -1.047998,0.5333008 -0.37207,0.1116211 -0.843359,0.1116211 -0.396875,0 -0.855762,-0.086816 L 45.413473,8.7170762 q 0.551905,0.1240234 0.868165,0.1240234 0.465087,0 0.880566,-0.2232422 0.42168,-0.2294433 0.651123,-0.6821289 0.235644,-0.4588867 0.235644,-1.010791 0,-0.5333007 -0.229443,-0.9611816 -0.223242,-0.434082 -0.68833,-0.6573242 -0.458887,-0.2232422 -1.116211,-0.2232422 -0.589111,0 -1.265039,0.2108399 -0.05581,0.6573242 -0.05581,2.058789 v 3.1253906 q 0,0.843359 0.0186,1.64331 0.0186,0.589112 0.08682,0.700733 0.07442,0.111621 0.229444,0.167432 0.16123,0.04961 0.89917,0.06201 v 0.396875 q -1.147217,-0.04961 -1.686719,-0.04961 -0.21084,0 -1.940967,0.04961 v -0.396875 q 0.731738,-0.0124 0.892969,-0.06201 0.16123,-0.05581 0.223242,-0.148829 0.07441,-0.124023 0.09302,-0.601513 0.0062,-0.130225 0.0248,-1.761133 V 7.6070664 q 0,-0.8433593 -0.0186,-1.6495117 -0.0186,-0.5891113 -0.09302,-0.6945312 -0.06821,-0.1116211 -0.229443,-0.1612305 -0.155029,-0.05581 -0.892969,-0.068213 z"
         id="path21609" />
      <path
         d="M 53.840866,5.027379 V 4.6739122 q 0.68833,-0.074414 1.159619,-0.1736328 0.47749,-0.10542 0.930176,-0.2542481 l 0.08062,0.055811 q -0.02481,0.5270996 -0.05581,2.0339843 l -0.0248,0.9921875 v 3.8819333 q 0,0.63252 0.0186,1.097608 0.02481,0.458886 0.08062,0.551904 0.05581,0.08682 0.186035,0.142627 0.130225,0.05581 0.775147,0.111621 v 0.334863 q -0.756543,-0.04341 -1.066602,-0.04341 -0.26665,0 -1.091406,0.04341 0.0186,-0.427881 0.03101,-1.153418 -0.248047,0.179834 -0.669727,0.539502 -0.415478,0.359668 -0.651123,0.589112 -0.496093,0.124023 -0.874365,0.124023 -0.700732,0 -1.289844,-0.347266 -0.589111,-0.347265 -0.911572,-1.004589 -0.31626,-0.663526 -0.31626,-1.488282 0,-0.620117 0.192237,-1.1720211 0.198437,-0.5581055 0.496094,-0.8619629 0.167431,-0.1736328 0.762744,-0.5270996 0.595312,-0.3534668 0.961181,-0.5084961 0.372071,-0.1612305 0.806153,-0.1612305 0.390673,0 0.762744,0.099219 0.378271,0.093018 0.731738,0.291455 V 6.2366075 q 0,-0.8619629 -0.07441,-1.0479981 -0.02481,-0.068213 -0.09302,-0.099219 -0.124023,-0.055811 -0.855761,-0.062012 z m 1.023193,3.900537 q -0.42168,-0.4650879 -0.886768,-0.6759277 -0.458886,-0.217041 -0.905371,-0.217041 -0.508496,0 -0.936377,0.2604492 -0.42788,0.2604492 -0.657324,0.7875488 -0.223242,0.5270996 -0.223242,1.2650387 0,1.134815 0.564307,1.773535 0.564306,0.638721 1.358056,0.638721 0.415479,0 0.744141,-0.173633 0.328662,-0.173632 0.576709,-0.508496 0.248047,-0.334863 0.31626,-0.74414 0.04961,-0.272852 0.04961,-1.3456546 z"
         id="path21611" />
      <path
         d="m 58.200291,13.473375 q 0.07441,-0.781348 0.08062,-0.985986 0.03721,-1.345655 0.03721,-1.581299 V 8.1465684 q 0,-1.0355957 -0.03721,-2.1394043 -0.02481,-0.7441406 -0.06821,-0.830957 -0.03101,-0.062012 -0.09922,-0.086816 -0.09302,-0.043408 -0.855761,-0.043408 V 4.6801134 q 1.401464,-0.1736329 1.947167,-0.4340821 0.08062,-0.037207 0.124024,-0.037207 0.04341,0 0.06821,0.031006 0.02481,0.024805 0.02481,0.074414 0,0.043408 -0.0124,0.1240235 l -0.0062,0.2046386 q -0.03101,1.1100098 -0.03721,1.8913574 l -0.0124,0.9673828 v 1.227832 L 60.20947,7.8923203 q 0.167432,-0.1426269 0.551905,-0.2790527 0.384472,-0.1364258 0.818554,-0.1364258 0.682129,0 1.209229,0.322461 0.527099,0.3162597 0.806152,0.8991699 0.285254,0.5829101 0.285254,1.2898437 0,0.5457036 -0.16123,1.0355956 -0.161231,0.489893 -0.415479,0.874365 -0.186035,0.291455 -0.31626,0.396875 l -0.905371,0.651123 q -0.551904,0.409278 -0.861963,0.520899 -0.310058,0.117822 -0.79375,0.117822 -0.415478,0 -0.768945,-0.111621 -0.353467,-0.111621 -0.750342,-0.390674 l -0.502295,0.471289 z m 1.153418,-3.9997559 v 2.3254399 q 0,0.310058 0.03101,0.396875 0.03721,0.08682 0.21084,0.229443 0.26045,0.217041 0.601514,0.347266 0.347266,0.130224 0.731738,0.130224 0.89917,0 1.382862,-0.694531 0.483691,-0.694531 0.483691,-1.717725 0,-0.7255368 -0.229443,-1.2154294 -0.229444,-0.4898925 -0.63252,-0.7317382 -0.403076,-0.2480469 -0.905371,-0.2480469 -0.589111,0 -1.054199,0.3410644 -0.465088,0.3348633 -0.620117,0.8371582 z"
         id="path21613" />
    </g>
    <g
       aria-label="Genomic islands of Treponema pallidum"
       id="text781-4"
       style="font-size:2.46944px;line-height:1.25;font-family:Palatino;-inkscape-font-specification:Palatino;stroke-width:0.264583">
      <path
         d="m 22.769116,17.082142 q -0.183278,0.06632 -0.300239,0.08923 -0.206189,0.03979 -0.390673,0.03979 -0.278536,0 -0.495576,-0.10852 -0.217041,-0.109727 -0.335207,-0.306269 -0.118167,-0.196542 -0.118167,-0.464226 0,-0.235127 0.08441,-0.399113 0.08561,-0.165192 0.212217,-0.271301 0.127813,-0.106109 0.25442,-0.156752 0.194131,-0.07717 0.479901,-0.07717 0.133842,0.0012 0.280947,0.03135 0.148311,0.02894 0.334001,0.08079 -0.01809,0.06149 -0.02773,0.120578 -0.0096,0.05908 -0.02532,0.242362 h -0.07355 l -0.006,-0.137459 q -0.0012,-0.03135 -0.0024,-0.05064 -0.0012,-0.01929 -0.01567,-0.04944 -0.03256,-0.04341 -0.103697,-0.07838 -0.12299,-0.04703 -0.203778,-0.0627 -0.07958,-0.01568 -0.190513,-0.01568 -0.229098,0 -0.396702,0.09767 -0.167604,0.09767 -0.25442,0.279741 -0.08561,0.182073 -0.08561,0.397908 0,0.237539 0.10008,0.428052 0.101285,0.189308 0.270095,0.290594 0.170015,0.10008 0.395496,0.10008 0.106109,0 0.204983,-0.0205 0.100079,-0.0205 0.168809,-0.05667 0.01085,-0.04823 0.01085,-0.15434 v -0.133842 q 0,-0.106109 -0.01085,-0.124196 -0.01085,-0.01809 -0.05908,-0.02653 -0.04703,-0.0096 -0.218247,-0.01447 v -0.07355 l 0.376204,0.0084 q 0.109726,0 0.224275,-0.0084 l 0.0072,0.05788 -0.09043,0.05305 q -0.01447,0.129019 -0.01447,0.237539 0,0.10852 0.01447,0.235127 z"
         id="path21616" />
      <path
         d="m 24.003836,16.989297 -0.03859,0.08682 q -0.0832,0.05185 -0.121783,0.06873 -0.05667,0.02532 -0.130225,0.0422 -0.07235,0.01809 -0.153134,0.01809 -0.159163,0 -0.288182,-0.06632 -0.129018,-0.06632 -0.201365,-0.197748 -0.07114,-0.132636 -0.07114,-0.309886 0,-0.138665 0.03738,-0.249597 0.03859,-0.112137 0.08682,-0.165192 0.03497,-0.03859 0.10852,-0.08802 0.07355,-0.05064 0.1459,-0.07958 0.09526,-0.03979 0.206189,-0.03979 0.135047,0 0.243567,0.0615 0.109726,0.06149 0.160369,0.167603 0.05064,0.106109 0.05064,0.239951 0,0.03376 -0.0048,0.08199 -0.08682,0.01688 -0.155546,0.0217 -0.130224,0.0096 -0.260449,0.0096 h -0.387055 q 0.0024,0.172427 0.05908,0.279742 0.05788,0.106108 0.157957,0.156751 0.101286,0.05064 0.209806,0.05064 0.07355,0 0.1459,-0.02291 0.07355,-0.02412 0.180867,-0.08682 z m -0.772905,-0.493164 q 0.03376,0.0036 0.127812,0.0072 0.179662,0.006 0.247186,0.006 0.160369,0 0.211011,-0.006 0.0012,-0.02894 0.0012,-0.04461 0,-0.190513 -0.07717,-0.279741 -0.07717,-0.08923 -0.206188,-0.08923 -0.136254,0 -0.219453,0.09767 -0.0832,0.09767 -0.0844,0.30868 z"
         id="path21618" />
      <path
         d="m 24.153353,17.176193 v -0.06873 l 0.11455,-0.0012 q 0.02532,-0.0012 0.03859,-0.0084 0.01447,-0.0084 0.0217,-0.0205 0.01326,-0.02411 0.01688,-0.08561 0,-0.01568 0.0072,-0.34606 v -0.143487 q 0,-0.09646 -0.0036,-0.207395 -0.0036,-0.07114 -0.01206,-0.08441 -0.0072,-0.01326 -0.02653,-0.01929 -0.01929,-0.0072 -0.156752,-0.006 v -0.06873 q 0.243568,-0.03376 0.355706,-0.08802 0.02411,-0.01206 0.03256,-0.01206 0.0084,0 0.01326,0.006 0.0048,0.006 0.0048,0.01809 0,0.0084 -0.0012,0.01929 -0.0036,0.04341 -0.0072,0.183279 l 0.224275,-0.19172 q 0.09887,-0.03617 0.186897,-0.03617 0.09767,0 0.184484,0.03979 0.08802,0.03979 0.13143,0.10008 0.04461,0.06029 0.05908,0.151928 0.0084,0.05426 0.0084,0.302651 v 0.213423 q 0,0.156752 0.0084,0.213424 0.006,0.03617 0.01809,0.05064 0.01326,0.01326 0.03979,0.01688 l 0.129019,0.0036 v 0.06873 q -0.118167,-0.0084 -0.196543,-0.0084 -0.06752,0 -0.224275,0.0084 0.01688,-0.297828 0.01688,-0.376204 v -0.202571 q 0,-0.189307 -0.01447,-0.248391 -0.0205,-0.08079 -0.09285,-0.130224 -0.07235,-0.04944 -0.174838,-0.04944 -0.09043,0 -0.165192,0.04341 -0.07476,0.0422 -0.107315,0.09887 -0.03135,0.05547 -0.03135,0.188102 v 0.145899 q 0.0072,0.313504 0.0072,0.338825 0.0024,0.06029 0.01447,0.08802 0.0048,0.01085 0.01447,0.01929 0.0096,0.0072 0.03014,0.01206 0.0072,0.0012 0.132636,0.0036 v 0.06873 q -0.147105,-0.0084 -0.266478,-0.0084 -0.101285,0 -0.330384,0.0084 z"
         id="path21620" />
      <path
         d="m 25.638876,16.621534 q 0,-0.270095 0.171221,-0.44011 0.172427,-0.171221 0.441316,-0.171221 0.253214,0 0.412377,0.159163 0.159163,0.159163 0.159163,0.411171 0,0.176044 -0.08199,0.321944 -0.08199,0.145899 -0.23151,0.229098 -0.149517,0.08199 -0.329178,0.08199 -0.139871,0 -0.237539,-0.04702 -0.09646,-0.04703 -0.156752,-0.118167 -0.06029,-0.07114 -0.09164,-0.145899 -0.05547,-0.13143 -0.05547,-0.280947 z m 0.227893,-0.08923 q 0,0.148311 0.04944,0.301445 0.04944,0.153135 0.142282,0.224276 0.09405,0.06994 0.203777,0.06994 0.139871,0 0.233921,-0.110932 0.09405,-0.110932 0.09405,-0.341236 0,-0.191719 -0.05667,-0.330384 -0.05547,-0.139871 -0.142283,-0.196542 -0.08682,-0.05788 -0.191719,-0.05788 -0.148311,0 -0.241156,0.107315 -0.09164,0.107314 -0.09164,0.334001 z"
         id="path21622" />
      <path
         d="m 26.958001,17.176193 v -0.06873 l 0.114549,-0.0012 q 0.02532,-0.0012 0.03859,-0.0084 0.01447,-0.0084 0.0217,-0.0205 0.01326,-0.02411 0.01688,-0.08561 0,-0.01568 0.0072,-0.34606 v -0.143487 q 0,-0.09646 -0.0036,-0.207395 -0.0036,-0.07114 -0.01206,-0.08441 -0.0072,-0.01326 -0.02653,-0.01929 -0.01929,-0.0072 -0.156751,-0.006 v -0.06873 q 0.243567,-0.03376 0.355705,-0.08802 0.02412,-0.01206 0.03256,-0.01206 0.0084,0 0.01326,0.006 0.0048,0.006 0.0048,0.01809 0,0.0084 -0.0012,0.01929 -0.0048,0.05788 -0.0072,0.172427 l 0.157958,-0.144694 q 0.03014,-0.02653 0.03738,-0.03015 0.02773,-0.01567 0.07958,-0.02894 0.05185,-0.01326 0.108521,-0.01326 0.115755,0 0.206188,0.05667 0.09043,0.05667 0.138665,0.167603 l 0.132636,-0.122989 q 0.04461,-0.041 0.0615,-0.05064 0.03135,-0.01809 0.08923,-0.03376 0.05788,-0.01568 0.114549,-0.01568 0.137459,0 0.230304,0.07355 0.09285,0.07235 0.119373,0.165192 0.01688,0.0615 0.01688,0.265272 v 0.125401 l 0.0036,0.167604 q 0.0036,0.1459 0.0036,0.171221 0.0024,0.06029 0.01447,0.08802 0.0048,0.01085 0.01447,0.01929 0.01085,0.0072 0.03014,0.01206 0.0072,0.0012 0.132636,0.0036 v 0.06873 q -0.151928,-0.0072 -0.207394,-0.0072 -0.05305,0 -0.213423,0.0072 l 0.01085,-0.332795 0.0036,-0.130225 v -0.103697 q 0,-0.202571 -0.0205,-0.276124 -0.0205,-0.07476 -0.08682,-0.120578 -0.06511,-0.04582 -0.151929,-0.04582 -0.10008,0 -0.180867,0.05788 -0.06029,0.04461 -0.07958,0.104903 -0.01929,0.06029 -0.01929,0.235127 v 0.08079 l 0.0036,0.167604 q 0.0024,0.1459 0.0036,0.171221 0.0024,0.06029 0.01447,0.08802 0.0048,0.01085 0.01447,0.01929 0.0096,0.0072 0.02894,0.01206 0.0084,0.0012 0.133842,0.0036 v 0.06873 q -0.17725,-0.0096 -0.284565,-0.0096 -0.08682,0 -0.315914,0.0096 v -0.06873 l 0.114549,-0.0012 q 0.02653,-0.0012 0.03979,-0.0084 0.01447,-0.0084 0.0217,-0.0205 0.01326,-0.02411 0.01568,-0.08561 0.0012,-0.01568 0.0072,-0.34606 v -0.09405 q 0,-0.155546 -0.02412,-0.226687 -0.02412,-0.07235 -0.08441,-0.11455 -0.06029,-0.04341 -0.144693,-0.04341 -0.07235,0 -0.137459,0.03135 -0.06391,0.03014 -0.09887,0.07596 -0.03497,0.04582 -0.0422,0.09767 -0.01206,0.0832 -0.01206,0.20016 v 0.07355 q 0.0072,0.313504 0.0072,0.338825 0.0024,0.06029 0.01447,0.08802 0.0048,0.01085 0.01447,0.01929 0.0096,0.0072 0.03014,0.01206 0.0072,0.0012 0.132636,0.0036 v 0.06873 q -0.166398,-0.0096 -0.283358,-0.0096 -0.103698,0 -0.313503,0.0096 z"
         id="path21624" />
      <path
         d="m 29.435881,15.478453 q 0.05667,0 0.09526,0.03979 0.03979,0.03979 0.03979,0.09646 0,0.05547 -0.03979,0.09526 -0.03979,0.03979 -0.09526,0.03979 -0.05667,0 -0.09646,-0.03979 -0.03979,-0.03979 -0.03979,-0.09526 0,-0.05667 0.03979,-0.09646 0.03979,-0.03979 0.09646,-0.03979 z m -0.294211,0.705382 v -0.06873 q 0.233922,-0.02653 0.393085,-0.101286 l 0.02653,0.01929 q -0.0096,0.256831 -0.0096,0.393084 v 0.219452 q 0.006,0.313504 0.0072,0.338825 0.0012,0.06029 0.01326,0.08802 0.006,0.01085 0.01568,0.01929 0.0096,0.0072 0.02894,0.01206 0.0072,0.0012 0.133842,0.0036 v 0.06873 q -0.183279,-0.0084 -0.293005,-0.0084 -0.09646,0 -0.315915,0.0084 v -0.06873 l 0.114549,-0.0012 q 0.02532,-0.0012 0.03858,-0.0084 0.01447,-0.0084 0.0217,-0.0205 0.01326,-0.02411 0.01688,-0.08561 0,-0.01568 0.0072,-0.34606 v -0.212217 q 0,-0.179661 -0.01206,-0.213423 -0.0072,-0.01809 -0.02653,-0.02653 -0.01809,-0.0096 -0.160369,-0.0096 z"
         id="path21626" />
      <path
         d="m 30.852674,17.037528 -0.04823,0.08079 q -0.0832,0.04461 -0.165192,0.06511 -0.08079,0.0205 -0.183279,0.0205 -0.253214,0 -0.403937,-0.151928 -0.149516,-0.153134 -0.149516,-0.419612 0,-0.141077 0.03979,-0.244774 0.041,-0.104903 0.10008,-0.161574 0.03979,-0.03979 0.150723,-0.102492 0.112137,-0.06391 0.156751,-0.08199 0.08199,-0.03497 0.196543,-0.03497 0.10852,0 0.195336,0.02291 0.05547,0.01447 0.110932,0.04823 -0.01447,0.09285 -0.0205,0.141076 -0.006,0.04702 -0.01568,0.172427 h -0.06873 q -0.0072,-0.116961 -0.01447,-0.1459 -0.0048,-0.01809 -0.0217,-0.03256 -0.04341,-0.03376 -0.112138,-0.05788 -0.06752,-0.02532 -0.148311,-0.02532 -0.101286,0 -0.176044,0.0422 -0.07355,0.041 -0.114549,0.131431 -0.041,0.09043 -0.041,0.224275 0,0.163986 0.05788,0.296622 0.05788,0.132636 0.156751,0.194131 0.10008,0.06029 0.22307,0.06029 0.0615,0 0.119372,-0.01447 0.05908,-0.01568 0.150723,-0.05788 z"
         id="path21628" />
      <path
         d="m 31.866736,15.478453 q 0.05667,0 0.09526,0.03979 0.03979,0.03979 0.03979,0.09646 0,0.05547 -0.03979,0.09526 -0.03979,0.03979 -0.09526,0.03979 -0.05667,0 -0.09646,-0.03979 -0.03979,-0.03979 -0.03979,-0.09526 0,-0.05667 0.03979,-0.09646 0.03979,-0.03979 0.09646,-0.03979 z m -0.294211,0.705382 v -0.06873 q 0.233921,-0.02653 0.393085,-0.101286 l 0.02653,0.01929 q -0.0096,0.256831 -0.0096,0.393084 v 0.219452 q 0.006,0.313504 0.0072,0.338825 0.0012,0.06029 0.01326,0.08802 0.006,0.01085 0.01568,0.01929 0.0096,0.0072 0.02894,0.01206 0.0072,0.0012 0.133841,0.0036 v 0.06873 q -0.183278,-0.0084 -0.293004,-0.0084 -0.09646,0 -0.315915,0.0084 v -0.06873 l 0.114549,-0.0012 q 0.02532,-0.0012 0.03859,-0.0084 0.01447,-0.0084 0.0217,-0.0205 0.01326,-0.02411 0.01688,-0.08561 0,-0.01568 0.0072,-0.34606 v -0.212217 q 0,-0.179661 -0.01206,-0.213423 -0.0072,-0.01809 -0.02653,-0.02653 -0.01809,-0.0096 -0.160369,-0.0096 z"
         id="path21630" />
      <path
         d="m 32.349048,16.812047 h 0.07235 q 0.0012,0.06994 0.0072,0.110932 0.006,0.041 0.0205,0.08079 0.01447,0.03859 0.04461,0.06632 0.03015,0.02653 0.06511,0.0422 0.03617,0.01447 0.07235,0.01929 0.03738,0.0048 0.112138,0.0048 0.12299,0 0.201365,-0.06511 0.07958,-0.06511 0.07958,-0.178455 0,-0.05064 -0.02532,-0.08923 -0.02412,-0.03859 -0.07114,-0.06029 -0.04582,-0.0217 -0.198953,-0.05667 -0.153135,-0.03497 -0.197749,-0.05064 -0.06752,-0.02532 -0.107314,-0.06149 -0.03979,-0.03617 -0.06391,-0.09164 -0.02291,-0.05547 -0.02291,-0.120578 0,-0.09526 0.04944,-0.174838 0.05064,-0.08079 0.157957,-0.130225 0.107315,-0.05064 0.233922,-0.05064 0.07596,0 0.176044,0.0217 0.10008,0.0205 0.16278,0.05185 -0.0084,0.133842 -0.01206,0.272507 h -0.06873 q -0.006,-0.08802 -0.01447,-0.115755 -0.0072,-0.02773 -0.0205,-0.04944 -0.01326,-0.0217 -0.04582,-0.04582 -0.03256,-0.02532 -0.0844,-0.04461 -0.05064,-0.01929 -0.125401,-0.01929 -0.106109,0 -0.171221,0.0627 -0.06391,0.0627 -0.06391,0.147105 0,0.04703 0.01809,0.08079 0.01929,0.03376 0.05064,0.05547 0.03135,0.0205 0.08802,0.03738 l 0.200159,0.04944 q 0.151929,0.03859 0.208601,0.06632 0.05788,0.02773 0.09284,0.08682 0.03497,0.05788 0.03497,0.139871 0,0.16278 -0.135047,0.284564 -0.133842,0.120578 -0.359323,0.120578 -0.103697,0 -0.276124,-0.03135 -0.09526,-0.01809 -0.102491,-0.02532 -0.0048,-0.0036 -0.0048,-0.01206 0,-0.0084 0.0024,-0.0205 0.01085,-0.05185 0.01447,-0.101286 0.0036,-0.04944 0.006,-0.206189 z"
         id="path21632" />
      <path
         d="m 33.345024,17.176193 v -0.06873 l 0.113344,-0.0012 q 0.02653,-0.0012 0.03979,-0.0084 0.01447,-0.0084 0.0217,-0.0205 0.01326,-0.02411 0.01568,-0.08561 0.0012,-0.01568 0.0084,-0.34606 V 16.14525 q 0,-0.201365 -0.0072,-0.415994 -0.0048,-0.144694 -0.01326,-0.161575 -0.006,-0.01206 -0.01929,-0.01688 -0.01809,-0.0084 -0.166398,-0.0084 v -0.07114 q 0.272507,-0.03376 0.378616,-0.08441 0.01568,-0.0072 0.02411,-0.0072 0.0084,0 0.01326,0.006 0.0048,0.0048 0.0048,0.01447 0,0.0084 -0.0024,0.02412 l -0.0012,0.03979 q -0.006,0.215835 -0.0072,0.367763 l -0.0024,0.188102 v 0.6258 q 0.006,0.313504 0.0072,0.338825 0.0012,0.06029 0.01447,0.08802 0.0048,0.01085 0.01447,0.01929 0.0096,0.0072 0.02894,0.01206 0.0084,0.0012 0.133841,0.0036 v 0.06873 q -0.163986,-0.0096 -0.288181,-0.0096 -0.118167,0 -0.311092,0.0096 z"
         id="path21634" />
      <path
         d="m 34.263829,16.350233 -0.06391,-0.01688 q 0.0012,-0.02773 0.0012,-0.07596 0,-0.05064 -0.0012,-0.08079 0.153134,-0.10008 0.250802,-0.135048 0.07476,-0.02532 0.167604,-0.02532 0.137459,0 0.23151,0.05185 0.09405,0.05185 0.13987,0.148311 0.03135,0.06752 0.03135,0.184485 l -0.0048,0.220658 v 0.359323 q 0,0.05788 0.0096,0.0832 0.0072,0.01809 0.02291,0.02653 0.01206,0.0072 0.05064,0.0096 l 0.07838,0.0072 v 0.06873 q -0.09887,-0.0084 -0.173632,-0.0084 -0.07235,0 -0.192925,0.0084 l 0.006,-0.212217 q -0.245979,0.18569 -0.291799,0.209806 -0.04582,0.02291 -0.115755,0.02291 -0.145899,0 -0.227892,-0.07717 -0.08079,-0.07838 -0.08079,-0.207395 0,-0.0832 0.02773,-0.151928 0.02894,-0.06873 0.06873,-0.108521 0.03979,-0.041 0.08079,-0.06029 0.06994,-0.03256 0.226687,-0.06994 0.157957,-0.03738 0.312297,-0.05547 0.0012,-0.114549 -0.02773,-0.178456 -0.02894,-0.06391 -0.09767,-0.104903 -0.06873,-0.041 -0.167603,-0.041 -0.07114,0 -0.125402,0.01929 -0.05305,0.01929 -0.06511,0.03256 l -0.0217,0.04341 q -0.03256,0.07235 -0.04823,0.113343 z m 0.553453,0.189308 q -0.156751,0.02653 -0.267683,0.05908 -0.110932,0.03256 -0.156752,0.06752 -0.02773,0.0205 -0.04823,0.0615 -0.03135,0.06029 -0.03135,0.133841 0,0.08923 0.04944,0.139871 0.04944,0.04944 0.137459,0.04944 0.08079,0 0.159163,-0.04582 0.07958,-0.04702 0.157957,-0.13987 z"
         id="path21636" />
      <path
         d="m 35.270656,17.176193 v -0.06873 l 0.11455,-0.0012 q 0.02532,-0.0012 0.03859,-0.0084 0.01447,-0.0084 0.0217,-0.0205 0.01326,-0.02411 0.01688,-0.08561 0,-0.01568 0.0072,-0.34606 v -0.143487 q 0,-0.09646 -0.0036,-0.207395 -0.0036,-0.07114 -0.01206,-0.08441 -0.0072,-0.01326 -0.02653,-0.01929 -0.01929,-0.0072 -0.156752,-0.006 v -0.06873 q 0.243568,-0.03376 0.355706,-0.08802 0.02412,-0.01206 0.03256,-0.01206 0.0084,0 0.01326,0.006 0.0048,0.006 0.0048,0.01809 0,0.0084 -0.0012,0.01929 -0.0036,0.04341 -0.0072,0.183279 l 0.224276,-0.19172 q 0.09887,-0.03617 0.186896,-0.03617 0.09767,0 0.184484,0.03979 0.08802,0.03979 0.13143,0.10008 0.04461,0.06029 0.05908,0.151928 0.0084,0.05426 0.0084,0.302651 v 0.213423 q 0,0.156752 0.0084,0.213424 0.006,0.03617 0.01809,0.05064 0.01326,0.01326 0.03979,0.01688 l 0.129019,0.0036 v 0.06873 q -0.118167,-0.0084 -0.196543,-0.0084 -0.06752,0 -0.224275,0.0084 0.01688,-0.297828 0.01688,-0.376204 v -0.202571 q 0,-0.189307 -0.01447,-0.248391 -0.0205,-0.08079 -0.09285,-0.130224 -0.07235,-0.04944 -0.174838,-0.04944 -0.09043,0 -0.165192,0.04341 -0.07476,0.0422 -0.107314,0.09887 -0.03135,0.05547 -0.03135,0.188102 v 0.145899 q 0.0072,0.313504 0.0072,0.338825 0.0024,0.06029 0.01447,0.08802 0.0048,0.01085 0.01447,0.01929 0.0096,0.0072 0.03014,0.01206 0.0072,0.0012 0.132636,0.0036 v 0.06873 q -0.147105,-0.0084 -0.266477,-0.0084 -0.101286,0 -0.330385,0.0084 z"
         id="path21638" />
      <path
         d="m 37.492911,15.538742 v -0.06873 q 0.133842,-0.01447 0.225481,-0.03376 0.09284,-0.0205 0.180867,-0.04944 l 0.01568,0.01085 q -0.0048,0.102491 -0.01085,0.395496 l -0.0048,0.192925 v 0.754819 q 0,0.12299 0.0036,0.213423 0.0048,0.08923 0.01568,0.107315 0.01085,0.01688 0.03617,0.02773 0.02532,0.01085 0.150723,0.0217 v 0.06511 q -0.147105,-0.0084 -0.207394,-0.0084 -0.05185,0 -0.212218,0.0084 0.0036,-0.0832 0.006,-0.224275 -0.04823,0.03497 -0.130224,0.104903 -0.08079,0.06994 -0.126607,0.114549 -0.09646,0.02412 -0.170015,0.02412 -0.136254,0 -0.250803,-0.06752 -0.114549,-0.06752 -0.17725,-0.195337 -0.06149,-0.129018 -0.06149,-0.289387 0,-0.120578 0.03738,-0.227893 0.03858,-0.10852 0.09646,-0.167603 0.03256,-0.03376 0.148311,-0.102492 0.115755,-0.06873 0.186896,-0.09887 0.07235,-0.03135 0.156752,-0.03135 0.07596,0 0.148311,0.01929 0.07355,0.01809 0.142282,0.05667 v -0.31712 q 0,-0.167604 -0.01447,-0.203777 -0.0048,-0.01326 -0.01809,-0.01929 -0.02412,-0.01085 -0.166398,-0.01206 z m 0.198954,0.758437 q -0.08199,-0.09043 -0.172427,-0.13143 -0.08923,-0.0422 -0.176044,-0.0422 -0.09887,0 -0.182073,0.05064 -0.0832,0.05064 -0.127812,0.153134 -0.04341,0.102492 -0.04341,0.24598 0,0.220658 0.109727,0.344853 0.109726,0.124196 0.264066,0.124196 0.08079,0 0.144693,-0.03376 0.06391,-0.03376 0.112138,-0.09887 0.04823,-0.06511 0.0615,-0.144694 0.0096,-0.05305 0.0096,-0.261655 z"
         id="path21640" />
      <path
         d="m 38.295962,16.812047 h 0.07235 q 0.0012,0.06994 0.0072,0.110932 0.006,0.041 0.0205,0.08079 0.01447,0.03859 0.04461,0.06632 0.03014,0.02653 0.06511,0.0422 0.03617,0.01447 0.07235,0.01929 0.03738,0.0048 0.112138,0.0048 0.122989,0 0.201365,-0.06511 0.07958,-0.06511 0.07958,-0.178455 0,-0.05064 -0.02532,-0.08923 -0.02412,-0.03859 -0.07114,-0.06029 -0.04582,-0.0217 -0.198954,-0.05667 -0.153134,-0.03497 -0.197748,-0.05064 -0.06752,-0.02532 -0.107314,-0.06149 -0.03979,-0.03617 -0.06391,-0.09164 -0.02291,-0.05547 -0.02291,-0.120578 0,-0.09526 0.04944,-0.174838 0.05064,-0.08079 0.157958,-0.130225 0.107314,-0.05064 0.233921,-0.05064 0.07596,0 0.176044,0.0217 0.10008,0.0205 0.162781,0.05185 -0.0084,0.133842 -0.01206,0.272507 h -0.06873 q -0.006,-0.08802 -0.01447,-0.115755 -0.0072,-0.02773 -0.0205,-0.04944 -0.01326,-0.0217 -0.04582,-0.04582 -0.03256,-0.02532 -0.08441,-0.04461 -0.05064,-0.01929 -0.125401,-0.01929 -0.106109,0 -0.171221,0.0627 -0.06391,0.0627 -0.06391,0.147105 0,0.04703 0.01809,0.08079 0.01929,0.03376 0.05064,0.05547 0.03135,0.0205 0.08802,0.03738 l 0.20016,0.04944 q 0.151929,0.03859 0.2086,0.06632 0.05788,0.02773 0.09284,0.08682 0.03497,0.05788 0.03497,0.139871 0,0.16278 -0.135047,0.284564 -0.133842,0.120578 -0.359323,0.120578 -0.103697,0 -0.276124,-0.03135 -0.09526,-0.01809 -0.102492,-0.02532 -0.0048,-0.0036 -0.0048,-0.01206 0,-0.0084 0.0024,-0.0205 0.01085,-0.05185 0.01447,-0.101286 0.0036,-0.04944 0.006,-0.206189 z"
         id="path21642" />
      <path
         d="m 39.929794,16.621534 q 0,-0.270095 0.171221,-0.44011 0.172427,-0.171221 0.441316,-0.171221 0.253214,0 0.412377,0.159163 0.159164,0.159163 0.159164,0.411171 0,0.176044 -0.08199,0.321944 -0.08199,0.145899 -0.23151,0.229098 -0.149516,0.08199 -0.329178,0.08199 -0.139871,0 -0.237539,-0.04702 -0.09646,-0.04703 -0.156751,-0.118167 -0.06029,-0.07114 -0.09164,-0.145899 -0.05547,-0.13143 -0.05547,-0.280947 z m 0.227893,-0.08923 q 0,0.148311 0.04944,0.301445 0.04944,0.153135 0.142282,0.224276 0.09405,0.06994 0.203777,0.06994 0.139871,0 0.233922,-0.110932 0.09405,-0.110932 0.09405,-0.341236 0,-0.191719 -0.05667,-0.330384 -0.05547,-0.139871 -0.142282,-0.196542 -0.08682,-0.05788 -0.191719,-0.05788 -0.148311,0 -0.241157,0.107315 -0.09164,0.107314 -0.09164,0.334001 z"
         id="path21644" />
      <path
         d="m 41.289916,16.233272 v -0.04944 q 0.09405,-0.03979 0.166398,-0.0844 v -0.07235 q 0,-0.156752 0.01929,-0.220658 0.0205,-0.06511 0.05667,-0.115755 0.05426,-0.07476 0.171221,-0.190514 0.07838,-0.07596 0.115755,-0.09526 0.04944,-0.02532 0.115755,-0.02532 0.04702,0 0.09646,0.01567 l 0.0048,0.20016 -0.02773,0.01085 q -0.03738,-0.03135 -0.07476,-0.04582 -0.03617,-0.01447 -0.08561,-0.01447 -0.06511,0 -0.106109,0.02653 -0.041,0.02653 -0.06029,0.07596 -0.01809,0.04944 -0.01809,0.201366 v 0.249597 h 0.127813 q 0.09646,0 0.189308,-0.0072 l 0.01206,0.0072 -0.02412,0.124195 q -0.104903,-0.0048 -0.15434,-0.0048 -0.05064,0 -0.150723,0.0048 v 0.43167 q 0,0.07958 0.006,0.290593 0.0012,0.07476 0.006,0.09526 0.0048,0.0205 0.01206,0.03014 0.0084,0.0084 0.02653,0.01447 0.03617,0.01085 0.195336,0.0217 v 0.06873 q -0.280947,-0.0084 -0.342441,-0.0084 -0.05547,0 -0.309886,0.0084 v -0.06873 l 0.114549,-0.0012 q 0.02532,-0.0012 0.03858,-0.0084 0.01447,-0.0084 0.0217,-0.0205 0.01326,-0.02411 0.01688,-0.08561 0,-0.01568 0.0072,-0.34606 v -0.422023 z"
         id="path21646" />
      <path
         d="m 42.915309,17.176193 0.006,-0.07355 q 0.165192,-0.0096 0.197749,-0.02653 0.01326,-0.0072 0.01929,-0.01809 0.01688,-0.02653 0.0627,-0.262861 0.02291,-0.119372 0.112137,-0.634241 0.06029,-0.341236 0.08682,-0.57998 -0.151929,0 -0.347265,0.0072 -0.09043,0.0036 -0.112138,0.01688 -0.01568,0.0084 -0.02894,0.03738 -0.0217,0.04823 -0.06511,0.226687 h -0.06752 q 0.03617,-0.303857 0.041,-0.403936 0.08079,0.006 0.17725,0.0084 0.360528,0.0084 0.516074,0.0084 0.02291,0 0.395496,-0.006 0.192925,-0.0024 0.23151,-0.0048 0.01809,-0.0012 0.06752,-0.006 -0.0205,0.08682 -0.03376,0.156751 -0.006,0.03979 -0.03376,0.247185 h -0.06752 q 0.0024,-0.102491 0.0024,-0.124195 0,-0.103697 -0.0072,-0.12299 -0.0036,-0.0096 -0.01447,-0.01567 -0.01809,-0.0096 -0.06149,-0.01206 -0.180867,-0.01326 -0.38585,-0.01326 -0.01447,0.06511 -0.03979,0.212217 L 43.447058,16.4684 q -0.0627,0.379821 -0.07596,0.505222 -0.0048,0.03979 -0.0048,0.06029 0,0.02894 0.01206,0.041 0.01206,0.01085 0.05426,0.01688 0.0217,0.0036 0.173632,0.01085 l -0.01206,0.07355 q -0.250802,-0.0084 -0.349676,-0.0084 -0.121784,0 -0.329178,0.0084 z"
         style="font-style:italic;-inkscape-font-specification:'Palatino Italic'"
         id="path21648" />
      <path
         d="m 44.020408,17.20272 -0.0217,-0.01688 q 0.06029,-0.203777 0.09164,-0.337618 0.06029,-0.261655 0.09043,-0.464226 0.01688,-0.116961 0.01688,-0.161575 0,-0.03135 -0.0096,-0.04461 -0.006,-0.0096 -0.01929,-0.0096 -0.041,0 -0.203777,0.118167 l -0.02894,-0.03979 q 0.16278,-0.135048 0.284564,-0.20016 0.0844,-0.04582 0.125401,-0.04582 0.0217,0 0.03497,0.01447 0.01326,0.01447 0.01326,0.04461 0,0.03256 -0.01688,0.118166 -0.02653,0.151929 -0.07114,0.349677 0.127813,-0.22307 0.258038,-0.379821 0.08199,-0.09887 0.125401,-0.124196 0.04341,-0.02532 0.08441,-0.02532 0.0217,0 0.04823,0.01326 -0.0205,0.106108 -0.041,0.266477 l -0.03256,0.0072 q -0.03617,-0.04823 -0.08079,-0.04823 -0.041,0 -0.09043,0.03376 -0.07958,0.05305 -0.165192,0.182072 -0.0844,0.127813 -0.136253,0.309886 -0.02894,0.09887 -0.09043,0.397908 -0.10852,0.02412 -0.165192,0.0422 z"
         style="font-style:italic;-inkscape-font-specification:'Palatino Italic'"
         id="path21650" />
      <path
         d="m 45.602996,16.903687 0.01568,0.04702 q -0.138665,0.126607 -0.274918,0.190514 -0.135048,0.06391 -0.229098,0.06391 -0.0615,0 -0.130225,-0.03135 -0.06752,-0.03256 -0.107314,-0.10008 -0.03858,-0.06752 -0.03858,-0.191719 0,-0.136254 0.04582,-0.30024 0.04582,-0.165192 0.09164,-0.247185 0.04582,-0.08199 0.125401,-0.1459 0.109726,-0.09043 0.233921,-0.148311 0.08682,-0.041 0.167604,-0.041 0.09043,0 0.148311,0.04823 0.05908,0.04823 0.05908,0.135047 0,0.0627 -0.02653,0.124196 -0.02532,0.0615 -0.07114,0.106109 -0.06391,0.0615 -0.17725,0.114549 -0.113343,0.05305 -0.236333,0.08802 l -0.156751,0.03738 q -0.02291,0.12299 -0.02291,0.192925 0,0.118167 0.05185,0.17725 0.05306,0.05908 0.131431,0.05908 0.06994,0 0.156751,-0.03376 0.08682,-0.03497 0.243568,-0.144693 z m -0.551042,-0.309886 q 0.15434,-0.02894 0.265272,-0.0832 0.110932,-0.05547 0.160369,-0.133842 0.05064,-0.07958 0.05064,-0.151928 0,-0.0615 -0.03135,-0.09405 -0.03014,-0.03256 -0.07958,-0.03256 -0.06994,0 -0.142283,0.0422 -0.07114,0.041 -0.114549,0.124196 -0.04341,0.0832 -0.10852,0.329178 z"
         style="font-style:italic;-inkscape-font-specification:'Palatino Italic'"
         id="path21652" />
      <path
         d="m 45.758542,17.852637 -0.01447,-0.01447 q 0.0615,-0.282153 0.09526,-0.455785 0.09405,-0.496782 0.139871,-0.770494 0.02773,-0.170016 0.04702,-0.362941 0.0036,-0.02894 0.0036,-0.04341 0,-0.01929 -0.0096,-0.03014 -0.0096,-0.01085 -0.02291,-0.01085 -0.0072,0 -0.01688,0.0024 -0.0096,0.0024 -0.03256,0.01447 -0.0217,0.01085 -0.06873,0.03979 l -0.09526,0.06029 -0.02411,-0.04582 q 0.13987,-0.115755 0.273712,-0.186896 0.09285,-0.04703 0.137459,-0.04703 0.02653,0 0.041,0.01447 0.01567,0.01447 0.01567,0.0422 0,0.01447 -0.0024,0.03859 -0.0024,0.02291 -0.01326,0.09043 -0.01809,0.103697 -0.02291,0.126607 -0.02291,0.110932 -0.02773,0.142282 0.102491,-0.16881 0.21704,-0.270095 0.11455,-0.101286 0.227893,-0.148311 0.08561,-0.03497 0.1459,-0.03497 0.04582,0 0.07235,0.0217 0.02773,0.0217 0.04944,0.09164 0.02291,0.06994 0.02291,0.161574 0,0.149517 -0.06752,0.346059 -0.05306,0.156752 -0.12299,0.25442 -0.06873,0.09767 -0.190514,0.180867 -0.121784,0.08199 -0.233921,0.126607 -0.04341,0.01688 -0.08199,0.01688 -0.02773,0 -0.05426,-0.006 -0.02653,-0.0048 -0.104903,-0.02894 -0.01326,0.09285 -0.04823,0.303857 l -0.05305,0.341236 q -0.124196,0.01688 -0.180867,0.03979 z m 0.306268,-0.821138 q 0.10008,0.05788 0.207395,0.05788 0.09043,0 0.148311,-0.03738 0.05908,-0.03859 0.112137,-0.129019 0.0844,-0.144694 0.13143,-0.314709 0.04703,-0.171221 0.04703,-0.297828 0,-0.107314 -0.0217,-0.137459 -0.0217,-0.03135 -0.0627,-0.03135 -0.05788,0 -0.122989,0.03135 -0.06511,0.03135 -0.131431,0.09526 -0.08561,0.0832 -0.151928,0.20016 -0.06632,0.115755 -0.101286,0.264066 -0.01206,0.05185 -0.05426,0.299033 z"
         style="font-style:italic;-inkscape-font-specification:'Palatino Italic'"
         id="path21654" />
      <path
         d="m 47.037876,16.830134 q 0,-0.148311 0.03135,-0.27733 0.03135,-0.130224 0.08682,-0.225481 0.05547,-0.09526 0.136254,-0.167603 0.08079,-0.07355 0.182073,-0.116961 0.101285,-0.04461 0.195336,-0.04461 0.08682,0 0.165192,0.03858 0.07838,0.03738 0.121784,0.118167 0.04341,0.07958 0.04341,0.219452 0,0.18569 -0.07355,0.37138 -0.05908,0.147106 -0.135048,0.238745 -0.07596,0.09043 -0.196542,0.155546 -0.119372,0.06391 -0.238745,0.06391 -0.144694,0 -0.23151,-0.09285 -0.08682,-0.09405 -0.08682,-0.280947 z m 0.191719,-0.01688 q 0,0.115755 0.02532,0.176044 0.02532,0.06029 0.07596,0.09164 0.05185,0.03135 0.122989,0.03135 0.07838,0 0.135048,-0.041 0.05788,-0.041 0.113343,-0.150722 0.05667,-0.109726 0.08199,-0.258038 0.02532,-0.149516 0.02532,-0.267683 0,-0.150723 -0.05547,-0.229098 -0.05547,-0.07958 -0.163986,-0.07958 -0.173633,0 -0.267684,0.207394 -0.09284,0.207395 -0.09284,0.519692 z"
         style="font-style:italic;-inkscape-font-specification:'Palatino Italic'"
         id="path21656" />
      <path
         d="m 48.227981,17.196692 -0.01568,-0.0205 q 0.08199,-0.255625 0.150723,-0.610125 0.04944,-0.260449 0.04944,-0.341236 0,-0.02653 -0.0084,-0.03617 -0.0084,-0.01085 -0.02411,-0.01085 -0.01447,0 -0.03015,0.0048 -0.03014,0.01085 -0.07476,0.03738 l -0.09526,0.0627 -0.01568,-0.04944 0.112138,-0.0832 q 0.06511,-0.04582 0.136253,-0.08561 0.07235,-0.03979 0.106109,-0.04944 0.01688,-0.006 0.03617,-0.006 0.02532,0 0.03979,0.01567 0.01809,0.02291 0.01809,0.05788 0,0.02291 -0.0048,0.05667 -0.0096,0.05306 -0.04582,0.198954 l -0.05426,0.22307 0.0084,0.0024 q 0.104903,-0.171221 0.242362,-0.302651 0.137459,-0.132636 0.288182,-0.201365 0.10852,-0.04944 0.161574,-0.04944 0.03256,0 0.05185,0.0205 0.0205,0.0205 0.0205,0.05908 0,0.0832 -0.0832,0.405143 -0.112137,0.429258 -0.112137,0.505222 0,0.02412 0.0084,0.03497 0.0096,0.0096 0.02412,0.0096 0.01809,0 0.05788,-0.0205 0.0832,-0.04703 0.153135,-0.101286 l 0.0205,0.04823 q -0.102492,0.0832 -0.167604,0.126607 -0.116961,0.07476 -0.172426,0.09646 -0.02291,0.0096 -0.04823,0.0096 -0.03376,0 -0.05426,-0.02291 -0.01929,-0.0217 -0.01929,-0.06752 0,-0.03617 0.0096,-0.08923 0.01809,-0.09164 0.09043,-0.372587 0.08802,-0.34003 0.08802,-0.415994 0,-0.03617 -0.01206,-0.04944 -0.01206,-0.01447 -0.03376,-0.01447 -0.03979,0 -0.09646,0.03135 -0.09284,0.04944 -0.192925,0.153134 -0.10008,0.102491 -0.166398,0.219452 -0.06632,0.115755 -0.11696,0.299034 -0.01929,0.06873 -0.05908,0.283359 -0.08802,0.01447 -0.170015,0.03858 z"
         style="font-style:italic;-inkscape-font-specification:'Palatino Italic'"
         id="path21658" />
      <path
         d="m 50.26937,16.903687 0.01567,0.04702 q -0.138665,0.126607 -0.274918,0.190514 -0.135047,0.06391 -0.229098,0.06391 -0.06149,0 -0.130225,-0.03135 -0.06752,-0.03256 -0.107314,-0.10008 -0.03858,-0.06752 -0.03858,-0.191719 0,-0.136254 0.04582,-0.30024 0.04582,-0.165192 0.09164,-0.247185 0.04582,-0.08199 0.125401,-0.1459 0.109726,-0.09043 0.233922,-0.148311 0.08682,-0.041 0.167603,-0.041 0.09043,0 0.148311,0.04823 0.05908,0.04823 0.05908,0.135047 0,0.0627 -0.02653,0.124196 -0.02532,0.0615 -0.07114,0.106109 -0.06391,0.0615 -0.177249,0.114549 -0.113344,0.05305 -0.236334,0.08802 l -0.156751,0.03738 q -0.02291,0.12299 -0.02291,0.192925 0,0.118167 0.05185,0.17725 0.05305,0.05908 0.13143,0.05908 0.06994,0 0.156751,-0.03376 0.08682,-0.03497 0.243568,-0.144693 z m -0.551042,-0.309886 q 0.15434,-0.02894 0.265272,-0.0832 0.110932,-0.05547 0.160369,-0.133842 0.05064,-0.07958 0.05064,-0.151928 0,-0.0615 -0.03135,-0.09405 -0.03014,-0.03256 -0.07958,-0.03256 -0.06994,0 -0.142282,0.0422 -0.07114,0.041 -0.11455,0.124196 -0.04341,0.0832 -0.10852,0.329178 z"
         style="font-style:italic;-inkscape-font-specification:'Palatino Italic'"
         id="path21660" />
      <path
         d="m 50.54911,17.190663 -0.01688,-0.0205 0.06873,-0.245979 q 0.03858,-0.147105 0.06752,-0.28577 0.03738,-0.178456 0.05547,-0.312298 0.0084,-0.06149 0.0084,-0.09405 0,-0.03497 -0.01085,-0.04823 -0.0096,-0.01447 -0.02412,-0.01447 -0.01809,0 -0.05305,0.01929 -0.06632,0.03376 -0.136253,0.0832 l -0.01688,-0.05185 q 0.05788,-0.04582 0.157957,-0.110932 0.101286,-0.06632 0.168809,-0.09285 0.03497,-0.01206 0.06029,-0.01206 0.02532,0 0.03858,0.01447 0.01447,0.01447 0.01447,0.04582 0,0.02894 -0.0096,0.0832 -0.0024,0.01688 -0.07235,0.349676 0.116961,-0.160369 0.195336,-0.238744 0.132636,-0.130225 0.271301,-0.203777 0.09284,-0.04823 0.162781,-0.04823 0.03014,0 0.04461,0.01326 0.01447,0.01326 0.01447,0.041 0,0.04702 -0.01326,0.122989 -0.0096,0.05185 -0.06993,0.317121 0.121784,-0.16881 0.249597,-0.278536 0.129018,-0.110932 0.266477,-0.174838 0.09405,-0.0422 0.155546,-0.0422 0.03014,0 0.04461,0.01447 0.01447,0.01447 0.01447,0.04582 0,0.03617 -0.01568,0.110932 -0.02653,0.127812 -0.103697,0.413583 -0.09043,0.336413 -0.09043,0.407554 0,0.02412 0.0096,0.03738 0.01085,0.01206 0.02411,0.01206 0.01568,0 0.03497,-0.0084 0.02653,-0.0096 0.07114,-0.03859 l 0.09405,-0.06511 0.01929,0.04702 q -0.05426,0.04582 -0.159163,0.115755 -0.103697,0.06994 -0.166397,0.09526 -0.03014,0.01206 -0.05547,0.01206 -0.02773,0 -0.04944,-0.02412 -0.0217,-0.02411 -0.0217,-0.06752 0,-0.03376 0.0048,-0.0627 0.0048,-0.02894 0.03135,-0.124195 0.02773,-0.09646 0.08682,-0.334002 0.04823,-0.197748 0.06029,-0.283358 0.01326,-0.08561 0.01326,-0.10008 0,-0.0217 -0.01085,-0.03376 -0.0096,-0.01206 -0.02412,-0.01206 -0.03135,0 -0.103697,0.03738 -0.07235,0.03738 -0.165192,0.127813 -0.09284,0.08923 -0.151928,0.183279 -0.05908,0.09285 -0.101286,0.227892 -0.0422,0.133842 -0.09043,0.420818 -0.07355,0.01206 -0.168809,0.03497 l -0.01688,-0.01688 q 0.05667,-0.201366 0.109726,-0.437699 0.05426,-0.237539 0.07476,-0.382232 0.01447,-0.103698 0.01447,-0.139871 0,-0.02653 -0.01206,-0.041 -0.0084,-0.01085 -0.02412,-0.01085 -0.03256,0 -0.08079,0.02653 -0.07355,0.03738 -0.160369,0.124195 -0.08682,0.08682 -0.153134,0.195337 -0.06511,0.107314 -0.107314,0.256831 -0.0422,0.149517 -0.08561,0.388262 -0.09405,0.01567 -0.166398,0.03256 z"
         style="font-style:italic;-inkscape-font-specification:'Palatino Italic'"
         id="path21662" />
      <path
         d="m 53.347728,16.919362 0.01326,0.05185 -0.180867,0.139871 q -0.08561,0.0615 -0.136254,0.0832 -0.01688,0.0084 -0.03135,0.0084 -0.0217,0 -0.0422,-0.02291 -0.0205,-0.02291 -0.0205,-0.05667 0,-0.127813 0.07958,-0.425641 l -0.0084,-0.0036 q -0.09043,0.127813 -0.142282,0.188102 -0.09405,0.112137 -0.191719,0.19413 -0.09646,0.08199 -0.176044,0.118167 -0.02291,0.0096 -0.04341,0.0096 -0.03256,0 -0.05185,-0.03135 -0.03256,-0.05064 -0.03256,-0.171221 0,-0.15434 0.05547,-0.361734 0.05667,-0.207395 0.133842,-0.360529 0.03858,-0.07717 0.109726,-0.13143 0.116961,-0.08923 0.211012,-0.124196 0.06391,-0.02291 0.141076,-0.02291 0.05305,0 0.09887,0.0084 0.04703,0.0084 0.119372,0.03497 l 0.07717,-0.04582 0.02653,0.0217 q -0.07717,0.266478 -0.136254,0.504017 -0.03617,0.142282 -0.04944,0.213423 -0.02291,0.112138 -0.03617,0.213423 -0.0024,0.01929 -0.0024,0.03256 0,0.02412 0.0096,0.03738 0.0084,0.0084 0.02291,0.0084 0.01929,0 0.04944,-0.01568 0.03135,-0.01568 0.133842,-0.09405 z m -0.20016,-0.757231 q -0.04461,-0.0217 -0.09405,-0.03135 -0.04944,-0.01085 -0.103697,-0.01085 -0.104903,0 -0.159163,0.03497 -0.02532,0.01568 -0.05547,0.07958 -0.0615,0.127813 -0.106109,0.28577 -0.06993,0.24598 -0.06993,0.432876 0,0.03256 0.0048,0.04823 0.006,0.01567 0.01688,0.02412 0.01085,0.0072 0.0205,0.0072 0.02291,0 0.06994,-0.03135 0.09285,-0.06391 0.195336,-0.183279 0.102492,-0.119372 0.16881,-0.271301 0.06632,-0.151928 0.112137,-0.384644 z"
         style="font-style:italic;-inkscape-font-specification:'Palatino Italic'"
         id="path21664" />
      <path
         d="m 54.054316,17.852637 -0.01447,-0.01447 q 0.0615,-0.282153 0.09526,-0.455785 0.09405,-0.496782 0.13987,-0.770494 0.02773,-0.170016 0.04703,-0.362941 0.0036,-0.02894 0.0036,-0.04341 0,-0.01929 -0.0096,-0.03014 -0.0096,-0.01085 -0.02291,-0.01085 -0.0072,0 -0.01688,0.0024 -0.0096,0.0024 -0.03256,0.01447 -0.0217,0.01085 -0.06873,0.03979 l -0.09526,0.06029 -0.02412,-0.04582 q 0.139871,-0.115755 0.273712,-0.186896 0.09285,-0.04703 0.137459,-0.04703 0.02653,0 0.041,0.01447 0.01568,0.01447 0.01568,0.0422 0,0.01447 -0.0024,0.03859 -0.0024,0.02291 -0.01326,0.09043 -0.01809,0.103697 -0.02291,0.126607 -0.02291,0.110932 -0.02773,0.142282 0.102492,-0.16881 0.217041,-0.270095 0.114549,-0.101286 0.227892,-0.148311 0.08561,-0.03497 0.1459,-0.03497 0.04582,0 0.07235,0.0217 0.02773,0.0217 0.04944,0.09164 0.02291,0.06994 0.02291,0.161574 0,0.149517 -0.06752,0.346059 -0.05305,0.156752 -0.12299,0.25442 -0.06873,0.09767 -0.190513,0.180867 -0.121784,0.08199 -0.233922,0.126607 -0.04341,0.01688 -0.08199,0.01688 -0.02773,0 -0.05426,-0.006 -0.02653,-0.0048 -0.104903,-0.02894 -0.01326,0.09285 -0.04823,0.303857 l -0.05306,0.341236 q -0.124195,0.01688 -0.180867,0.03979 z m 0.306269,-0.821138 q 0.10008,0.05788 0.207394,0.05788 0.09043,0 0.148311,-0.03738 0.05908,-0.03859 0.112138,-0.129019 0.0844,-0.144694 0.13143,-0.314709 0.04703,-0.171221 0.04703,-0.297828 0,-0.107314 -0.0217,-0.137459 -0.0217,-0.03135 -0.0627,-0.03135 -0.05788,0 -0.12299,0.03135 -0.06511,0.03135 -0.13143,0.09526 -0.08561,0.0832 -0.151929,0.20016 -0.06632,0.115755 -0.101285,0.264066 -0.01206,0.05185 -0.05426,0.299033 z"
         style="font-style:italic;-inkscape-font-specification:'Palatino Italic'"
         id="path21666" />
      <path
         d="m 56.29466,16.919362 0.01326,0.05185 -0.180868,0.139871 q -0.08561,0.0615 -0.136253,0.0832 -0.01688,0.0084 -0.03135,0.0084 -0.0217,0 -0.0422,-0.02291 -0.0205,-0.02291 -0.0205,-0.05667 0,-0.127813 0.07958,-0.425641 l -0.0084,-0.0036 q -0.09043,0.127813 -0.142282,0.188102 -0.09405,0.112137 -0.191719,0.19413 -0.09646,0.08199 -0.176044,0.118167 -0.02291,0.0096 -0.04341,0.0096 -0.03256,0 -0.05185,-0.03135 -0.03256,-0.05064 -0.03256,-0.171221 0,-0.15434 0.05547,-0.361734 0.05667,-0.207395 0.133842,-0.360529 0.03858,-0.07717 0.109726,-0.13143 0.11696,-0.08923 0.211011,-0.124196 0.06391,-0.02291 0.141077,-0.02291 0.05305,0 0.09887,0.0084 0.04703,0.0084 0.119372,0.03497 l 0.07717,-0.04582 0.02653,0.0217 q -0.07717,0.266478 -0.136253,0.504017 -0.03617,0.142282 -0.04944,0.213423 -0.02291,0.112138 -0.03617,0.213423 -0.0024,0.01929 -0.0024,0.03256 0,0.02412 0.0096,0.03738 0.0084,0.0084 0.02291,0.0084 0.01929,0 0.04944,-0.01568 0.03135,-0.01568 0.133842,-0.09405 z M 56.0945,16.162131 q -0.04461,-0.0217 -0.09405,-0.03135 -0.04944,-0.01085 -0.103697,-0.01085 -0.104903,0 -0.159163,0.03497 -0.02532,0.01568 -0.05547,0.07958 -0.06149,0.127813 -0.106109,0.28577 -0.06994,0.24598 -0.06994,0.432876 0,0.03256 0.0048,0.04823 0.006,0.01567 0.01688,0.02412 0.01085,0.0072 0.0205,0.0072 0.02291,0 0.06994,-0.03135 0.09284,-0.06391 0.195336,-0.183279 0.102492,-0.119372 0.16881,-0.271301 0.06632,-0.151928 0.112137,-0.384644 z"
         style="font-style:italic;-inkscape-font-specification:'Palatino Italic'"
         id="path21668" />
      <path
         d="m 56.926489,16.912127 0.0205,0.04944 q -0.03135,0.02773 -0.147105,0.112138 -0.115755,0.0832 -0.188102,0.113343 -0.03497,0.01567 -0.06511,0.01567 -0.03376,0 -0.05426,-0.02532 -0.01929,-0.02412 -0.01929,-0.07717 0,-0.04461 0.0084,-0.08802 0.01206,-0.07235 0.11455,-0.526926 0.07355,-0.325561 0.09284,-0.425641 0.04823,-0.244774 0.06873,-0.394291 0.0048,-0.03256 0.0048,-0.06391 0,-0.03376 -0.01688,-0.04703 -0.01568,-0.01447 -0.06632,-0.01447 l -0.110931,-0.0012 0.006,-0.04944 q 0.115755,-0.01206 0.201366,-0.03376 0.08561,-0.0217 0.18569,-0.0627 l 0.03135,0.01929 q -0.02412,0.109726 -0.176045,0.82596 -0.122989,0.579981 -0.141076,0.711411 -0.0036,0.02291 -0.0036,0.03979 0,0.02532 0.01206,0.03979 0.01206,0.01447 0.02653,0.01447 0.01085,0 0.02412,-0.006 0.02653,-0.01085 0.09285,-0.05426 z"
         style="font-style:italic;-inkscape-font-specification:'Palatino Italic'"
         id="path21670" />
      <path
         d="m 57.611372,16.912127 0.0205,0.04944 q -0.03135,0.02773 -0.147105,0.112138 -0.115755,0.0832 -0.188102,0.113343 -0.03497,0.01567 -0.06511,0.01567 -0.03376,0 -0.05426,-0.02532 -0.01929,-0.02412 -0.01929,-0.07717 0,-0.04461 0.0084,-0.08802 0.01206,-0.07235 0.11455,-0.526926 0.07355,-0.325561 0.09284,-0.425641 0.04823,-0.244774 0.06873,-0.394291 0.0048,-0.03256 0.0048,-0.06391 0,-0.03376 -0.01688,-0.04703 -0.01568,-0.01447 -0.06632,-0.01447 l -0.110932,-0.0012 0.006,-0.04944 q 0.115755,-0.01206 0.201365,-0.03376 0.08561,-0.0217 0.18569,-0.0627 l 0.03135,0.01929 q -0.02412,0.109726 -0.176044,0.82596 -0.12299,0.579981 -0.141077,0.711411 -0.0036,0.02291 -0.0036,0.03979 0,0.02532 0.01206,0.03979 0.01206,0.01447 0.02653,0.01447 0.01085,0 0.02412,-0.006 0.02653,-0.01085 0.09285,-0.05426 z"
         style="font-style:italic;-inkscape-font-specification:'Palatino Italic'"
         id="path21672" />
      <path
         d="m 58.170854,15.594208 q 0,-0.06752 0.0422,-0.113343 0.0422,-0.04703 0.09646,-0.04703 0.0422,0 0.06632,0.02653 0.02532,0.02532 0.02532,0.07114 0,0.0627 -0.03617,0.115755 -0.03617,0.05185 -0.09646,0.05185 -0.0422,0 -0.06993,-0.02894 -0.02773,-0.02894 -0.02773,-0.07596 z m -0.311092,0.683678 -0.0205,-0.04823 q 0.213423,-0.148311 0.28577,-0.183279 0.07235,-0.03497 0.113343,-0.03497 0.02291,0 0.03497,0.01567 0.01688,0.02291 0.01688,0.06632 0,0.0205 -0.0084,0.05788 -0.01568,0.07235 -0.06632,0.264066 -0.13143,0.488342 -0.13143,0.576364 0,0.02532 0.0084,0.03738 0.0096,0.01085 0.02532,0.01085 0.02412,0 0.06029,-0.01688 0.03738,-0.01809 0.135048,-0.09043 l 0.02412,0.04823 q -0.195336,0.149517 -0.29421,0.200159 -0.04703,0.02412 -0.07838,0.02412 -0.03014,0 -0.05426,-0.02773 -0.02291,-0.02773 -0.02291,-0.07717 0,-0.03858 0.0084,-0.08561 0.0084,-0.04703 0.0422,-0.170016 0.141076,-0.506428 0.141076,-0.627006 0,-0.02532 -0.0072,-0.03376 -0.006,-0.0096 -0.01809,-0.0096 -0.01447,0 -0.03497,0.0084 -0.0096,0.0048 -0.159163,0.09526 z"
         style="font-style:italic;-inkscape-font-specification:'Palatino Italic'"
         id="path21674" />
      <path
         d="m 59.550267,16.909716 0.02291,0.04461 q -0.07114,0.06391 -0.165193,0.131431 -0.09284,0.06752 -0.160368,0.09646 -0.03738,0.01688 -0.05788,0.01688 -0.0217,0 -0.03979,-0.02412 -0.01809,-0.02532 -0.01809,-0.0832 0,-0.03858 0.0072,-0.08441 0.0084,-0.04703 0.07476,-0.337619 l -0.006,-0.0012 q -0.09043,0.15434 -0.219452,0.288182 -0.129019,0.133842 -0.253214,0.201366 -0.07838,0.0422 -0.126607,0.0422 -0.04823,0 -0.07958,-0.06994 -0.03135,-0.07114 -0.03135,-0.173633 0,-0.141076 0.041,-0.314709 0.0422,-0.174838 0.108521,-0.302651 0.05064,-0.09767 0.115755,-0.157957 0.102491,-0.09405 0.233921,-0.153135 0.06391,-0.02773 0.139871,-0.02773 0.06029,0 0.197748,0.02894 l 0.05305,-0.302651 q 0.01688,-0.09767 0.01688,-0.121784 0,-0.03738 -0.01568,-0.05185 -0.01447,-0.01447 -0.06029,-0.01447 l -0.118167,-0.0012 0.006,-0.04823 q 0.148311,-0.01929 0.214629,-0.03858 0.06752,-0.01929 0.167604,-0.07114 l 0.03014,0.02412 q -0.01929,0.07235 -0.06632,0.309886 -0.02894,0.151928 -0.157957,0.765671 -0.06391,0.302651 -0.08199,0.424435 -0.0048,0.03858 -0.0048,0.06993 0,0.03256 0.0096,0.04582 0.0096,0.01206 0.02532,0.01206 0.0217,0 0.06029,-0.02412 0.08079,-0.04823 0.137459,-0.09767 z m -0.239951,-0.74035 q -0.112137,-0.05908 -0.232716,-0.05908 -0.08802,0 -0.144693,0.02532 -0.03979,0.01688 -0.07114,0.05788 -0.03015,0.03979 -0.07717,0.17122 -0.04582,0.131431 -0.06994,0.235128 -0.03979,0.170015 -0.03979,0.313503 0,0.05426 0.0072,0.07717 0.0072,0.02291 0.01809,0.03135 0.01206,0.0084 0.02894,0.0084 0.03014,0 0.06511,-0.01688 0.09285,-0.04582 0.17725,-0.125401 0.08561,-0.07958 0.153134,-0.183279 0.06873,-0.103697 0.109726,-0.22307 0.02894,-0.0844 0.07596,-0.312297 z"
         style="font-style:italic;-inkscape-font-specification:'Palatino Italic'"
         id="path21676" />
      <path
         d="m 59.787808,16.270652 -0.02412,-0.04703 q 0.110932,-0.0832 0.291799,-0.183279 0.07476,-0.041 0.114549,-0.041 0.02291,0 0.03738,0.01809 0.01568,0.01688 0.01568,0.04703 0,0.02773 -0.01929,0.107314 -0.168809,0.68609 -0.168809,0.806668 0,0.02773 0.0096,0.041 0.01085,0.01206 0.02653,0.01206 0.0217,0 0.05547,-0.01809 0.08802,-0.04703 0.196543,-0.159163 0.10852,-0.113344 0.198953,-0.259243 0.05426,-0.08682 0.09526,-0.212218 0.041,-0.125401 0.08079,-0.338824 0.03135,-0.0048 0.165192,-0.03859 l 0.01809,0.01809 -0.06511,0.218247 q -0.04702,0.171221 -0.09164,0.372586 -0.04341,0.201366 -0.05547,0.283359 -0.0048,0.041 -0.0048,0.07958 0,0.03014 0.01085,0.04341 0.01085,0.01326 0.02773,0.01326 0.01688,0 0.04461,-0.01567 0.02894,-0.01568 0.148311,-0.106109 l 0.02653,0.04582 q -0.204983,0.165192 -0.290593,0.213423 -0.0627,0.03497 -0.09767,0.03497 -0.02291,0 -0.0422,-0.02291 -0.01809,-0.0217 -0.01809,-0.0627 0,-0.02411 0.0048,-0.06029 0.0096,-0.05667 0.04582,-0.223069 l 0.04944,-0.212218 -0.0072,-0.0036 q -0.122989,0.176044 -0.147105,0.206188 -0.09043,0.110932 -0.207394,0.213424 -0.115755,0.101285 -0.220658,0.150722 -0.03376,0.01568 -0.05908,0.01568 -0.03376,0 -0.06029,-0.03256 -0.02653,-0.03376 -0.02653,-0.103697 0,-0.09405 0.04703,-0.283358 0.06873,-0.279742 0.09887,-0.442522 0.01929,-0.104903 0.01929,-0.138665 0,-0.01929 -0.0084,-0.02894 -0.0084,-0.0096 -0.02291,-0.0096 -0.03979,0 -0.191719,0.102492 z"
         style="font-style:italic;-inkscape-font-specification:'Palatino Italic'"
         id="path21678" />
      <path
         d="m 61.174454,17.190663 -0.01688,-0.0205 0.06873,-0.245979 q 0.03859,-0.147105 0.06752,-0.28577 0.03738,-0.178456 0.05547,-0.312298 0.0084,-0.06149 0.0084,-0.09405 0,-0.03497 -0.01085,-0.04823 -0.0096,-0.01447 -0.02412,-0.01447 -0.01809,0 -0.05305,0.01929 -0.06632,0.03376 -0.136253,0.0832 l -0.01688,-0.05185 q 0.05788,-0.04582 0.157957,-0.110932 0.101286,-0.06632 0.16881,-0.09285 0.03497,-0.01206 0.06029,-0.01206 0.02532,0 0.03858,0.01447 0.01447,0.01447 0.01447,0.04582 0,0.02894 -0.0096,0.0832 -0.0024,0.01688 -0.07235,0.349676 0.116961,-0.160369 0.195337,-0.238744 0.132636,-0.130225 0.2713,-0.203777 0.09285,-0.04823 0.162781,-0.04823 0.03014,0 0.04461,0.01326 0.01447,0.01326 0.01447,0.041 0,0.04702 -0.01326,0.122989 -0.0096,0.05185 -0.06994,0.317121 0.121784,-0.16881 0.249597,-0.278536 0.129019,-0.110932 0.266478,-0.174838 0.09405,-0.0422 0.155545,-0.0422 0.03014,0 0.04461,0.01447 0.01447,0.01447 0.01447,0.04582 0,0.03617 -0.01568,0.110932 -0.02653,0.127812 -0.103698,0.413583 -0.09043,0.336413 -0.09043,0.407554 0,0.02412 0.0096,0.03738 0.01085,0.01206 0.02412,0.01206 0.01567,0 0.03497,-0.0084 0.02653,-0.0096 0.07114,-0.03859 l 0.09405,-0.06511 0.01929,0.04702 q -0.05426,0.04582 -0.159163,0.115755 -0.103697,0.06994 -0.166398,0.09526 -0.03014,0.01206 -0.05547,0.01206 -0.02773,0 -0.04944,-0.02412 -0.0217,-0.02411 -0.0217,-0.06752 0,-0.03376 0.0048,-0.0627 0.0048,-0.02894 0.03135,-0.124195 0.02773,-0.09646 0.08682,-0.334002 0.04823,-0.197748 0.06029,-0.283358 0.01326,-0.08561 0.01326,-0.10008 0,-0.0217 -0.01085,-0.03376 -0.0096,-0.01206 -0.02412,-0.01206 -0.03135,0 -0.103698,0.03738 -0.07235,0.03738 -0.165192,0.127813 -0.09284,0.08923 -0.151928,0.183279 -0.05908,0.09285 -0.101286,0.227892 -0.0422,0.133842 -0.09043,0.420818 -0.07355,0.01206 -0.16881,0.03497 l -0.01688,-0.01688 q 0.05667,-0.201366 0.109726,-0.437699 0.05426,-0.237539 0.07476,-0.382232 0.01447,-0.103698 0.01447,-0.139871 0,-0.02653 -0.01206,-0.041 -0.0084,-0.01085 -0.02412,-0.01085 -0.03256,0 -0.08079,0.02653 -0.07355,0.03738 -0.160368,0.124195 -0.08682,0.08682 -0.153135,0.195337 -0.06511,0.107314 -0.107314,0.256831 -0.0422,0.149517 -0.08561,0.388262 -0.09405,0.01567 -0.166397,0.03256 z"
         style="font-style:italic;-inkscape-font-specification:'Palatino Italic'"
         id="path21680" />
    </g>
  </g>
</svg>
