<?xml version="1.0" encoding="UTF-8" standalone="no"?>
<!-- Generator: Adobe Illustrator 16.0.0, SVG Export Plug-In . SVG Version: 6.00 Build 0)  -->

<svg
   version="1.1"
   id="Camada_1"
   x="0px"
   y="0px"
   width="70"
   height="100"
   viewBox="0 0 70 100"
   enable-background="new 0 0 300 100"
   xml:space="preserve"
   sodipodi:docname="lbs.svg"
   inkscape:version="1.1.2 (b8e25be8, 2022-02-05)"
   xmlns:inkscape="http://www.inkscape.org/namespaces/inkscape"
   xmlns:sodipodi="http://sodipodi.sourceforge.net/DTD/sodipodi-0.dtd"
   xmlns:xlink="http://www.w3.org/1999/xlink"
   xmlns="http://www.w3.org/2000/svg"
   xmlns:svg="http://www.w3.org/2000/svg"><defs
   id="defs625"><clipPath
     id="SVGID_4_"><use
       xlink:href="#SVGID_3_"
       overflow="visible"
       id="use562"
       x="0"
       y="0"
       width="100%"
       height="100%" /></clipPath><rect
     id="SVGID_3_"
     x="-42.000999"
     y="8.5089998"
     width="157.606"
     height="80.857002" /></defs><sodipodi:namedview
   id="namedview623"
   pagecolor="#ffffff"
   bordercolor="#666666"
   borderopacity="1.0"
   inkscape:pageshadow="2"
   inkscape:pageopacity="0.0"
   inkscape:pagecheckerboard="0"
   showgrid="false"
   inkscape:zoom="4.3133333"
   inkscape:cx="27.704792"
   inkscape:cy="62.480681"
   inkscape:window-width="1512"
   inkscape:window-height="861"
   inkscape:window-x="0"
   inkscape:window-y="38"
   inkscape:window-maximized="1"
   inkscape:current-layer="Camada_1"
   units="mm" />





<g
   enable-background="new    "
   id="g610"
   style="fill:#ffffff"
   transform="matrix(1.2730419,0,0,1.2730419,-13.331812,-14.198114)"><g
     id="g608"
     style="fill:#ffffff"><g
       id="g606"
       style="fill:#ffffff"><g
         id="g604"
         style="fill:#ffffff"><g
           id="g602"
           style="fill:#ffffff"><defs
             id="defs560"><rect
               id="rect690"
               x="-42.000999"
               y="8.5089998"
               width="157.606"
               height="80.857002" /></defs><clipPath
             id="clipPath511"><use
               xlink:href="#SVGID_3_"
               overflow="visible"
               id="use509"
               x="0"
               y="0"
               width="100%"
               height="100%" /></clipPath><g
             id="LVsbid_1_"
             clip-path="url(#SVGID_4_)"
             style="fill:#ffffff"><g
               id="g599"
               style="fill:#ffffff"><path
                 fill="#f6f6f6"
                 d="m 53.466,26.246 c 0.344,-0.413 0.693,-0.819 1.088,-1.186 0.771,-0.718 1.617,-1.335 2.513,-1.886 0.731,-0.452 1.463,-0.904 2.207,-1.335 0.661,-0.386 1.291,-0.822 1.946,-1.212 0.486,-0.288 0.914,-0.343 1.33,0.122 0.156,0.174 0.188,0.412 0.283,0.618 0,0.181 0,0.362 0,0.542 -0.221,0.59 -0.721,0.904 -1.215,1.216 -0.656,0.419 -1.322,0.824 -1.979,1.238 -1.142,0.717 -2.281,1.436 -3.418,2.158 -0.726,0.461 -1.448,0.928 -2.169,1.396 -0.047,0.03 -0.096,0.041 -0.141,0.062 -0.022,-0.079 -0.048,-0.157 -0.068,-0.237 -0.127,-0.496 -0.252,-0.996 -0.377,-1.496 z"
                 id="path565"
                 style="fill:#ffffff" /><path
                 fill="#f6f6f6"
                 d="m 19.737,57.811 c -0.414,0.258 -0.826,0.521 -1.242,0.771 -1.117,0.682 -2.239,1.355 -3.356,2.039 -0.85,0.52 -1.699,1.041 -2.544,1.57 -0.268,0.164 -0.533,0.326 -0.856,0.35 -0.305,0.025 -0.502,-0.15 -0.672,-0.373 -0.127,-0.166 -0.173,-0.373 -0.272,-0.551 0,-0.229 0,-0.453 0,-0.68 0.101,-0.182 0.163,-0.375 0.289,-0.545 0.323,-0.441 0.806,-0.645 1.252,-0.9 0.825,-0.479 1.652,-0.951 2.48,-1.422 0.606,-0.344 1.22,-0.68 1.828,-1.022 0.862,-0.483 1.722,-0.975 2.583,-1.465 0.17,0.743 0.34,1.485 0.51,2.228 z"
                 id="path567"
                 style="fill:#ffffff" /><path
                 fill="#f6f6f6"
                 d="m 42.912,11.249 c 0.264,0.095 0.521,0.194 0.674,0.464 0.074,0.131 0.121,0.275 0.131,0.408 0.062,0.736 0.103,1.474 0.01,2.211 -0.008,0.059 -0.002,0.119 -0.002,0.18 0,1.909 0,3.817 -0.001,5.727 0,0.081 -0.011,0.163 -0.015,0.245 -0.287,-0.049 -0.539,-0.189 -0.791,-0.318 -0.457,-0.229 -0.926,-0.354 -1.433,-0.179 -0.041,-0.164 -0.017,-0.329 -0.019,-0.493 -0.002,-0.886 0.031,-1.775 -0.008,-2.661 -0.062,-1.401 -0.017,-2.804 -0.041,-4.206 -0.004,-0.255 0.025,-0.505 0.104,-0.739 0.102,-0.303 0.311,-0.53 0.648,-0.593 0.031,-0.006 0.059,-0.009 0.064,-0.045 0.227,-10e-4 0.453,-10e-4 0.679,-10e-4 z"
                 id="path569"
                 style="fill:#ffffff" /><path
                 fill="#f6f6f6"
                 d="m 39.705,92.062 c 0,-3.217 0,-6.436 -0.002,-9.646 0,-0.09 0.026,-0.182 -0.022,-0.266 0.612,0.043 1.219,0.127 1.827,0.205 0.002,1.752 0.041,3.504 -0.008,5.252 -0.043,1.482 -0.006,2.971 -0.033,4.455 -0.589,0 -1.176,0 -1.762,0 z"
                 id="path571"
                 style="fill:#ffffff" /><path
                 fill="#6cc8ea"
                 d="M 41.505,82.354 C 40.899,82.276 40.29,82.192 39.679,82.149 39.634,82.11 39.593,82.063 39.546,82.034 37.792,80.876 36.084,79.643 34.255,78.598 33.002,77.881 31.704,77.258 30.322,76.827 30.265,76.806 30.206,76.8 30.147,76.788 30.123,76.634 30.01,76.524 29.927,76.403 29.65,76.001 29.412,75.569 29.094,75.194 c 0.011,-0.059 0.03,-0.115 0.032,-0.176 0.036,-1 0.065,-1.998 0.102,-2.994 0.043,-1.191 0.092,-2.389 0.138,-3.58 0.043,-1.109 0.079,-2.223 0.137,-3.33 0.023,-0.412 0.025,-0.824 0.047,-1.238 0.089,0.012 0.18,0.016 0.268,0.033 0.622,0.117 1.242,0.322 1.875,0.051 0.003,1.422 0.013,2.844 0.008,4.27 -0.006,1.506 -0.043,3.012 -0.033,4.516 0.007,1.053 0.439,1.887 1.383,2.42 1.822,1.023 3.585,2.148 5.401,3.189 0.356,0.203 0.689,0.469 1.1,0.562 0.498,0.114 1.002,0.069 1.498,-0.021 1.093,-0.19 2.14,-0.545 3.158,-0.974 1.791,-0.75 3.506,-1.631 4.996,-2.896 0.637,-0.545 1.03,-1.19 0.979,-2.071 -0.045,-0.795 -0.035,-1.595 -0.057,-2.394 -0.01,-0.354 -0.021,-0.709 0.033,-1.056 0.141,-0.887 0.25,-1.771 0.205,-2.668 -0.039,-0.832 -0.21,-1.639 -0.57,-2.396 -0.674,-1.409 -1.82,-2.312 -3.195,-2.957 -0.712,-0.338 -1.469,-0.58 -2.137,-1.014 -0.955,-0.615 -1.832,-1.343 -2.772,-1.978 0.396,-0.573 0.793,-1.147 1.188,-1.72 0.85,0.479 1.701,0.953 2.553,1.433 1.797,1.017 3.593,2.032 5.392,3.049 0.495,0.279 0.996,0.556 1.495,0.832 0.012,0.041 0.012,0.08 0.044,0.121 0.316,0.365 0.474,0.803 0.548,1.271 0.049,0.301 0.077,0.604 0.113,0.904 -0.107,0.521 -0.156,1.051 -0.221,1.578 -0.135,1.104 -0.223,2.209 -0.256,3.318 -0.029,1.068 -0.107,2.143 -0.028,3.219 0.019,0.238 0.002,0.48 0.011,0.719 0.028,0.811 0.061,1.621 0.094,2.432 0.002,0.041 0.021,0.084 0.032,0.129 -0.358,0.334 -0.638,0.73 -0.925,1.127 -0.838,0.295 -1.646,0.652 -2.445,1.039 -2.066,0.998 -4.023,2.188 -5.992,3.359 -0.592,0.359 -1.189,0.705 -1.788,1.052 z"
                 id="path573"
                 style="fill:#ffffff" /><path
                 fill="#8bbf4a"
                 d="m 31.695,63.958 c -0.633,0.272 -1.253,0.067 -1.875,-0.051 -0.088,-0.021 -0.179,-0.021 -0.268,-0.033 -1.207,-0.996 -2.513,-1.854 -3.85,-2.662 -1.958,-1.187 -3.985,-2.252 -5.966,-3.401 -0.17,-0.74 -0.34,-1.48 -0.511,-2.227 0.051,-3.24 0.104,-6.48 0.154,-9.72 0.041,-0.069 0.03,-0.144 0.04,-0.219 0.067,-0.631 0.136,-1.262 0.205,-1.893 1.108,-0.584 2.22,-1.168 3.327,-1.754 2.277,-1.206 4.552,-2.414 6.829,-3.621 0.052,-0.028 0.108,-0.05 0.163,-0.075 0.167,0.441 0.433,0.832 0.64,1.253 0.134,0.272 0.309,0.524 0.407,0.814 -0.891,0.49 -1.774,0.991 -2.668,1.468 -1.917,1.023 -3.77,2.164 -5.726,3.111 -0.113,0.056 -0.222,0.127 -0.322,0.206 -0.265,0.204 -0.412,0.472 -0.419,0.812 -0.008,0.376 -0.024,0.753 -0.029,1.129 -0.043,2.747 -0.058,5.493 -0.07,8.241 -0.002,0.559 0.217,0.938 0.668,1.213 0.72,0.436 1.397,0.939 2.094,1.412 1.127,0.766 2.25,1.532 3.468,2.152 1.457,0.738 2.935,0.837 4.468,0.248 1.204,-0.463 2.333,-1.073 3.469,-1.674 0.949,-0.502 1.857,-1.084 2.843,-1.518 0.261,-0.115 0.493,-0.287 0.705,-0.482 0.584,-0.543 0.799,-1.244 0.815,-2.016 0.014,-0.547 -0.021,-1.098 -0.029,-1.646 -0.029,-1.723 0.025,-3.447 0.053,-5.169 0.01,-0.654 0.029,-1.308 0.044,-1.962 0.76,0.383 1.56,0.595 2.417,0.542 0.092,1.536 0.002,3.068 -0.057,4.601 -0.075,1.918 -0.115,3.83 0.166,5.736 -0.396,0.572 -0.791,1.146 -1.188,1.722 -1.877,1.022 -3.756,2.047 -5.633,3.073 -1.456,0.793 -2.909,1.593 -4.364,2.39 z"
                 id="path575"
                 style="fill:#ffffff" /><path
                 fill="#f7a82e"
                 d="m 41.485,19.986 c 0.507,-0.175 0.976,-0.05 1.433,0.179 0.252,0.129 0.504,0.27 0.791,0.318 3.15,2.092 6.342,4.12 9.758,5.763 0.125,0.5 0.25,1 0.375,1.497 0.021,0.08 0.046,0.158 0.068,0.237 -0.123,1.166 -0.197,2.335 -0.244,3.507 -0.078,1.908 -0.047,3.817 0.004,5.727 0.014,0.541 0.037,1.08 0.055,1.622 -0.25,0.588 -0.502,1.175 -0.751,1.763 -1.334,0.706 -2.668,1.41 -4.001,2.117 -1.87,0.992 -3.739,1.987 -5.608,2.979 -0.067,0.036 -0.136,0.061 -0.206,0.091 -0.219,-0.426 -0.441,-0.85 -0.658,-1.278 -0.143,-0.279 -0.315,-0.543 -0.408,-0.847 1.201,-0.577 2.365,-1.22 3.523,-1.875 1.166,-0.659 2.334,-1.312 3.403,-2.125 1.003,-0.764 1.772,-1.691 2.095,-2.937 0.327,-1.26 0.319,-2.547 0.314,-3.834 -0.004,-1.287 -0.098,-2.571 -0.086,-3.858 0.007,-0.62 -0.109,-1.167 -0.709,-1.525 -2.549,-1.528 -5.094,-3.057 -7.646,-4.577 -0.515,-0.306 -0.98,-0.318 -1.482,-0.036 -0.696,0.39 -1.43,0.703 -2.146,1.052 -1.305,0.637 -2.621,1.249 -3.828,2.065 -0.603,0.408 -1.149,0.875 -1.576,1.471 -0.672,0.938 -0.899,2.021 -1.022,3.135 -0.144,1.289 -0.157,2.583 -0.174,3.878 -0.018,1.241 -0.015,2.483 -0.02,3.726 -0.197,-0.042 -0.392,-0.082 -0.588,-0.123 -0.581,-0.123 -1.15,-0.302 -1.737,-0.39 -0.005,-1.196 -0.01,-2.392 -0.011,-3.588 -0.004,-2.442 -0.004,-4.886 -0.008,-7.329 0.136,-0.118 0.274,-0.232 0.409,-0.353 0.5,-0.441 1.032,-0.844 1.511,-1.31 3.066,-1.499 6.095,-3.07 8.933,-4.978 0.078,-0.053 0.157,-0.109 0.237,-0.164 z"
                 id="path577"
                 style="fill:#ffffff" /><path
                 fill="#c3c54d"
                 d="m 30.411,37.708 c 0.587,0.088 1.156,0.267 1.737,0.39 0.196,0.041 0.391,0.081 0.588,0.123 0.061,0.042 0.122,0.088 0.185,0.125 2.792,1.629 5.584,3.26 8.379,4.885 0.26,0.15 0.5,0.335 0.789,0.429 0.093,0.304 0.266,0.567 0.408,0.847 0.217,0.428 0.438,0.853 0.658,1.278 -0.1,0.235 -0.257,0.437 -0.387,0.652 -0.857,0.053 -1.657,-0.159 -2.417,-0.542 -0.041,-0.071 -0.114,-0.097 -0.177,-0.135 -3,-1.772 -6.001,-3.543 -9.001,-5.314 -0.058,-0.034 -0.125,-0.052 -0.185,-0.078 -0.099,-0.29 -0.273,-0.542 -0.407,-0.814 -0.207,-0.421 -0.472,-0.812 -0.64,-1.253 0.135,-0.215 0.298,-0.407 0.47,-0.593 z"
                 id="path579"
                 style="fill:#ffffff" /><path
                 fill="#f6f6f6"
                 d="m 52.973,40.598 c 0.25,-0.588 0.501,-1.174 0.751,-1.763 0.507,0.206 0.986,0.469 1.458,0.742 1.28,0.741 2.44,1.658 3.616,2.548 0.818,0.618 1.652,1.21 2.484,1.806 0.277,0.199 0.534,0.456 0.643,0.806 0.138,0.439 -0.034,0.803 -0.312,1.127 -0.146,0.173 -0.312,0.324 -0.546,0.396 -0.477,0.145 -0.814,-0.129 -1.154,-0.376 -0.58,-0.421 -1.147,-0.864 -1.722,-1.298 -0.713,-0.537 -1.429,-1.071 -2.142,-1.611 -0.824,-0.625 -1.646,-1.252 -2.465,-1.882 -0.208,-0.159 -0.409,-0.329 -0.611,-0.495 z"
                 id="path581"
                 style="fill:#ffffff" /><path
                 fill="#f6f6f6"
                 d="m 51.732,76.907 c 0.287,-0.396 0.564,-0.793 0.925,-1.128 1.166,0.294 2.203,0.861 3.179,1.546 0.686,0.479 1.336,1.006 1.992,1.524 0.799,0.637 1.611,1.265 2.5,1.774 0.422,0.246 0.664,0.582 0.604,1.078 -0.048,0.414 -0.288,0.715 -0.649,0.899 -0.365,0.188 -0.746,0.094 -1.059,-0.104 -1.457,-0.926 -2.906,-1.861 -4.342,-2.824 -0.678,-0.451 -1.311,-0.971 -1.922,-1.518 -0.438,-0.386 -0.817,-0.829 -1.228,-1.247 z"
                 id="path583"
                 style="fill:#ffffff" /><path
                 fill="#f6f6f6"
                 d="m 53.025,64.386 c -0.037,-0.303 -0.064,-0.604 -0.113,-0.903 -0.074,-0.469 -0.231,-0.903 -0.548,-1.271 -0.034,-0.039 -0.032,-0.08 -0.044,-0.121 0.979,-0.354 1.893,-0.83 2.77,-1.383 1.269,-0.801 2.521,-1.629 3.795,-2.422 0.414,-0.259 0.878,-0.452 1.361,-0.146 0.405,0.26 0.67,0.62 0.689,1.125 0.018,0.426 -0.286,0.637 -0.592,0.812 -1.206,0.692 -2.396,1.412 -3.592,2.121 -1.113,0.659 -2.239,1.301 -3.36,1.952 -0.126,0.071 -0.244,0.157 -0.366,0.236 z"
                 id="path585"
                 style="fill:#ffffff" /><path
                 fill="#f6f6f6"
                 d="m 32.313,25.129 c -0.479,0.465 -1.012,0.868 -1.511,1.31 -0.135,0.12 -0.273,0.234 -0.409,0.353 -0.606,-0.421 -1.213,-0.838 -1.815,-1.263 -0.532,-0.375 -1.057,-0.758 -1.588,-1.134 -1.026,-0.727 -2.052,-1.45 -3.079,-2.175 -0.352,-0.249 -0.733,-0.464 -1.052,-0.749 -0.523,-0.469 -0.633,-0.925 -0.146,-1.604 0.393,-0.546 0.783,-0.551 1.298,-0.291 0.613,0.311 1.168,0.719 1.72,1.124 0.862,0.634 1.709,1.289 2.569,1.924 0.64,0.472 1.288,0.935 1.961,1.36 0.634,0.401 1.278,0.783 1.968,1.081 0.036,0.016 0.068,0.026 0.084,0.064 z"
                 id="path587"
                 style="fill:#ffffff" /><path
                 fill="#f6f6f6"
                 d="m 19.624,43.751 c -0.068,0.631 -0.138,1.262 -0.205,1.893 -0.009,0.075 0.001,0.15 -0.04,0.219 -0.44,-0.285 -0.882,-0.568 -1.32,-0.857 -1.371,-0.901 -2.737,-1.808 -4.111,-2.705 -0.854,-0.559 -1.732,-1.079 -2.554,-1.688 -0.32,-0.235 -0.45,-0.559 -0.366,-0.927 0.097,-0.424 0.294,-0.811 0.685,-1.055 0.207,-0.13 0.43,-0.147 0.649,-0.038 0.526,0.262 0.955,0.669 1.45,0.979 1.031,0.645 2.068,1.279 3.084,1.948 0.774,0.509 1.525,1.052 2.193,1.704 0.181,0.174 0.318,0.392 0.535,0.527 z"
                 id="path589"
                 style="fill:#ffffff" /><path
                 fill="#f6f6f6"
                 d="m 29.097,75.193 c 0.318,0.375 0.556,0.806 0.833,1.209 0.083,0.121 0.196,0.229 0.22,0.384 -1.163,0.815 -2.332,1.633 -3.489,2.461 -1.081,0.774 -2.166,1.543 -3.252,2.312 -0.433,0.306 -0.858,0.608 -1.377,0.729 -0.369,0.082 -0.723,0.002 -0.993,-0.289 -0.291,-0.31 -0.466,-0.67 -0.303,-1.101 0.127,-0.338 0.415,-0.562 0.7,-0.754 0.843,-0.567 1.646,-1.188 2.463,-1.795 1.02,-0.761 2.043,-1.515 3.148,-2.144 0.614,-0.349 1.235,-0.683 1.9,-0.92 0.054,-0.021 0.1,-0.062 0.15,-0.092 z"
                 id="path591"
                 style="fill:#ffffff" /><path
                 fill="#6cc8ea"
                 d="m 43.843,67.938 c -0.285,0 -0.571,-0.002 -0.856,0 -0.086,0 -0.146,0 -0.177,-0.111 -0.291,-1.012 -0.706,-1.357 -1.76,-1.455 -0.48,-0.053 -0.961,-0.012 -1.42,0.168 -0.493,0.193 -0.781,0.562 -0.789,1.021 -0.008,0.479 0.188,0.78 0.635,0.957 0.54,0.215 1.109,0.321 1.668,0.465 0.822,0.209 1.664,0.338 2.452,0.67 1.055,0.44 1.571,1.231 1.626,2.373 0.072,1.517 -0.879,2.688 -2.174,3.106 -1.601,0.519 -3.207,0.5 -4.729,-0.282 -1.054,-0.539 -1.601,-1.44 -1.652,-2.636 -0.006,-0.172 0.045,-0.219 0.214,-0.217 0.549,0.01 1.099,0.004 1.648,0.002 0.111,0 0.203,-0.002 0.227,0.147 0.16,1.047 0.779,1.42 1.754,1.521 0.5,0.054 1.009,0.045 1.502,-0.086 0.525,-0.14 0.967,-0.379 1.098,-0.972 0.107,-0.491 -0.061,-0.887 -0.503,-1.116 -0.493,-0.257 -1.032,-0.363 -1.567,-0.482 -0.877,-0.196 -1.766,-0.358 -2.604,-0.7 -0.945,-0.384 -1.47,-1.074 -1.582,-2.09 -0.149,-1.365 0.358,-2.41 1.524,-3.125 0.469,-0.287 0.998,-0.419 1.537,-0.486 0.84,-0.108 1.682,-0.098 2.498,0.172 1.146,0.375 2.026,1.044 2.361,2.271 0.062,0.232 0.096,0.472 0.123,0.709 0.018,0.134 -0.027,0.188 -0.171,0.188 -0.294,-0.018 -0.588,-0.012 -0.883,-0.012 z"
                 id="path593"
                 style="fill:#ffffff" /><path
                 fill="#8abf4a"
                 d="m 34.211,50.668 c 0.148,0.074 0.306,0.139 0.449,0.23 0.726,0.461 1.04,1.141 1.074,1.986 0.028,0.729 -0.116,1.396 -0.534,1.998 -0.569,0.816 -1.384,1.166 -2.339,1.27 -0.812,0.084 -1.625,0.037 -2.437,0.045 -0.979,0.01 -1.957,-0.002 -2.936,0.008 -0.172,0 -0.21,-0.049 -0.209,-0.213 0.004,-3.305 0.004,-6.609 0,-9.916 -0.001,-0.187 0.06,-0.219 0.229,-0.219 1.558,0.006 3.116,0.002 4.674,0.006 0.608,0 1.208,0.08 1.767,0.324 0.804,0.349 1.288,0.967 1.43,1.84 0.094,0.575 0.065,1.133 -0.192,1.664 -0.173,0.356 -0.437,0.628 -0.785,0.818 -0.071,0.04 -0.154,0.067 -0.191,0.159 z m -3.365,3.728 c 0,-0.004 0,-0.006 0,-0.008 0.451,0 0.903,0.016 1.354,-0.006 1.266,-0.059 1.625,-1.238 1.207,-2.104 -0.229,-0.469 -0.704,-0.571 -1.173,-0.604 -0.9,-0.063 -1.805,-0.016 -2.707,-0.022 -0.14,0 -0.178,0.046 -0.177,0.183 0.005,0.789 0.006,1.58 0,2.371 -0.002,0.146 0.034,0.194 0.186,0.19 0.436,-0.007 0.873,0 1.31,0 z m -0.029,-4.463 c 0,-0.005 0,-0.008 0,-0.012 0.443,0 0.888,0.018 1.33,-0.005 0.415,-0.021 0.803,-0.151 1.058,-0.51 0.169,-0.24 0.133,-0.528 0.13,-0.801 -0.002,-0.284 -0.118,-0.522 -0.363,-0.675 -0.395,-0.247 -0.852,-0.237 -1.288,-0.258 -0.711,-0.032 -1.428,-0.005 -2.141,-0.011 -0.142,-0.001 -0.197,0.028 -0.195,0.185 0.009,0.63 0.009,1.263 0,1.893 -10e-4,0.164 0.056,0.2 0.207,0.197 0.421,-0.01 0.842,-0.003 1.262,-0.003 z"
                 id="path595"
                 style="fill:#ffffff" /><path
                 fill="#f7a82e"
                 d="m 39.326,33.282 c 0,-1.64 0.004,-3.282 -0.004,-4.923 -0.001,-0.202 0.055,-0.253 0.251,-0.249 0.558,0.013 1.114,0.013 1.671,0 0.189,-0.003 0.24,0.049 0.24,0.239 -0.007,2.648 -0.005,5.297 -0.005,7.947 0,0.341 -0.042,0.294 0.304,0.294 1.543,0.002 3.086,0.004 4.629,-0.002 0.182,-10e-4 0.248,0.037 0.24,0.232 -0.015,0.473 -0.009,0.949 -10e-4,1.422 0.003,0.148 -0.024,0.21 -0.194,0.21 -2.311,-0.007 -4.621,-0.007 -6.931,0 -0.188,0.001 -0.202,-0.076 -0.202,-0.226 0.004,-1.649 0.002,-3.297 0.002,-4.944 z"
                 id="path597"
                 style="fill:#ffffff" /></g></g></g></g></g></g></g></svg>
