<?xml version="1.0" encoding="utf-8"?>
<!-- Generator: Adobe Illustrator 16.0.0, SVG Export Plug-In . SVG Version: 6.00 Build 0)  -->
<!DOCTYPE svg PUBLIC "-//W3C//DTD SVG 1.1//EN" "http://www.w3.org/Graphics/SVG/1.1/DTD/svg11.dtd">
<svg version="1.1" id="Camada_1" xmlns="http://www.w3.org/2000/svg" xmlns:xlink="http://www.w3.org/1999/xlink" x="0px" y="0px"
	 width="350px" height="80px" viewBox="0 0 350 80" enable-background="new 0 0 350 80" xml:space="preserve">
<g id="ZBakJh_1_">
</g>
<g>
	<g>
		<path fill-rule="evenodd" clip-rule="evenodd" fill="#2E2E2E" d="M37.01,5.001c-0.637,0.717-1.217,1.35-1.775,2
			c-2.725,3.176-4.819,6.727-5.841,10.793c-0.663,2.638-0.632,5.329,0.106,8.019c1.766,6.438,6.052,11.258,10.179,16.196
			c2.549,3.049,5.164,6.043,7.39,9.354c2.955,4.395,4.443,9.158,3.604,14.441c-0.347,2.191-1.354,4.221-2.474,6.152
			c-0.736,1.27-1.544,2.488-2.528,3.59c-0.494,0.555-1.047,0.842-1.775,0.779c-3.241-0.273-6.457-0.451-9.661-1.309
			c-8.438-2.256-15.015-7.072-20.105-13.998c-2.11-2.871-3.606-6.096-4.768-9.52c-1.58-4.656-2.158-9.383-1.788-14.225
			c0.297-3.893,1.167-7.672,2.762-11.288c1.161-2.631,2.482-5.142,4.183-7.454c0.445-0.606,0.926-1.186,1.392-1.776
			c0.128-0.163,0.29-0.312,0.493-0.155c0.184,0.142,0.148,0.383,0.058,0.551c-0.354,0.662-0.717,1.32-1.076,1.977
			c-3.529,6.447-4.625,13.34-4.142,20.608c0.292,4.409,1.505,8.538,3.393,12.45c2.473,5.127,6.051,9.361,10.817,12.596
			c3.057,2.074,6.336,3.592,9.834,4.68c1.706,0.529,3.497,0.711,5.229,1.174c1.126,0.301,1.66-0.795,2.099-1.605
			c1.053-1.941,1.54-4.066,1.8-6.25c0.038-0.314,0.188-0.652-0.107-0.893c-0.338-0.273-0.686-0.062-1.001,0.098
			c-0.953,0.484-1.467,1.443-2.258,2.105c-0.578,0.486-1.104,1.035-1.667,1.539c-0.328,0.295-0.702,0.412-1.057,0.045
			c-0.349-0.359-0.254-0.746,0.055-1.062c1.001-1.023,2.021-2.029,3.037-3.039c0.197-0.195,0.418-0.367,0.619-0.561
			c2.078-1.988,2.124-2.312,0.634-4.748c-0.615-1.006-1.248-0.4-1.75,0.074c-1.593,1.504-3.136,3.061-4.699,4.596
			c-0.682,0.67-1.362,1.342-2.047,2.008c-0.469,0.455-1.045,0.764-1.564,0.213c-0.501-0.531-0.069-1.031,0.341-1.438
			c2.372-2.357,4.755-4.703,7.119-7.068c0.968-0.967,0.953-1.457,0.052-2.543c-0.43-0.518-0.904-1.021-1.229-1.604
			c-0.64-1.145-1.31-1.086-2.321-0.172c-1.238,1.123-2.377,2.352-3.563,3.531c-1.865,1.854-3.733,3.703-5.6,5.553
			c-0.438,0.434-0.87,0.898-1.506,0.281c-0.643-0.623-0.32-1.119,0.185-1.619c2.968-2.941,5.932-5.891,8.896-8.836
			c0.254-0.254,0.485-0.531,0.755-0.766c0.718-0.623,0.784-1.182,0.021-1.869c-0.645-0.58-1.172-1.295-1.746-1.955
			c-1.273-1.463-1.455-1.477-2.769-0.08c-2.455,2.605-4.899,5.223-7.351,7.832c-0.409,0.436-0.827,0.861-1.253,1.279
			c-0.407,0.4-0.908,0.604-1.396,0.234c-0.569-0.428-0.419-1.043-0.044-1.484c0.8-0.938,1.676-1.812,2.528-2.703
			c2.201-2.305,4.412-4.6,6.606-6.91c1.093-1.15,1.068-1.342,0.11-2.584c-0.434-0.561-0.901-1.094-1.235-1.749
			c-0.528-1.037-1.357-1.104-2.209-0.261c-2.662,2.633-5.315,5.274-7.975,7.911c-0.226,0.225-0.45,0.457-0.707,0.641
			c-0.434,0.307-0.92,0.598-1.391,0.104c-0.484-0.512-0.298-1.068,0.116-1.498c1.05-1.09,2.139-2.141,3.22-3.199
			c1.934-1.893,3.883-3.772,5.805-5.676c0.705-0.699,1.249-1.363,0.327-2.427c-0.599-0.69-0.852-1.693-1.21-2.576
			c-0.463-1.136-0.688-1.248-1.547-0.425c-2.33,2.227-4.62,4.495-6.926,6.749c-0.142,0.139-0.261,0.306-0.416,0.427
			c-0.447,0.35-0.958,0.506-1.403,0.072c-0.459-0.447-0.299-0.992,0.083-1.392c1.099-1.153,2.237-2.27,3.362-3.396
			c1.689-1.691,3.371-3.389,5.076-5.064c0.466-0.458,0.654-0.97,0.61-1.606c-0.104-1.549-0.265-3.097-0.025-4.648
			c0.054-0.353,0.06-0.758-0.312-0.962c-0.483-0.265-0.714,0.172-0.984,0.438c-1.643,1.623-3.287,3.244-4.918,4.878
			c-0.461,0.462-0.994,0.857-1.529,0.288c-0.517-0.551,0.006-0.997,0.41-1.401c2.22-2.225,4.356-4.54,6.673-6.658
			c1.706-1.56,2.595-3.596,3.744-5.485c2.056-3.382,4.836-5.972,8.323-7.809c0.413-0.218,0.743-0.622,1.261-0.627
			C36.703,4.881,36.739,4.906,37.01,5.001z"/>
		<path fill-rule="evenodd" clip-rule="evenodd" fill="#2E2E2E" d="M49.363,75c0.637-0.717,1.217-1.35,1.775-2.002
			c2.725-3.176,4.819-6.727,5.841-10.793c0.663-2.639,0.632-5.328-0.106-8.02c-1.766-6.438-6.052-11.258-10.179-16.195
			c-2.549-3.05-5.164-6.044-7.39-9.354c-2.955-4.395-4.443-9.157-3.604-14.441c0.347-2.19,1.354-4.221,2.474-6.151
			c0.736-1.27,1.544-2.488,2.528-3.59c0.494-0.555,1.047-0.842,1.775-0.779c3.241,0.272,6.457,0.451,9.661,1.308
			c8.438,2.256,15.015,7.072,20.105,13.998c2.11,2.871,3.606,6.097,4.768,9.52c1.58,4.656,2.158,9.384,1.788,14.226
			c-0.298,3.893-1.167,7.672-2.762,11.287c-1.161,2.633-2.482,5.143-4.183,7.455c-0.445,0.605-0.926,1.186-1.392,1.775
			c-0.128,0.164-0.29,0.312-0.493,0.156c-0.184-0.143-0.148-0.383-0.058-0.551c0.354-0.662,0.717-1.32,1.076-1.977
			c3.529-6.447,4.625-13.34,4.142-20.609c-0.292-4.408-1.505-8.538-3.393-12.45c-2.473-5.127-6.051-9.36-10.817-12.595
			c-3.057-2.074-6.336-3.592-9.834-4.68c-1.706-0.53-3.497-0.712-5.229-1.175c-1.126-0.3-1.66,0.795-2.099,1.605
			c-1.053,1.941-1.54,4.067-1.8,6.25c-0.038,0.314-0.188,0.652,0.107,0.893c0.338,0.274,0.686,0.063,1.001-0.097
			c0.953-0.484,1.467-1.443,2.258-2.105c0.578-0.486,1.104-1.035,1.667-1.54c0.328-0.295,0.702-0.412,1.057-0.045
			c0.349,0.359,0.254,0.746-0.055,1.062c-1.001,1.023-2.021,2.03-3.037,3.039c-0.197,0.196-0.418,0.368-0.619,0.561
			c-2.078,1.988-2.124,2.312-0.634,4.748c0.615,1.006,1.248,0.401,1.75-0.074c1.593-1.504,3.136-3.061,4.699-4.596
			c0.682-0.669,1.362-1.342,2.047-2.007c0.469-0.455,1.045-0.764,1.564-0.214c0.501,0.531,0.069,1.031-0.341,1.438
			c-2.372,2.356-4.755,4.703-7.119,7.067c-0.968,0.968-0.953,1.457-0.052,2.543c0.43,0.519,0.904,1.022,1.229,1.604
			c0.64,1.144,1.31,1.086,2.321,0.171c1.238-1.122,2.377-2.351,3.563-3.53c1.865-1.854,3.733-3.703,5.6-5.553
			c0.438-0.435,0.87-0.899,1.506-0.282c0.643,0.623,0.32,1.12-0.185,1.62c-2.968,2.941-5.932,5.89-8.896,8.836
			c-0.254,0.253-0.485,0.53-0.755,0.765c-0.718,0.623-0.784,1.182-0.021,1.869c0.645,0.581,1.172,1.295,1.746,1.955
			c1.273,1.463,1.455,1.477,2.769,0.081c2.455-2.606,4.899-5.223,7.351-7.832c0.409-0.436,0.827-0.861,1.253-1.28
			c0.407-0.399,0.908-0.603,1.396-0.234c0.569,0.429,0.419,1.044,0.044,1.484c-0.8,0.938-1.676,1.812-2.528,2.704
			c-2.201,2.304-4.412,4.599-6.606,6.91c-1.093,1.15-1.068,1.342-0.11,2.583c0.434,0.561,0.901,1.094,1.235,1.749
			c0.528,1.037,1.357,1.105,2.209,0.262c2.662-2.634,5.315-5.274,7.975-7.911c0.226-0.225,0.45-0.457,0.707-0.641
			c0.434-0.307,0.92-0.598,1.391-0.103c0.484,0.511,0.298,1.068-0.116,1.497c-1.05,1.09-2.139,2.142-3.22,3.2
			c-1.934,1.892-3.883,3.771-5.805,5.676c-0.705,0.699-1.249,1.363-0.327,2.428c0.599,0.689,0.852,1.693,1.21,2.576
			c0.463,1.135,0.688,1.246,1.547,0.424c2.33-2.227,4.62-4.494,6.926-6.748c0.142-0.139,0.261-0.307,0.416-0.428
			c0.447-0.35,0.958-0.506,1.403-0.072c0.459,0.447,0.299,0.992-0.083,1.393c-1.099,1.152-2.237,2.27-3.362,3.396
			c-1.689,1.689-3.371,3.389-5.076,5.064c-0.466,0.457-0.654,0.969-0.61,1.605c0.104,1.549,0.265,3.096,0.025,4.648
			c-0.054,0.352-0.06,0.758,0.312,0.961c0.483,0.266,0.714-0.172,0.984-0.438c1.643-1.623,3.287-3.244,4.918-4.879
			c0.461-0.461,0.994-0.857,1.529-0.287c0.517,0.551-0.006,0.998-0.41,1.402c-2.22,2.225-4.356,4.539-6.673,6.658
			c-1.706,1.559-2.595,3.596-3.744,5.484c-2.056,3.383-4.836,5.973-8.323,7.809c-0.413,0.219-0.743,0.623-1.261,0.629
			C49.671,75.119,49.634,75.094,49.363,75z"/>
	</g>
	<g>
		<path fill="#2E2E2E" d="M93.533,22.396v-0.407h11.556c1.93,0,3.633,0.263,5.108,0.79c1.476,0.526,2.704,1.244,3.685,2.153
			c0.981,0.909,1.715,1.934,2.201,3.074c0.487,1.141,0.73,2.341,0.73,3.601c0,1.229-0.227,2.413-0.682,3.553
			c-0.454,1.14-1.168,2.153-2.141,3.038c-0.973,0.886-2.249,1.591-3.828,2.118s-3.397,0.789-5.455,0.789
			c-0.654,0-1.914-0.096-3.78-0.287v12.154c0,2.504,1.276,3.797,3.828,3.877v0.383H93.533V56.85
			c1.101-0.033,2.006-0.348,2.716-0.945c0.709-0.598,1.064-1.576,1.064-2.932V26.32c0-0.813-0.128-1.491-0.383-2.034
			c-0.255-0.542-0.554-0.929-0.897-1.161c-0.343-0.231-0.726-0.402-1.148-0.514c-0.422-0.111-0.714-0.183-0.873-0.215H93.533z
			 M100.926,23.233v16.604c1.228,0.224,2.44,0.335,3.637,0.335c2.281,0,4.215-0.586,5.802-1.758c1.587-1.173,2.38-3.346,2.38-6.52
			c0-2.616-0.698-4.765-2.093-6.448c-1.396-1.683-3.514-2.524-6.353-2.524C103.199,22.922,102.075,23.026,100.926,23.233z"/>
		<path fill="#2E2E2E" d="M120.378,22.492h-0.479v-0.502h12.202c1.961,0,3.625,0.303,4.989,0.909
			c1.363,0.606,2.424,1.375,3.182,2.309c0.758,0.933,1.301,1.918,1.627,2.955c0.326,1.037,0.49,2.058,0.49,3.062
			c0,1.276-0.268,2.5-0.801,3.672c-0.535,1.173-1.355,2.182-2.465,3.027c-1.109,0.846-2.492,1.42-4.15,1.723v0.096
			c2.105,1.021,4.051,3.047,5.838,6.077l3.182,5.384c1.436,2.408,2.588,3.932,3.457,4.57c0.869,0.637,1.727,0.996,2.572,1.076v0.383
			h-6.412c-0.271-0.352-0.525-0.689-0.766-1.018c-0.238-0.326-0.494-0.674-0.766-1.041c-0.16-0.238-0.395-0.602-0.705-1.088
			c-0.312-0.486-0.5-0.762-0.562-0.826l-4.211-6.962c-0.846-1.419-1.711-2.571-2.596-3.458c-0.887-0.885-1.711-1.519-2.477-1.901
			s-1.456-0.622-2.069-0.718c-0.614-0.096-1.336-0.144-2.166-0.144v12.896c0,2.504,1.276,3.797,3.828,3.877v0.383h-11.221V56.85
			c0.702-0.033,1.324-0.164,1.866-0.395c0.542-0.232,0.993-0.631,1.352-1.197c0.359-0.566,0.539-1.328,0.539-2.285V26.32
			c0-1.403-0.343-2.393-1.029-2.967C121.941,22.779,121.191,22.492,120.378,22.492z M127.292,39.144h2.01
			c2.105,0,3.832-0.303,5.181-0.909c1.348-0.606,2.324-1.472,2.93-2.596c0.607-1.125,0.91-2.5,0.91-4.127
			c0-1.355-0.271-2.684-0.814-3.984c-0.541-1.3-1.463-2.393-2.764-3.277c-1.299-0.886-3.05-1.328-5.251-1.328
			c-0.894,0-1.627,0.072-2.201,0.215V39.144z"/>
		<path fill="#2E2E2E" d="M187.059,39.646c0,3.302-0.818,6.373-2.453,9.211c-1.635,2.84-3.863,5.102-6.688,6.783
			c-2.822,1.684-5.949,2.525-9.378,2.525c-3.445,0-6.604-0.842-9.475-2.525c-2.871-1.682-5.132-3.951-6.782-6.807
			c-1.651-2.855-2.477-5.965-2.477-9.331c0-2.584,0.49-5.012,1.472-7.286c0.98-2.272,2.353-4.254,4.115-5.945
			c1.762-1.69,3.771-2.999,6.029-3.924c2.257-0.925,4.613-1.388,7.07-1.388c2.408,0,4.721,0.442,6.937,1.328
			c2.219,0.885,4.207,2.165,5.971,3.84c1.762,1.675,3.146,3.661,4.15,5.958C186.557,34.383,187.059,36.903,187.059,39.646z
			 M182.848,39.742c0-4.689-0.83-8.358-2.488-11.006c-1.658-2.647-3.572-4.422-5.742-5.324c-2.17-0.901-4.211-1.352-6.125-1.352
			c-1.484,0-3.023,0.243-4.618,0.729c-1.595,0.487-3.146,1.376-4.653,2.668c-1.508,1.292-2.748,3.11-3.721,5.455
			s-1.459,5.24-1.459,8.685c0,3.03,0.402,5.675,1.208,7.931c0.805,2.258,1.914,4.1,3.325,5.527c1.412,1.428,2.967,2.457,4.666,3.086
			c1.698,0.631,3.465,0.945,5.299,0.945c1.644,0,3.306-0.291,4.989-0.873c1.682-0.582,3.221-1.531,4.618-2.848
			c1.395-1.314,2.527-3.102,3.396-5.359C182.412,45.752,182.848,42.996,182.848,39.742z"/>
		<path fill="#2E2E2E" d="M191.533,22.396v-0.407h11.555c1.932,0,3.633,0.263,5.109,0.79c1.475,0.526,2.703,1.244,3.684,2.153
			c0.982,0.909,1.715,1.934,2.201,3.074c0.486,1.141,0.73,2.341,0.73,3.601c0,1.229-0.227,2.413-0.682,3.553
			c-0.455,1.14-1.168,2.153-2.143,3.038c-0.973,0.886-2.248,1.591-3.828,2.118c-1.578,0.526-3.396,0.789-5.455,0.789
			c-0.652,0-1.914-0.096-3.779-0.287v12.154c0,2.504,1.275,3.797,3.828,3.877v0.383h-11.221V56.85
			c1.1-0.033,2.006-0.348,2.715-0.945s1.064-1.576,1.064-2.932V26.32c0-0.813-0.127-1.491-0.383-2.034
			c-0.254-0.542-0.555-0.929-0.896-1.161c-0.344-0.231-0.727-0.402-1.148-0.514c-0.424-0.111-0.715-0.183-0.873-0.215H191.533z
			 M198.926,23.233v16.604c1.229,0.224,2.439,0.335,3.637,0.335c2.281,0,4.215-0.586,5.803-1.758
			c1.586-1.173,2.379-3.346,2.379-6.52c0-2.616-0.697-4.765-2.092-6.448c-1.396-1.683-3.514-2.524-6.354-2.524
			C201.199,22.922,200.074,23.026,198.926,23.233z"/>
		<path fill="#2E2E2E" d="M217.947,22.396v-0.407h21.008v5.551h-0.336c0-2.967-1.977-4.45-5.934-4.45h-7.346v16.006h6.461
			c1.275,0,2.416-0.207,3.422-0.622c1.004-0.415,1.578-1.364,1.723-2.847h0.357v7.991h-0.357c-0.145-0.909-0.416-1.606-0.814-2.093
			c-0.398-0.487-0.793-0.811-1.184-0.97s-0.738-0.239-1.041-0.239c-0.574-0.096-1.172-0.144-1.795-0.144h-6.771v12.513
			c0,0.941,0.18,1.756,0.539,2.441s1.193,1.029,2.5,1.029h5.24c1.26,0,2.297-0.184,3.109-0.551c0.814-0.367,1.457-0.877,1.928-1.531
			c0.469-0.654,0.865-1.443,1.184-2.369h0.334l-1.219,5.527h-21.008V56.85h0.479c0.75,0,1.484-0.303,2.201-0.91
			c0.719-0.605,1.076-1.594,1.076-2.967V26.416c0-1.084-0.242-2.025-0.729-2.823c-0.486-0.797-1.336-1.196-2.549-1.196H217.947z"/>
		<path fill="#2E2E2E" d="M243.021,22.396v-0.407h13.566c1.898,0,3.648,0.164,5.252,0.491c1.604,0.327,3.039,0.762,4.307,1.304
			c1.268,0.542,2.365,1.137,3.289,1.782c0.926,0.646,1.707,1.304,2.346,1.974c1.115,1.117,2.064,2.357,2.846,3.72
			c0.783,1.364,1.369,2.804,1.76,4.319c0.391,1.516,0.586,3.079,0.586,4.689c0,1.611-0.191,3.143-0.574,4.594
			c-0.383,1.452-0.934,2.796-1.65,4.032c-0.719,1.236-1.576,2.355-2.572,3.361c-0.998,1.004-2.158,1.914-3.482,2.727
			c-1.131,0.67-2.432,1.213-3.898,1.627c-1.469,0.416-3.453,0.623-5.959,0.623h-15.814V56.85h0.479c1.102,0,1.922-0.416,2.465-1.244
			c0.543-0.83,0.812-1.707,0.812-2.633V26.368c0-0.893-0.146-1.643-0.441-2.249c-0.295-0.606-0.689-1.044-1.186-1.316
			c-0.494-0.271-1.043-0.407-1.65-0.407H243.021z M250.414,23.664v27.922c0,1.371,0.221,2.381,0.658,3.025
			c0.439,0.646,1.121,1.066,2.047,1.258c0.924,0.191,2.281,0.287,4.066,0.287c2.553,0,4.705-0.252,6.461-0.754
			c1.754-0.504,3.453-1.623,5.096-3.361c1.213-1.293,2.186-2.871,2.918-4.738c0.734-1.866,1.102-4.123,1.102-6.771
			c0-2.089-0.295-4.159-0.885-6.208c-0.59-2.049-1.492-3.872-2.705-5.467c-1.355-1.802-3.098-3.214-5.227-4.235
			c-2.129-1.021-4.693-1.531-7.693-1.531C254.705,23.09,252.76,23.281,250.414,23.664z"/>
		<path fill="#2E2E2E" d="M292.453,21.989v0.407c-1.053,0-1.945,0.295-2.68,0.885c-0.734,0.59-1.102,1.571-1.102,2.943v26.749
			c0,1.355,0.393,2.342,1.174,2.955c0.781,0.615,1.65,0.922,2.607,0.922v0.383h-11.174V56.85c1.021,0,1.902-0.299,2.645-0.898
			c0.742-0.598,1.111-1.59,1.111-2.979V26.224c0-1.467-0.369-2.472-1.111-3.015c-0.742-0.542-1.623-0.813-2.645-0.813v-0.407
			H292.453z"/>
		<path fill="#2E2E2E" d="M312.07,21.559l10.553,30.195c0.559,1.562,1.084,2.695,1.578,3.396s0.969,1.145,1.424,1.328
			s1.033,0.307,1.734,0.371v0.383h-11.508V56.85c1.18,0,2.09-0.111,2.727-0.336c0.639-0.223,0.957-0.828,0.957-1.818
			c0-0.541-0.15-1.268-0.453-2.176c-0.064-0.129-0.096-0.225-0.096-0.287l-3.135-9.355h-12.203l-2.799,8.66
			c-0.383,1.182-0.574,2.131-0.574,2.848c0,0.988,0.248,1.646,0.742,1.975c0.494,0.326,1.195,0.49,2.105,0.49v0.383h-8.279V56.85
			c1.182-0.111,2.127-0.562,2.836-1.352c0.709-0.791,1.328-1.99,1.854-3.602l9.953-30.338H312.07z M304.057,41.608h11.221
			l-5.742-16.724h-0.096L304.057,41.608z"/>
	</g>
</g>
<g>
	<g>
		<linearGradient id="SVGID_1_" gradientUnits="userSpaceOnUse" x1="7.4673" y1="39.9424" x2="50.9062" y2="39.9424">
			<stop  offset="0" style="stop-color:#FFFFFF"/>
			<stop  offset="1" style="stop-color:#E8E8E8"/>
		</linearGradient>
		<path fill-rule="evenodd" clip-rule="evenodd" fill="url(#SVGID_1_)" d="M37.01,4.335c-0.637,0.717-1.217,1.35-1.775,2
			c-2.725,3.176-4.819,6.727-5.841,10.793c-0.663,2.638-0.632,5.329,0.106,8.019c1.766,6.438,6.052,11.258,10.179,16.196
			c2.549,3.049,5.164,6.043,7.39,9.354c2.955,4.395,4.443,9.158,3.604,14.441c-0.347,2.191-1.354,4.221-2.474,6.152
			c-0.736,1.27-1.544,2.488-2.528,3.59c-0.494,0.555-1.047,0.842-1.775,0.779c-3.241-0.273-6.457-0.451-9.661-1.309
			c-8.438-2.256-15.015-7.072-20.105-13.998c-2.11-2.871-3.606-6.096-4.768-9.52c-1.58-4.656-2.158-9.383-1.788-14.224
			c0.297-3.893,1.167-7.672,2.762-11.288c1.161-2.631,2.482-5.142,4.183-7.454c0.445-0.606,0.926-1.186,1.392-1.776
			c0.128-0.163,0.29-0.312,0.493-0.155c0.184,0.142,0.148,0.383,0.058,0.551c-0.354,0.662-0.717,1.32-1.076,1.977
			c-3.529,6.447-4.625,13.34-4.142,20.608c0.292,4.408,1.505,8.537,3.393,12.449c2.473,5.127,6.051,9.361,10.817,12.596
			c3.057,2.074,6.336,3.592,9.834,4.68c1.706,0.529,3.497,0.711,5.229,1.174c1.126,0.301,1.66-0.795,2.099-1.605
			c1.053-1.941,1.54-4.066,1.8-6.25c0.038-0.314,0.188-0.652-0.107-0.893c-0.338-0.273-0.686-0.062-1.001,0.098
			c-0.953,0.484-1.467,1.443-2.258,2.105c-0.578,0.486-1.104,1.035-1.667,1.539c-0.328,0.295-0.702,0.412-1.057,0.045
			c-0.349-0.359-0.254-0.746,0.055-1.062c1.001-1.023,2.021-2.029,3.037-3.039c0.197-0.195,0.418-0.367,0.619-0.561
			c2.078-1.988,2.124-2.312,0.634-4.748c-0.615-1.006-1.248-0.4-1.75,0.074c-1.593,1.504-3.136,3.061-4.699,4.596
			c-0.682,0.67-1.362,1.342-2.047,2.008c-0.469,0.455-1.045,0.764-1.564,0.213c-0.501-0.531-0.069-1.031,0.341-1.438
			c2.372-2.357,4.755-4.703,7.119-7.068c0.968-0.967,0.953-1.457,0.052-2.543c-0.43-0.518-0.904-1.021-1.229-1.604
			c-0.64-1.145-1.31-1.086-2.321-0.172c-1.238,1.123-2.377,2.352-3.563,3.531c-1.865,1.854-3.733,3.703-5.6,5.553
			c-0.438,0.434-0.87,0.898-1.506,0.281c-0.643-0.623-0.32-1.119,0.185-1.619c2.968-2.941,5.932-5.891,8.896-8.836
			c0.254-0.254,0.485-0.531,0.755-0.766c0.718-0.623,0.784-1.182,0.021-1.869c-0.645-0.58-1.172-1.295-1.746-1.955
			c-1.273-1.463-1.455-1.477-2.769-0.08c-2.455,2.605-4.899,5.223-7.351,7.832c-0.409,0.436-0.827,0.861-1.253,1.279
			c-0.407,0.4-0.908,0.604-1.396,0.234c-0.569-0.428-0.419-1.043-0.044-1.484c0.8-0.938,1.676-1.812,2.528-2.703
			c2.201-2.305,4.412-4.6,6.606-6.91c1.093-1.15,1.068-1.342,0.11-2.583c-0.434-0.561-0.901-1.094-1.235-1.749
			c-0.528-1.037-1.357-1.104-2.209-0.261c-2.662,2.633-5.315,5.273-7.975,7.91c-0.226,0.225-0.45,0.457-0.707,0.641
			c-0.434,0.307-0.92,0.598-1.391,0.104c-0.484-0.512-0.298-1.068,0.116-1.498c1.05-1.09,2.139-2.141,3.22-3.199
			c1.934-1.892,3.883-3.771,5.805-5.676c0.705-0.699,1.249-1.363,0.327-2.427c-0.599-0.69-0.852-1.693-1.21-2.576
			c-0.463-1.136-0.688-1.248-1.547-0.425c-2.33,2.227-4.62,4.495-6.926,6.749c-0.142,0.139-0.261,0.306-0.416,0.427
			c-0.447,0.35-0.958,0.506-1.403,0.072c-0.459-0.447-0.299-0.992,0.083-1.392c1.099-1.153,2.237-2.27,3.362-3.396
			c1.689-1.691,3.371-3.389,5.076-5.064c0.466-0.458,0.654-0.97,0.61-1.606c-0.104-1.549-0.265-3.097-0.025-4.648
			c0.054-0.353,0.06-0.758-0.312-0.962c-0.483-0.265-0.714,0.172-0.984,0.438c-1.643,1.623-3.287,3.244-4.918,4.878
			c-0.461,0.462-0.994,0.857-1.529,0.288c-0.517-0.551,0.006-0.997,0.41-1.401c2.22-2.225,4.356-4.54,6.673-6.658
			c1.706-1.56,2.595-3.596,3.744-5.485c2.056-3.382,4.836-5.972,8.323-7.809c0.413-0.218,0.743-0.622,1.261-0.627
			C36.703,4.216,36.739,4.24,37.01,4.335z"/>
		<linearGradient id="SVGID_2_" gradientUnits="userSpaceOnUse" x1="35.4673" y1="38.7266" x2="78.9062" y2="38.7266">
			<stop  offset="0" style="stop-color:#FFFFFF"/>
			<stop  offset="1" style="stop-color:#E8E8E8"/>
		</linearGradient>
		<path fill-rule="evenodd" clip-rule="evenodd" fill="url(#SVGID_2_)" d="M49.363,74.334c0.637-0.717,1.217-1.35,1.775-2.002
			c2.725-3.176,4.819-6.727,5.841-10.793c0.663-2.639,0.632-5.328-0.106-8.02c-1.766-6.438-6.052-11.258-10.179-16.195
			c-2.549-3.05-5.164-6.044-7.39-9.354c-2.955-4.395-4.443-9.157-3.604-14.441c0.347-2.19,1.354-4.221,2.474-6.151
			c0.736-1.27,1.544-2.488,2.528-3.59c0.494-0.555,1.047-0.842,1.775-0.779c3.241,0.272,6.457,0.451,9.661,1.308
			c8.438,2.256,15.015,7.072,20.105,13.998c2.11,2.871,3.606,6.097,4.768,9.52c1.58,4.656,2.158,9.384,1.788,14.225
			c-0.298,3.893-1.167,7.672-2.762,11.287c-1.161,2.633-2.482,5.143-4.183,7.455c-0.445,0.605-0.926,1.186-1.392,1.775
			c-0.128,0.164-0.29,0.312-0.493,0.156c-0.184-0.143-0.148-0.383-0.058-0.551c0.354-0.662,0.717-1.32,1.076-1.977
			c3.529-6.447,4.625-13.34,4.142-20.609c-0.292-4.408-1.505-8.538-3.393-12.45c-2.473-5.127-6.051-9.36-10.817-12.595
			c-3.057-2.074-6.336-3.592-9.834-4.68c-1.706-0.53-3.497-0.712-5.229-1.175c-1.126-0.3-1.66,0.795-2.099,1.605
			c-1.053,1.941-1.54,4.067-1.8,6.25c-0.038,0.314-0.188,0.652,0.107,0.893c0.338,0.274,0.686,0.063,1.001-0.097
			c0.953-0.484,1.467-1.443,2.258-2.105c0.578-0.486,1.104-1.035,1.667-1.54c0.328-0.295,0.702-0.412,1.057-0.045
			c0.349,0.359,0.254,0.746-0.055,1.062c-1.001,1.023-2.021,2.03-3.037,3.039c-0.197,0.196-0.418,0.368-0.619,0.561
			c-2.078,1.988-2.124,2.312-0.634,4.748c0.615,1.006,1.248,0.401,1.75-0.074c1.593-1.504,3.136-3.061,4.699-4.596
			c0.682-0.669,1.362-1.342,2.047-2.007c0.469-0.455,1.045-0.764,1.564-0.214c0.501,0.531,0.069,1.031-0.341,1.438
			c-2.372,2.356-4.755,4.703-7.119,7.067c-0.968,0.968-0.953,1.457-0.052,2.543c0.43,0.519,0.904,1.022,1.229,1.604
			c0.64,1.144,1.31,1.086,2.321,0.171c1.238-1.122,2.377-2.351,3.563-3.53c1.865-1.854,3.733-3.703,5.6-5.553
			c0.438-0.435,0.87-0.899,1.506-0.282c0.643,0.623,0.32,1.12-0.185,1.62c-2.968,2.941-5.932,5.89-8.896,8.836
			c-0.254,0.253-0.485,0.53-0.755,0.765c-0.718,0.623-0.784,1.182-0.021,1.869c0.645,0.581,1.172,1.295,1.746,1.955
			c1.273,1.463,1.455,1.477,2.769,0.081c2.455-2.606,4.899-5.223,7.351-7.832c0.409-0.436,0.827-0.861,1.253-1.28
			c0.407-0.399,0.908-0.603,1.396-0.234c0.569,0.429,0.419,1.044,0.044,1.484c-0.8,0.938-1.676,1.812-2.528,2.704
			c-2.201,2.304-4.412,4.599-6.606,6.91c-1.093,1.15-1.068,1.342-0.11,2.583c0.434,0.561,0.901,1.094,1.235,1.748
			c0.528,1.037,1.357,1.105,2.209,0.262c2.662-2.633,5.315-5.274,7.975-7.911c0.226-0.225,0.45-0.457,0.707-0.641
			c0.434-0.307,0.92-0.598,1.391-0.103c0.484,0.511,0.298,1.068-0.116,1.497c-1.05,1.09-2.139,2.142-3.22,3.2
			c-1.934,1.892-3.883,3.771-5.805,5.675c-0.705,0.699-1.249,1.363-0.327,2.428c0.599,0.689,0.852,1.693,1.21,2.576
			c0.463,1.135,0.688,1.246,1.547,0.424c2.33-2.227,4.62-4.494,6.926-6.748c0.142-0.139,0.261-0.307,0.416-0.428
			c0.447-0.35,0.958-0.506,1.403-0.072c0.459,0.447,0.299,0.992-0.083,1.393c-1.099,1.152-2.237,2.27-3.362,3.396
			c-1.689,1.689-3.371,3.389-5.076,5.064c-0.466,0.457-0.654,0.969-0.61,1.605c0.104,1.549,0.265,3.096,0.025,4.648
			c-0.054,0.352-0.06,0.758,0.312,0.961c0.483,0.266,0.714-0.172,0.984-0.438c1.643-1.623,3.287-3.244,4.918-4.879
			c0.461-0.461,0.994-0.857,1.529-0.287c0.517,0.551-0.006,0.998-0.41,1.402c-2.22,2.225-4.356,4.539-6.673,6.658
			c-1.706,1.559-2.595,3.596-3.744,5.484c-2.056,3.383-4.836,5.973-8.323,7.809c-0.413,0.219-0.743,0.623-1.261,0.629
			C49.671,74.453,49.634,74.428,49.363,74.334z"/>
	</g>
	<g>
		<linearGradient id="SVGID_3_" gradientUnits="userSpaceOnUse" x1="93.5332" y1="38.9453" x2="116.813" y2="38.9453">
			<stop  offset="0" style="stop-color:#FFFFFF"/>
			<stop  offset="1" style="stop-color:#E8E8E8"/>
		</linearGradient>
		<path fill="url(#SVGID_3_)" d="M93.533,21.73v-0.407h11.556c1.93,0,3.633,0.263,5.108,0.79c1.476,0.526,2.704,1.244,3.685,2.153
			c0.981,0.909,1.715,1.934,2.201,3.074c0.487,1.141,0.73,2.341,0.73,3.601c0,1.229-0.227,2.413-0.682,3.553
			c-0.454,1.14-1.168,2.153-2.141,3.038c-0.973,0.886-2.249,1.591-3.828,2.118c-1.579,0.527-3.397,0.789-5.455,0.789
			c-0.654,0-1.914-0.096-3.78-0.287v12.154c0,2.504,1.276,3.797,3.828,3.877v0.383H93.533v-0.383
			c1.101-0.033,2.006-0.348,2.716-0.945c0.709-0.598,1.064-1.576,1.064-2.932V25.654c0-0.813-0.128-1.491-0.383-2.034
			c-0.255-0.542-0.554-0.929-0.897-1.161c-0.343-0.231-0.726-0.402-1.148-0.514c-0.422-0.111-0.714-0.183-0.873-0.215H93.533z
			 M100.926,22.568v16.604c1.228,0.224,2.44,0.335,3.637,0.335c2.281,0,4.215-0.586,5.802-1.758c1.587-1.173,2.38-3.346,2.38-6.52
			c0-2.616-0.698-4.765-2.093-6.448c-1.396-1.683-3.514-2.524-6.353-2.524C103.199,22.257,102.075,22.361,100.926,22.568z"/>
		<linearGradient id="SVGID_4_" gradientUnits="userSpaceOnUse" x1="119.8994" y1="38.9453" x2="150.022" y2="38.9453">
			<stop  offset="0" style="stop-color:#FFFFFF"/>
			<stop  offset="1" style="stop-color:#E8E8E8"/>
		</linearGradient>
		<path fill="url(#SVGID_4_)" d="M120.378,21.826h-0.479v-0.502h12.202c1.961,0,3.625,0.303,4.989,0.909
			c1.363,0.606,2.424,1.375,3.182,2.309c0.758,0.933,1.301,1.918,1.627,2.955c0.326,1.037,0.49,2.058,0.49,3.062
			c0,1.276-0.268,2.5-0.801,3.672c-0.535,1.173-1.355,2.182-2.465,3.027c-1.109,0.846-2.492,1.42-4.15,1.723v0.096
			c2.105,1.021,4.051,3.046,5.838,6.078l3.182,5.383c1.436,2.408,2.588,3.932,3.457,4.57c0.869,0.637,1.727,0.996,2.572,1.076v0.383
			h-6.412c-0.271-0.352-0.525-0.689-0.766-1.018c-0.238-0.326-0.494-0.674-0.766-1.041c-0.16-0.238-0.395-0.602-0.705-1.088
			c-0.312-0.486-0.5-0.762-0.562-0.826l-4.211-6.961c-0.846-1.42-1.711-2.572-2.596-3.459c-0.887-0.885-1.711-1.518-2.477-1.9
			c-0.766-0.383-1.456-0.623-2.069-0.718c-0.614-0.096-1.336-0.144-2.166-0.144v12.895c0,2.504,1.276,3.797,3.828,3.877v0.383
			h-11.221v-0.383c0.702-0.033,1.324-0.164,1.866-0.395c0.542-0.232,0.993-0.631,1.352-1.197c0.359-0.566,0.539-1.328,0.539-2.285
			V25.654c0-1.403-0.343-2.393-1.029-2.967C121.941,22.113,121.191,21.826,120.378,21.826z M127.292,38.479h2.01
			c2.105,0,3.832-0.303,5.181-0.909c1.348-0.606,2.324-1.472,2.93-2.596c0.607-1.125,0.91-2.5,0.91-4.127
			c0-1.355-0.271-2.684-0.814-3.984c-0.541-1.3-1.463-2.393-2.764-3.277c-1.299-0.886-3.05-1.328-5.251-1.328
			c-0.894,0-1.627,0.072-2.201,0.215V38.479z"/>
		<linearGradient id="SVGID_5_" gradientUnits="userSpaceOnUse" x1="149.8062" y1="38.8975" x2="187.0586" y2="38.8975">
			<stop  offset="0" style="stop-color:#FFFFFF"/>
			<stop  offset="1" style="stop-color:#E8E8E8"/>
		</linearGradient>
		<path fill="url(#SVGID_5_)" d="M187.059,38.981c0,3.302-0.818,6.373-2.453,9.21c-1.635,2.84-3.863,5.102-6.688,6.783
			c-2.822,1.684-5.949,2.525-9.379,2.525c-3.445,0-6.603-0.842-9.474-2.525c-2.871-1.682-5.132-3.951-6.782-6.807
			c-1.651-2.855-2.477-5.965-2.477-9.331c0-2.584,0.49-5.012,1.472-7.286c0.98-2.272,2.353-4.254,4.115-5.945
			c1.762-1.69,3.771-2.999,6.029-3.924c2.257-0.925,4.613-1.388,7.07-1.388c2.408,0,4.721,0.442,6.938,1.328
			c2.219,0.885,4.207,2.165,5.971,3.84c1.762,1.675,3.146,3.661,4.15,5.958C186.557,33.717,187.059,36.238,187.059,38.981z
			 M182.848,39.077c0-4.689-0.83-8.358-2.488-11.006c-1.658-2.647-3.572-4.422-5.742-5.324c-2.17-0.901-4.211-1.352-6.125-1.352
			c-1.484,0-3.023,0.243-4.618,0.729c-1.595,0.487-3.146,1.376-4.653,2.668c-1.508,1.292-2.748,3.11-3.721,5.455
			s-1.459,5.24-1.459,8.685c0,3.03,0.402,5.674,1.208,7.93c0.805,2.258,1.914,4.1,3.325,5.527c1.412,1.428,2.967,2.457,4.666,3.086
			c1.698,0.631,3.465,0.945,5.298,0.945c1.645,0,3.307-0.291,4.99-0.873c1.682-0.582,3.221-1.531,4.617-2.848
			c1.395-1.314,2.527-3.102,3.396-5.359C182.412,45.086,182.848,42.33,182.848,39.077z"/>
		<linearGradient id="SVGID_6_" gradientUnits="userSpaceOnUse" x1="191.5332" y1="38.9453" x2="214.8125" y2="38.9453">
			<stop  offset="0" style="stop-color:#FFFFFF"/>
			<stop  offset="1" style="stop-color:#E8E8E8"/>
		</linearGradient>
		<path fill="url(#SVGID_6_)" d="M191.533,21.73v-0.407h11.555c1.932,0,3.633,0.263,5.109,0.79c1.475,0.526,2.703,1.244,3.684,2.153
			c0.982,0.909,1.715,1.934,2.201,3.074c0.486,1.141,0.73,2.341,0.73,3.601c0,1.229-0.227,2.413-0.682,3.553
			c-0.455,1.14-1.168,2.153-2.143,3.038c-0.973,0.886-2.248,1.591-3.828,2.118c-1.578,0.527-3.396,0.789-5.455,0.789
			c-0.652,0-1.914-0.096-3.779-0.287v12.154c0,2.504,1.275,3.797,3.828,3.877v0.383h-11.221v-0.383
			c1.1-0.033,2.006-0.348,2.715-0.945s1.064-1.576,1.064-2.932V25.654c0-0.813-0.127-1.491-0.383-2.034
			c-0.254-0.542-0.555-0.929-0.896-1.161c-0.344-0.231-0.727-0.402-1.148-0.514c-0.424-0.111-0.715-0.183-0.873-0.215H191.533z
			 M198.926,22.568v16.604c1.229,0.224,2.439,0.335,3.637,0.335c2.281,0,4.215-0.586,5.803-1.758
			c1.586-1.173,2.379-3.346,2.379-6.52c0-2.616-0.697-4.765-2.092-6.448c-1.396-1.683-3.514-2.524-6.354-2.524
			C201.199,22.257,200.074,22.361,198.926,22.568z"/>
		<linearGradient id="SVGID_7_" gradientUnits="userSpaceOnUse" x1="217.9473" y1="38.9453" x2="240.1738" y2="38.9453">
			<stop  offset="0" style="stop-color:#FFFFFF"/>
			<stop  offset="1" style="stop-color:#E8E8E8"/>
		</linearGradient>
		<path fill="url(#SVGID_7_)" d="M217.947,21.73v-0.407h21.008v5.551h-0.336c0-2.967-1.977-4.45-5.934-4.45h-7.346v16.006h6.461
			c1.275,0,2.416-0.207,3.422-0.622c1.004-0.415,1.578-1.364,1.723-2.847h0.357v7.992h-0.357c-0.145-0.91-0.416-1.607-0.814-2.094
			s-0.793-0.811-1.184-0.969c-0.391-0.159-0.738-0.239-1.041-0.239c-0.574-0.096-1.172-0.144-1.795-0.144h-6.771V52.02
			c0,0.941,0.18,1.756,0.539,2.441s1.193,1.029,2.5,1.029h5.24c1.26,0,2.297-0.184,3.109-0.551c0.814-0.367,1.457-0.877,1.928-1.531
			c0.469-0.654,0.865-1.443,1.184-2.369h0.334l-1.219,5.527h-21.008v-0.383h0.479c0.75,0,1.484-0.303,2.201-0.91
			c0.719-0.605,1.076-1.594,1.076-2.967V25.75c0-1.084-0.242-2.025-0.729-2.823c-0.486-0.797-1.336-1.196-2.549-1.196H217.947z"/>
		<linearGradient id="SVGID_8_" gradientUnits="userSpaceOnUse" x1="243.0215" y1="38.9453" x2="276.9727" y2="38.9453">
			<stop  offset="0" style="stop-color:#FFFFFF"/>
			<stop  offset="1" style="stop-color:#E8E8E8"/>
		</linearGradient>
		<path fill="url(#SVGID_8_)" d="M243.021,21.73v-0.407h13.566c1.898,0,3.648,0.164,5.252,0.491
			c1.604,0.327,3.039,0.762,4.307,1.304c1.268,0.542,2.365,1.137,3.289,1.782c0.926,0.646,1.707,1.304,2.346,1.974
			c1.115,1.117,2.064,2.357,2.846,3.72c0.783,1.364,1.369,2.804,1.76,4.319c0.391,1.516,0.586,3.079,0.586,4.689
			c0,1.612-0.191,3.143-0.574,4.594s-0.934,2.795-1.65,4.031c-0.719,1.236-1.576,2.355-2.572,3.361
			c-0.998,1.004-2.158,1.914-3.482,2.727c-1.131,0.67-2.432,1.213-3.898,1.627c-1.469,0.416-3.453,0.623-5.959,0.623h-15.814v-0.383
			h0.479c1.102,0,1.922-0.416,2.465-1.244c0.543-0.83,0.812-1.707,0.812-2.633V25.702c0-0.893-0.146-1.643-0.441-2.249
			c-0.295-0.606-0.689-1.044-1.186-1.316c-0.494-0.271-1.043-0.407-1.65-0.407H243.021z M250.414,22.999V50.92
			c0,1.371,0.221,2.381,0.658,3.025c0.439,0.646,1.121,1.066,2.047,1.258c0.924,0.191,2.281,0.287,4.066,0.287
			c2.553,0,4.705-0.252,6.461-0.754c1.754-0.504,3.453-1.623,5.096-3.361c1.213-1.293,2.186-2.871,2.918-4.738
			c0.734-1.865,1.102-4.123,1.102-6.771c0-2.089-0.295-4.159-0.885-6.208c-0.59-2.049-1.492-3.872-2.705-5.467
			c-1.355-1.802-3.098-3.214-5.227-4.235c-2.129-1.021-4.693-1.531-7.693-1.531C254.705,22.424,252.76,22.616,250.414,22.999z"/>
		<linearGradient id="SVGID_9_" gradientUnits="userSpaceOnUse" x1="281.2793" y1="38.9453" x2="292.4531" y2="38.9453">
			<stop  offset="0" style="stop-color:#FFFFFF"/>
			<stop  offset="1" style="stop-color:#E8E8E8"/>
		</linearGradient>
		<path fill="url(#SVGID_9_)" d="M292.453,21.324v0.407c-1.053,0-1.945,0.295-2.68,0.885c-0.734,0.59-1.102,1.571-1.102,2.943
			v26.748c0,1.355,0.393,2.342,1.174,2.955c0.781,0.615,1.65,0.922,2.607,0.922v0.383h-11.174v-0.383
			c1.021,0,1.902-0.299,2.645-0.898c0.742-0.598,1.111-1.59,1.111-2.979V25.559c0-1.467-0.369-2.472-1.111-3.015
			c-0.742-0.542-1.623-0.813-2.645-0.813v-0.407H292.453z"/>
		<linearGradient id="SVGID_10_" gradientUnits="userSpaceOnUse" x1="294.8438" y1="38.7295" x2="327.3594" y2="38.7295">
			<stop  offset="0" style="stop-color:#FFFFFF"/>
			<stop  offset="1" style="stop-color:#E8E8E8"/>
		</linearGradient>
		<path fill="url(#SVGID_10_)" d="M312.07,20.893l10.553,30.195c0.559,1.562,1.084,2.695,1.578,3.396s0.969,1.145,1.424,1.328
			s1.033,0.307,1.734,0.371v0.383h-11.508v-0.383c1.18,0,2.09-0.111,2.727-0.336c0.639-0.223,0.957-0.828,0.957-1.818
			c0-0.541-0.15-1.268-0.453-2.176c-0.064-0.129-0.096-0.225-0.096-0.287l-3.135-9.355h-12.203l-2.799,8.66
			c-0.383,1.182-0.574,2.131-0.574,2.848c0,0.988,0.248,1.646,0.742,1.975c0.494,0.326,1.195,0.49,2.105,0.49v0.383h-8.279v-0.383
			c1.182-0.111,2.127-0.562,2.836-1.352c0.709-0.791,1.328-1.99,1.854-3.602l9.953-30.337H312.07z M304.057,40.943h11.221
			l-5.742-16.725h-0.096L304.057,40.943z"/>
	</g>
</g>
</svg>
