<?xml version="1.0" encoding="UTF-8" standalone="no"?>
<!-- Created with Inkscape (http://www.inkscape.org/) -->

<svg
   sodipodi:docname="ufmg.svg"
   viewBox="0 0 346.66666 133.33333"
   height="133.33333"
   width="346.66666"
   id="svg25"
   version="1.1"
   inkscape:version="1.1.2 (b8e25be8, 2022-02-05)"
   xmlns:inkscape="http://www.inkscape.org/namespaces/inkscape"
   xmlns:sodipodi="http://sodipodi.sourceforge.net/DTD/sodipodi-0.dtd"
   xmlns="http://www.w3.org/2000/svg"
   xmlns:svg="http://www.w3.org/2000/svg">
  <defs
     id="defs29" />
  <sodipodi:namedview
     id="namedview27"
     pagecolor="#ffffff"
     bordercolor="#666666"
     borderopacity="1.0"
     inkscape:pageshadow="2"
     inkscape:pageopacity="0.0"
     inkscape:pagecheckerboard="0"
     showgrid="false"
     inkscape:zoom="1.9780299"
     inkscape:cx="107.43012"
     inkscape:cy="66.480288"
     inkscape:window-width="2560"
     inkscape:window-height="1027"
     inkscape:window-x="1512"
     inkscape:window-y="25"
     inkscape:window-maximized="1"
     inkscape:current-layer="g31" />
  <g
     inkscape:groupmode="layer"
     inkscape:label="Image"
     id="g31">
    <path
       style="fill:#a62b25;fill-opacity:0.992157;stroke-width:1.33333"
       d="m 204.48065,69.458889 c -0.50307,-0.503076 -0.91468,-3.826385 -0.91468,-7.385132 V 55.60331 l 29,0.359337 29,0.359336 v 6.666666 6.666667 l -28.08532,0.359128 c -15.44692,0.197521 -28.49692,-0.05248 -29,-0.555555 z m -0.91468,-26.133608 c 0,-0.914854 1.8621,-7.252751 4.13801,-14.084215 2.27589,-6.831465 3.775,-12.783851 3.33132,-13.227527 -0.44368,-0.443676 -2.30488,-0.0049 -4.136,0.975112 -4.41201,2.361235 -5.3038,1.169603 -2.13731,-2.855933 3.4403,-4.37362 11.23428,-8.442562 14.07992,-7.350585 1.88552,0.723542 2.12434,1.864318 1.34987,6.448323 l -0.94092,5.569265 7.03197,-5.598942 c 11.8687,-9.449994 18.04767,-8.843022 16.39198,1.610214 l -0.8729,5.510991 5.6074,-5.049565 c 10.23164,-9.213783 18.82332,-11.376544 18.82332,-4.738343 0,1.629348 -1.61785,7.930324 -3.59524,14.002166 -3.59765,11.047147 -3.54425,14.277901 0.18486,11.183021 1.09306,-0.907164 2.75757,-1.378709 3.69889,-1.047878 1.09973,0.386502 -0.1096,2.337932 -3.38344,5.459386 -5.10081,4.863485 -11.70417,6.546316 -13.60689,3.467648 -0.47258,-0.764626 1.13712,-7.039521 3.57709,-13.944209 3.36375,-9.518788 4.06263,-12.927663 2.89071,-14.099591 -2.48984,-2.489831 -14.20182,9.480073 -19.4658,19.894478 -3.19431,6.319714 -5.32151,8.995487 -7.3925,9.298954 -3.82484,0.560461 -3.72092,-0.853297 1.11418,-15.157399 4.74433,-14.035593 4.48686,-16.507559 -1.35964,-13.053944 -5.32824,3.147472 -11.24502,10.665566 -16.10871,20.468394 -2.83705,5.718128 -4.70721,7.983548 -6.59061,7.983548 -1.44626,0 -2.62956,-0.748516 -2.62956,-1.663369 z"
       id="path1491" />
    <g
       aria-label="U F      G"
       id="text2173"
       style="font-size:60px;line-height:1.25">
      <path
         d="M 126.19488,8.8794518 V 7.7954674 h 14.0625 v 1.0839844 h -1.49414 q -2.34375,0 -3.60352,1.9628902 -0.61523,0.908204 -0.61523,4.21875 v 16.113282 q 0,5.976562 -1.20117,9.287109 -1.17188,3.28125 -4.65821,5.654297 -3.45703,2.34375 -9.43359,2.34375 -6.50391,0 -9.87305,-2.255859 -3.36914,-2.25586 -4.77539,-6.064454 -0.9375,-2.607421 -0.9375,-9.785156 V 14.826717 q 0,-3.662109 -1.02539,-4.804687 Q 101.6441,8.8794518 99.388237,8.8794518 H 97.894096 V 7.7954674 h 17.167974 v 1.0839844 h -1.52344 q -2.46094,0 -3.51563,1.5527342 -0.73242,1.054688 -0.73242,4.394531 v 17.314454 q 0,2.314453 0.41016,5.302734 0.43945,2.988281 1.55273,4.658203 1.11328,1.669922 3.19336,2.753906 2.10938,1.083985 5.15625,1.083985 3.89649,0 6.97266,-1.699219 3.07617,-1.699219 4.18945,-4.335938 1.14258,-2.666015 1.14258,-8.99414 V 14.826717 q 0,-3.720703 -0.82031,-4.658203 -1.14258,-1.2890622 -3.39844,-1.2890622 z"
         style="font-family:'Times New Roman';-inkscape-font-specification:'Times New Roman, '"
         id="path26106" />
      <path
         d="M 168.2066,9.9634361 V 25.578671 h 7.23632 q 2.49024,0 3.63282,-1.083985 1.17187,-1.113281 1.55273,-4.365234 h 1.08399 v 13.447265 h -1.08399 q -0.0293,-2.314453 -0.61523,-3.398437 -0.55664,-1.083984 -1.58203,-1.611328 -0.9961,-0.556641 -2.98829,-0.556641 H 168.2066 V 40.49078 q 0,3.017578 0.38086,3.984375 0.29296,0.732422 1.23046,1.259766 1.28907,0.703125 2.69532,0.703125 h 1.43554 V 47.52203 H 156.898 v -1.083984 h 1.40625 q 2.46094,0 3.57422,-1.435547 0.70313,-0.9375 0.70313,-4.511719 V 14.826717 q 0,-3.017578 -0.38086,-3.984375 -0.29297,-0.732421 -1.20117,-1.2597652 -1.25977,-0.703125 -2.69532,-0.703125 H 156.898 V 7.7954674 h 29.56055 l 0.38086,8.7304686 h -1.02539 q -0.76172,-2.783203 -1.78711,-4.072265 -0.99609,-1.31836 -2.49024,-1.904297 -1.46484,-0.5859379 -4.57031,-0.5859379 z"
         style="font-family:'Times New Roman';-inkscape-font-specification:'Times New Roman, '"
         id="path26108" />
      <path
         d="m 316.15582,6.8872643 1.02539,12.5390627 h -1.02539 q -1.55274,-4.6875 -4.01368,-7.060547 -3.54492,-3.4277345 -9.11132,-3.4277345 -7.5879,0 -11.54297,6.0058595 -3.31055,5.068359 -3.31055,12.070312 0,5.683594 2.19727,10.371094 2.19726,4.6875 5.74218,6.884766 3.57422,2.167969 7.32422,2.167969 2.19727,0 4.24805,-0.556641 2.05078,-0.556641 3.95508,-1.640625 V 32.756405 q 0,-2.988281 -0.46875,-3.896484 -0.43946,-0.9375 -1.40625,-1.40625 -0.9375,-0.498047 -3.33985,-0.498047 v -1.113282 h 15.38086 v 1.113282 h -0.73242 q -2.28516,0 -3.13477,1.523437 -0.58593,1.083985 -0.58593,4.277344 v 12.158203 q -3.36914,1.816406 -6.65039,2.666016 -3.28125,0.849609 -7.29493,0.849609 -11.51367,0 -17.49023,-7.382812 -4.48242,-5.53711 -4.48242,-12.773438 0,-5.244141 2.51953,-10.048828 2.98828,-5.712891 8.20312,-8.7890626 4.36524,-2.5488281 10.3125,-2.5488281 2.16797,0 3.92579,0.3515625 1.78711,0.3515625 5.03906,1.5527343 1.64062,0.6152344 2.19726,0.6152344 0.55664,0 0.9375,-0.4980469 0.41016,-0.5273437 0.49805,-2.0214843 z"
         style="font-family:'Times New Roman';-inkscape-font-specification:'Times New Roman, '"
         id="path26110" />
    </g>
    <g
       aria-label="UNIVERSIDADE FEDERAL
DE MINAS GERAIS"
       id="text13571"
       style="font-size:18.6667px;line-height:1.25">
      <path
         d="m 30.258449,91.793125 h 2.697922 v 7.236992 q 0,1.722663 0.100261,2.233073 0.173177,0.82032 0.820314,1.32162 0.656251,0.49219 1.786461,0.49219 1.14844,0 1.731774,-0.46484 0.583334,-0.47396 0.701824,-1.15756 0.11849,-0.68359 0.11849,-2.269534 v -7.391941 h 2.697922 v 7.018242 q 0,2.406253 -0.218751,3.399743 -0.21875,0.99349 -0.811199,1.67709 -0.583335,0.68359 -1.567711,1.09375 -0.984377,0.40104 -2.570318,0.40104 -1.914065,0 -2.907557,-0.4375 -0.984377,-0.44661 -1.558596,-1.14844 -0.57422,-0.71094 -0.756512,-1.48568 -0.264324,-1.14844 -0.264324,-3.390628 z"
         style="font-weight:bold;font-family:Arial;-inkscape-font-specification:'Arial Bold';text-align:end;text-anchor:end"
         id="path26131" />
      <path
         d="M 43.79363,105.15513 V 91.793125 h 2.625005 l 5.46876,8.923195 v -8.923195 h 2.506515 v 13.362005 h -2.707036 l -5.386729,-8.713559 v 8.713559 z"
         style="font-weight:bold;font-family:Arial;-inkscape-font-specification:'Arial Bold';text-align:end;text-anchor:end"
         id="path26133" />
      <path
         d="M 57.173863,105.15513 V 91.793125 h 2.697921 v 13.362005 z"
         style="font-weight:bold;font-family:Arial;-inkscape-font-specification:'Arial Bold';text-align:end;text-anchor:end"
         id="path26135" />
      <path
         d="m 65.841846,105.15513 -4.77605,-13.362005 h 2.925786 l 3.381517,9.889345 3.272141,-9.889345 h 2.861985 L 68.72206,105.15513 Z"
         style="font-weight:bold;font-family:Arial;-inkscape-font-specification:'Arial Bold';text-align:end;text-anchor:end"
         id="path26137" />
      <path
         d="M 74.901759,105.15513 V 91.793125 h 9.90757 v 2.260421 H 77.59968 v 2.962245 h 6.708346 v 2.251306 H 77.59968 v 3.636723 h 7.464857 v 2.25131 z"
         style="font-weight:bold;font-family:Arial;-inkscape-font-specification:'Arial Bold';text-align:end;text-anchor:end"
         id="path26139" />
      <path
         d="M 87.379646,105.15513 V 91.793125 h 5.678396 q 2.141931,0 3.108078,0.364584 0.975263,0.35547 1.558597,1.276044 0.583334,0.920575 0.583334,2.105473 0,1.503909 -0.884116,2.488285 -0.884116,0.975263 -2.643234,1.230471 0.875002,0.510418 1.440107,1.121098 0.57422,0.61068 1.540367,2.16927 l 1.631514,2.60678 H 96.16612 l -1.950524,-2.90756 q -1.039064,-1.5586 -1.421878,-1.95964 -0.382813,-0.410155 -0.811199,-0.555988 -0.428386,-0.154949 -1.358075,-0.154949 h -0.546876 v 5.578137 z m 2.697922,-7.710953 h 1.996097 q 1.94141,0 2.424484,-0.164063 0.483073,-0.164063 0.756511,-0.565105 0.273438,-0.401042 0.273438,-1.002606 0,-0.67448 -0.364584,-1.084637 -0.355469,-0.419272 -1.01172,-0.528647 -0.328126,-0.04557 -1.968754,-0.04557 h -2.105472 z"
         style="font-weight:bold;font-family:Arial;-inkscape-font-specification:'Arial Bold';text-align:end;text-anchor:end"
         id="path26141" />
      <path
         d="m 100.17655,100.80746 2.625,-0.2552 q 0.23698,1.32161 0.95704,1.94141 0.72916,0.61979 1.95964,0.61979 1.30338,0 1.95963,-0.54688 0.66537,-0.55599 0.66537,-1.29427 0,-0.47396 -0.28255,-0.80209 -0.27344,-0.33724 -0.96615,-0.58333 -0.47396,-0.164063 -2.16016,-0.583335 -2.16927,-0.537761 -3.04428,-1.321617 -1.23047,-1.102866 -1.23047,-2.688806 0,-1.020836 0.57422,-1.904952 0.58334,-0.893231 1.66797,-1.358075 1.09376,-0.464845 2.63412,-0.464845 2.51563,0 3.78256,1.102867 1.27605,1.102866 1.33985,2.944016 l -2.69792,0.118489 q -0.17318,-1.029949 -0.7474,-1.476565 -0.5651,-0.45573 -1.70443,-0.45573 -1.17578,0 -1.84115,0.483074 -0.42839,0.309896 -0.42839,0.829429 0,0.473959 0.40105,0.811199 0.51041,0.428386 2.47917,0.893231 1.96875,0.464844 2.90756,0.966147 0.94791,0.492189 1.47656,1.358076 0.53776,0.856772 0.53776,2.123697 0,1.14844 -0.63802,2.15105 -0.63802,1.00261 -1.80469,1.49479 -1.16667,0.48308 -2.90756,0.48308 -2.53386,0 -3.89193,-1.16667 -1.35808,-1.17578 -1.6224,-3.41798 z"
         style="font-weight:bold;font-family:Arial;-inkscape-font-specification:'Arial Bold';text-align:end;text-anchor:end"
         id="path26143" />
      <path
         d="M 113.24688,105.15513 V 91.793125 h 2.69792 v 13.362005 z"
         style="font-weight:bold;font-family:Arial;-inkscape-font-specification:'Arial Bold';text-align:end;text-anchor:end"
         id="path26145" />
      <path
         d="m 118.49689,91.793125 h 4.931 q 1.66797,0 2.54297,0.255209 1.17578,0.346355 2.01433,1.230471 0.83854,0.884116 1.27604,2.169275 0.4375,1.276044 0.4375,3.153651 0,1.649739 -0.41016,2.843759 -0.5013,1.45833 -1.43099,2.36068 -0.70182,0.68359 -1.89583,1.06641 -0.89324,0.28255 -2.38803,0.28255 h -5.07683 z m 2.69792,2.260421 v 8.850274 h 2.01433 q 1.13021,0 1.63151,-0.1276 0.65625,-0.16406 1.08464,-0.55599 0.4375,-0.39193 0.71094,-1.28516 0.27343,-0.90235 0.27343,-2.451829 0,-1.549482 -0.27343,-2.37891 -0.27344,-0.829429 -0.76563,-1.294273 -0.49219,-0.464845 -1.2487,-0.628908 -0.56511,-0.127604 -2.21485,-0.127604 z"
         style="font-weight:bold;font-family:Arial;-inkscape-font-specification:'Arial Bold';text-align:end;text-anchor:end"
         id="path26147" />
      <path
         d="m 144.04511,105.15513 h -2.9349 l -1.16667,-3.03516 h -5.34115 l -1.10287,3.03516 h -2.86198 l 5.20443,-13.362005 h 2.85287 z m -4.96745,-5.286469 -1.84115,-4.958343 -1.80469,4.958343 z"
         style="font-weight:bold;font-family:Arial;-inkscape-font-specification:'Arial Bold';text-align:end;text-anchor:end"
         id="path26149" />
      <path
         d="m 145.47611,91.793125 h 4.93099 q 1.66798,0 2.54298,0.255209 1.17578,0.346355 2.01432,1.230471 0.83855,0.884116 1.27605,2.169275 0.4375,1.276044 0.4375,3.153651 0,1.649739 -0.41016,2.843759 -0.5013,1.45833 -1.43099,2.36068 -0.70182,0.68359 -1.89584,1.06641 -0.89323,0.28255 -2.38802,0.28255 h -5.07683 z m 2.69792,2.260421 v 8.850274 h 2.01432 q 1.13021,0 1.63152,-0.1276 0.65625,-0.16406 1.08463,-0.55599 0.43751,-0.39193 0.71094,-1.28516 0.27344,-0.90235 0.27344,-2.451829 0,-1.549482 -0.27344,-2.37891 -0.27343,-0.829429 -0.76562,-1.294273 -0.49219,-0.464845 -1.2487,-0.628908 -0.56511,-0.127604 -2.21485,-0.127604 z"
         style="font-weight:bold;font-family:Arial;-inkscape-font-specification:'Arial Bold';text-align:end;text-anchor:end"
         id="path26151" />
      <path
         d="M 158.97483,105.15513 V 91.793125 h 9.90757 v 2.260421 h -7.20965 v 2.962245 h 6.70835 v 2.251306 h -6.70835 v 3.636723 h 7.46486 v 2.25131 z"
         style="font-weight:bold;font-family:Arial;-inkscape-font-specification:'Arial Bold';text-align:end;text-anchor:end"
         id="path26153" />
      <path
         d="M 176.63892,105.15513 V 91.793125 h 9.16017 v 2.260421 h -6.46225 v 3.162766 h 5.57813 v 2.260421 h -5.57813 v 5.678397 z"
         style="font-weight:bold;font-family:Arial;-inkscape-font-specification:'Arial Bold';text-align:end;text-anchor:end"
         id="path26155" />
      <path
         d="M 188.03217,105.15513 V 91.793125 h 9.90757 v 2.260421 h -7.20965 v 2.962245 h 6.70835 v 2.251306 h -6.70835 v 3.636723 h 7.46486 v 2.25131 z"
         style="font-weight:bold;font-family:Arial;-inkscape-font-specification:'Arial Bold';text-align:end;text-anchor:end"
         id="path26157" />
      <path
         d="m 200.49184,91.793125 h 4.931 q 1.66797,0 2.54297,0.255209 1.17578,0.346355 2.01433,1.230471 0.83854,0.884116 1.27604,2.169275 0.4375,1.276044 0.4375,3.153651 0,1.649739 -0.41016,2.843759 -0.5013,1.45833 -1.43099,2.36068 -0.70182,0.68359 -1.89584,1.06641 -0.89323,0.28255 -2.38802,0.28255 h -5.07683 z m 2.69792,2.260421 v 8.850274 h 2.01433 q 1.13021,0 1.63151,-0.1276 0.65625,-0.16406 1.08464,-0.55599 0.4375,-0.39193 0.71094,-1.28516 0.27343,-0.90235 0.27343,-2.451829 0,-1.549482 -0.27343,-2.37891 -0.27344,-0.829429 -0.76563,-1.294273 -0.49219,-0.464845 -1.2487,-0.628908 -0.56511,-0.127604 -2.21485,-0.127604 z"
         style="font-weight:bold;font-family:Arial;-inkscape-font-specification:'Arial Bold';text-align:end;text-anchor:end"
         id="path26159" />
      <path
         d="M 213.99056,105.15513 V 91.793125 h 9.90757 v 2.260421 h -7.20965 v 2.962245 h 6.70835 v 2.251306 h -6.70835 v 3.636723 h 7.46486 v 2.25131 z"
         style="font-weight:bold;font-family:Arial;-inkscape-font-specification:'Arial Bold';text-align:end;text-anchor:end"
         id="path26161" />
      <path
         d="M 226.46844,105.15513 V 91.793125 h 5.6784 q 2.14193,0 3.10808,0.364584 0.97526,0.35547 1.55859,1.276044 0.58334,0.920575 0.58334,2.105473 0,1.503909 -0.88412,2.488285 -0.88412,0.975263 -2.64323,1.230471 0.875,0.510418 1.4401,1.121098 0.57422,0.61068 1.54037,2.16927 l 1.63151,2.60678 h -3.22656 l -1.95053,-2.90756 q -1.03906,-1.5586 -1.42188,-1.95964 -0.38281,-0.410155 -0.8112,-0.555988 -0.42838,-0.154949 -1.35807,-0.154949 h -0.54688 v 5.578137 z m 2.69792,-7.710953 h 1.9961 q 1.94141,0 2.42448,-0.164063 0.48308,-0.164063 0.75652,-0.565105 0.27343,-0.401042 0.27343,-1.002606 0,-0.67448 -0.36458,-1.084637 -0.35547,-0.419272 -1.01172,-0.528647 -0.32813,-0.04557 -1.96875,-0.04557 h -2.10548 z"
         style="font-weight:bold;font-family:Arial;-inkscape-font-specification:'Arial Bold';text-align:end;text-anchor:end"
         id="path26163" />
      <path
         d="m 251.99844,105.15513 h -2.93491 l -1.16666,-3.03516 h -5.34116 l -1.10287,3.03516 h -2.86198 l 5.20444,-13.362005 h 2.85287 z m -4.96746,-5.286469 -1.84115,-4.958343 -1.80469,4.958343 z"
         style="font-weight:bold;font-family:Arial;-inkscape-font-specification:'Arial Bold';text-align:end;text-anchor:end"
         id="path26165" />
      <path
         d="M 253.51146,105.15513 V 91.9025 h 2.69792 v 11.00132 h 6.70835 v 2.25131 z"
         style="font-weight:bold;font-family:Arial;-inkscape-font-specification:'Arial Bold';text-align:end;text-anchor:end"
         id="path26167" />
      <path
         d="m 96.731226,115.34258 h 4.930994 q 1.66798,0 2.54298,0.25521 1.17578,0.34636 2.01432,1.23047 0.83855,0.88412 1.27605,2.16928 0.4375,1.27604 0.4375,3.15365 0,1.64974 -0.41016,2.84376 -0.5013,1.45833 -1.43099,2.36068 -0.70182,0.68359 -1.89584,1.06641 -0.89323,0.28255 -2.38802,0.28255 h -5.076834 z m 2.697921,2.26043 v 8.85027 h 2.014323 q 1.13021,0 1.63152,-0.1276 0.65625,-0.16407 1.08463,-0.55599 0.43751,-0.39193 0.71094,-1.28516 0.27344,-0.90235 0.27344,-2.45183 0,-1.54948 -0.27344,-2.37891 -0.27343,-0.82943 -0.76562,-1.29427 -0.49219,-0.46485 -1.2487,-0.62891 -0.56511,-0.1276 -2.21485,-0.1276 z"
         style="font-weight:bold;font-family:Arial;-inkscape-font-specification:'Arial Bold';text-align:end;text-anchor:end"
         id="path26169" />
      <path
         d="m 110.22995,128.70459 v -13.36201 h 9.90757 v 2.26043 h -7.20965 v 2.96224 h 6.70835 v 2.25131 h -6.70835 v 3.63672 h 7.46486 v 2.25131 z"
         style="font-weight:bold;font-family:Arial;-inkscape-font-specification:'Arial Bold';text-align:end;text-anchor:end"
         id="path26171" />
      <path
         d="m 127.83936,128.70459 v -13.36201 h 4.03776 l 2.42449,9.1146 2.39714,-9.1146 h 4.04688 v 13.36201 h -2.50652 v -10.51825 l -2.65235,10.51825 h -2.59766 l -2.64323,-10.51825 v 10.51825 z"
         style="font-weight:bold;font-family:Arial;-inkscape-font-specification:'Arial Bold';text-align:end;text-anchor:end"
         id="path26173" />
      <path
         d="m 143.36152,128.70459 v -13.36201 h 2.69792 v 13.36201 z"
         style="font-weight:bold;font-family:Arial;-inkscape-font-specification:'Arial Bold';text-align:end;text-anchor:end"
         id="path26175" />
      <path
         d="m 148.64799,128.70459 v -13.36201 h 2.625 l 5.46876,8.9232 v -8.9232 h 2.50652 v 13.36201 h -2.70704 l -5.38673,-8.71356 v 8.71356 z"
         style="font-weight:bold;font-family:Arial;-inkscape-font-specification:'Arial Bold';text-align:end;text-anchor:end"
         id="path26177" />
      <path
         d="m 174.15975,128.70459 h -2.9349 l -1.16667,-3.03516 h -5.34115 l -1.10287,3.03516 h -2.86198 l 5.20443,-13.36201 h 2.85287 z m -4.96745,-5.28647 -1.84115,-4.95834 -1.80469,4.95834 z"
         style="font-weight:bold;font-family:Arial;-inkscape-font-specification:'Arial Bold';text-align:end;text-anchor:end"
         id="path26179" />
      <path
         d="m 174.91627,124.35692 2.625,-0.25521 q 0.23698,1.32162 0.95703,1.94141 0.72917,0.6198 1.95964,0.6198 1.30339,0 1.95964,-0.54688 0.66537,-0.55599 0.66537,-1.29427 0,-0.47396 -0.28256,-0.80209 -0.27343,-0.33724 -0.96614,-0.58333 -0.47396,-0.16406 -2.16016,-0.58334 -2.16928,-0.53776 -3.04428,-1.32161 -1.23047,-1.10287 -1.23047,-2.68881 0,-1.02083 0.57422,-1.90495 0.58333,-0.89323 1.66797,-1.35808 1.09375,-0.46484 2.63412,-0.46484 2.51563,0 3.78256,1.10287 1.27604,1.10286 1.33984,2.94401 l -2.69792,0.11849 q -0.17317,-1.02995 -0.74739,-1.47656 -0.56511,-0.45573 -1.70443,-0.45573 -1.17579,0 -1.84115,0.48307 -0.42839,0.3099 -0.42839,0.82943 0,0.47396 0.40104,0.8112 0.51042,0.42838 2.47917,0.89323 1.96876,0.46484 2.90756,0.96615 0.94792,0.49218 1.47657,1.35807 0.53776,0.85677 0.53776,2.1237 0,1.14844 -0.63802,2.15105 -0.63803,1.00261 -1.80469,1.49479 -1.16667,0.48308 -2.90756,0.48308 -2.53386,0 -3.89194,-1.16667 -1.35807,-1.17578 -1.62239,-3.41798 z"
         style="font-weight:bold;font-family:Arial;-inkscape-font-specification:'Arial Bold';text-align:end;text-anchor:end"
         id="path26181" />
      <path
         d="m 199.46188,123.79182 v -2.25131 h 5.81512 v 5.32293 q -0.84766,0.82031 -2.46094,1.44922 -1.60417,0.61979 -3.25392,0.61979 -2.09635,0 -3.65495,-0.875 -1.5586,-0.88412 -2.34245,-2.51563 -0.78386,-1.64063 -0.78386,-3.56381 0,-2.08724 0.875,-3.70964 0.87501,-1.6224 2.56121,-2.48828 1.28515,-0.66537 3.19922,-0.66537 2.48829,0 3.88282,1.04818 1.40365,1.03906 1.80469,2.88021 l -2.67969,0.5013 q -0.28255,-0.98437 -1.06641,-1.54948 -0.77474,-0.57422 -1.94141,-0.57422 -1.76823,0 -2.81641,1.1211 -1.03907,1.12109 -1.03907,3.32683 0,2.37891 1.0573,3.57292 1.05729,1.1849 2.77084,1.1849 0.84765,0 1.69531,-0.32813 0.85677,-0.33724 1.46745,-0.8112 v -1.69531 z"
         style="font-weight:bold;font-family:Arial;-inkscape-font-specification:'Arial Bold';text-align:end;text-anchor:end"
         id="path26183" />
      <path
         d="m 207.75616,128.70459 v -13.36201 h 9.90757 v 2.26043 h -7.20964 v 2.96224 h 6.70834 v 2.25131 h -6.70834 v 3.63672 h 7.46485 v 2.25131 z"
         style="font-weight:bold;font-family:Arial;-inkscape-font-specification:'Arial Bold';text-align:end;text-anchor:end"
         id="path26185" />
      <path
         d="m 220.23405,128.70459 v -13.36201 h 5.6784 q 2.14193,0 3.10808,0.36459 0.97526,0.35547 1.55859,1.27604 0.58334,0.92058 0.58334,2.10547 0,1.50391 -0.88412,2.48829 -0.88412,0.97526 -2.64323,1.23047 0.875,0.51042 1.4401,1.1211 0.57422,0.61068 1.54037,2.16927 l 1.63151,2.60678 h -3.22656 L 227.07,125.79703 q -1.03906,-1.5586 -1.42188,-1.95964 -0.38281,-0.41016 -0.8112,-0.55599 -0.42838,-0.15495 -1.35807,-0.15495 h -0.54688 v 5.57814 z m 2.69792,-7.71095 h 1.9961 q 1.94141,0 2.42448,-0.16407 0.48308,-0.16406 0.75652,-0.5651 0.27343,-0.40104 0.27343,-1.00261 0,-0.67448 -0.36458,-1.08464 -0.35547,-0.41927 -1.01172,-0.52864 -0.32813,-0.0456 -1.96875,-0.0456 h -2.10548 z"
         style="font-weight:bold;font-family:Arial;-inkscape-font-specification:'Arial Bold';text-align:end;text-anchor:end"
         id="path26187" />
      <path
         d="m 245.76405,128.70459 h -2.9349 l -1.16667,-3.03516 h -5.34115 l -1.10287,3.03516 h -2.86198 l 5.20443,-13.36201 h 2.85287 z m -4.96745,-5.28647 -1.84115,-4.95834 -1.80469,4.95834 z"
         style="font-weight:bold;font-family:Arial;-inkscape-font-specification:'Arial Bold';text-align:end;text-anchor:end"
         id="path26189" />
      <path
         d="m 247.12213,128.70459 v -13.36201 h 2.69792 v 13.36201 z"
         style="font-weight:bold;font-family:Arial;-inkscape-font-specification:'Arial Bold';text-align:end;text-anchor:end"
         id="path26191" />
      <path
         d="m 251.69764,124.35692 2.62501,-0.25521 q 0.23698,1.32162 0.95703,1.94141 0.72917,0.6198 1.95964,0.6198 1.30339,0 1.95964,-0.54688 0.66537,-0.55599 0.66537,-1.29427 0,-0.47396 -0.28256,-0.80209 -0.27343,-0.33724 -0.96614,-0.58333 -0.47396,-0.16406 -2.16016,-0.58334 -2.16928,-0.53776 -3.04428,-1.32161 -1.23047,-1.10287 -1.23047,-2.68881 0,-1.02083 0.57422,-1.90495 0.58333,-0.89323 1.66797,-1.35808 1.09375,-0.46484 2.63412,-0.46484 2.51563,0 3.78256,1.10287 1.27604,1.10286 1.33984,2.94401 l -2.69792,0.11849 q -0.17317,-1.02995 -0.74739,-1.47656 -0.56511,-0.45573 -1.70443,-0.45573 -1.17579,0 -1.84115,0.48307 -0.42839,0.3099 -0.42839,0.82943 0,0.47396 0.40104,0.8112 0.51042,0.42838 2.47917,0.89323 1.96876,0.46484 2.90756,0.96615 0.94792,0.49218 1.47657,1.35807 0.53776,0.85677 0.53776,2.1237 0,1.14844 -0.63802,2.15105 -0.63803,1.00261 -1.80469,1.49479 -1.16667,0.48308 -2.90756,0.48308 -2.53386,0 -3.89194,-1.16667 -1.35807,-1.17578 -1.6224,-3.41798 z"
         style="font-weight:bold;font-family:Arial;-inkscape-font-specification:'Arial Bold';text-align:end;text-anchor:end"
         id="path26193" />
    </g>
  </g>
</svg>
