<?xml version="1.0" encoding="UTF-8" standalone="no"?>
<!-- Created with Inkscape (http://www.inkscape.org/) -->

<svg
   version="1.1"
   id="svg26464"
   width="286.66666"
   height="133.33333"
   viewBox="0 0 286.66666 133.33333"
   sodipodi:docname="dcc.svg"
   inkscape:version="1.1.2 (b8e25be8, 2022-02-05)"
   xmlns:inkscape="http://www.inkscape.org/namespaces/inkscape"
   xmlns:sodipodi="http://sodipodi.sourceforge.net/DTD/sodipodi-0.dtd"
   xmlns="http://www.w3.org/2000/svg"
   xmlns:svg="http://www.w3.org/2000/svg">
  <defs
     id="defs26468" />
  <sodipodi:namedview
     id="namedview26466"
     pagecolor="#ffffff"
     bordercolor="#666666"
     borderopacity="1.0"
     inkscape:pageshadow="2"
     inkscape:pageopacity="0.0"
     inkscape:pagecheckerboard="0"
     showgrid="false"
     inkscape:zoom="2"
     inkscape:cx="216.25"
     inkscape:cy="90.75"
     inkscape:window-width="1444"
     inkscape:window-height="861"
     inkscape:window-x="0"
     inkscape:window-y="38"
     inkscape:window-maximized="0"
     inkscape:current-layer="g26470" />
  <g
     inkscape:groupmode="layer"
     inkscape:label="Image"
     id="g26470">
    <rect
       style="opacity:1;fill:#a23737;fill-opacity:0.988235;stroke:none;stroke-width:3.48472"
       id="rect26720"
       width="87"
       height="22.5"
       x="196.5"
       y="40" />
    <g
       aria-label="DCC"
       id="text29916"
       style="font-size:40px;line-height:1.25">
      <path
         d="m 200.89062,5.8671875 h 10.56641 q 3.57422,0 5.44922,0.546875 2.51953,0.7421875 4.31641,2.6367188 1.79687,1.8945317 2.73437,4.6484377 0.9375,2.734375 0.9375,6.757812 0,3.535156 -0.87891,6.09375 -1.07421,3.125 -3.0664,5.058594 -1.50391,1.464844 -4.0625,2.285156 Q 214.97266,34.5 211.76953,34.5 h -10.87891 z m 5.78125,4.8437505 v 18.964843 h 4.31641 q 2.42188,0 3.49609,-0.273437 1.40625,-0.351563 2.32422,-1.191407 0.9375,-0.839843 1.52344,-2.753906 0.58594,-1.933594 0.58594,-5.253906 0,-3.320313 -0.58594,-5.097656 -0.58594,-1.777344 -1.64062,-2.773438 -1.05469,-0.996093 -2.67579,-1.347656 -1.21093,-0.273437 -4.74609,-0.273437 z"
         style="font-weight:bold;font-family:Arial;-inkscape-font-specification:'Arial Bold'"
         id="path39261" />
      <path
         d="M 248.13672,23.972656 253.74219,25.75 q -1.28907,4.6875 -4.29688,6.972656 -2.98828,2.265625 -7.59765,2.265625 -5.70313,0 -9.375,-3.886719 -3.67188,-3.90625 -3.67188,-10.664062 0,-7.148437 3.69141,-11.09375 3.6914,-3.9648438 9.70703,-3.9648438 5.2539,0 8.53515,3.1054688 1.95313,1.835938 2.92969,5.273438 L 247.94141,15.125 q -0.50782,-2.226562 -2.12891,-3.515625 -1.60156,-1.289062 -3.90625,-1.289062 -3.18359,0 -5.17578,2.285156 -1.97266,2.285156 -1.97266,7.402343 0,5.429688 1.95313,7.734375 1.95312,2.304688 5.07812,2.304688 2.30469,0 3.96485,-1.464844 1.66015,-1.464844 2.38281,-4.609375 z"
         style="font-weight:bold;font-family:Arial;-inkscape-font-specification:'Arial Bold'"
         id="path39263" />
      <path
         d="M 277.04297,23.972656 282.64844,25.75 q -1.28907,4.6875 -4.29688,6.972656 -2.98828,2.265625 -7.59765,2.265625 -5.70313,0 -9.375,-3.886719 -3.67188,-3.90625 -3.67188,-10.664062 0,-7.148437 3.69141,-11.09375 3.6914,-3.9648438 9.70703,-3.9648438 5.2539,0 8.53515,3.1054688 1.95313,1.835938 2.92969,5.273438 L 276.84766,15.125 q -0.50782,-2.226562 -2.12891,-3.515625 -1.60156,-1.289062 -3.90625,-1.289062 -3.18359,0 -5.17578,2.285156 -1.97266,2.285156 -1.97266,7.402343 0,5.429688 1.95313,7.734375 1.95312,2.304688 5.07812,2.304688 2.30469,0 3.96485,-1.464844 1.66015,-1.464844 2.38281,-4.609375 z"
         style="font-weight:bold;font-family:Arial;-inkscape-font-specification:'Arial Bold'"
         id="path39265" />
    </g>
    <g
       aria-label="DEPARTAMENTO DE
CIÊNCIA DA COMPUTAÇÃO"
       id="text29916-0"
       style="font-size:21.3333px;line-height:1.25">
      <path
         d="m 74.306323,80.045597 h 5.635407 q 1.906247,0 2.906246,0.291666 1.343748,0.395833 2.302079,1.406248 0.958332,1.010415 1.458331,2.479163 0.5,1.458331 0.5,3.604161 0,1.885413 -0.46875,3.249995 -0.572915,1.666664 -1.635414,2.697912 -0.802082,0.781249 -2.166663,1.218748 -1.020832,0.322916 -2.729162,0.322916 h -5.802074 z m 3.083328,2.583329 v 10.114568 h 2.30208 q 1.291664,0 1.86458,-0.145833 0.749999,-0.1875 1.239581,-0.635416 0.5,-0.447916 0.812499,-1.468748 0.3125,-1.031248 0.3125,-2.802079 0,-1.77083 -0.3125,-2.718745 -0.312499,-0.947916 -0.874998,-1.479165 -0.5625,-0.531249 -1.427082,-0.718749 -0.645832,-0.145833 -2.531246,-0.145833 z"
         style="font-weight:bold;font-family:Arial;-inkscape-font-specification:'Arial Bold';text-align:end;text-anchor:end"
         id="path39268" />
      <path
         d="M 89.733381,95.316406 V 80.045597 h 11.322899 v 2.583329 h -8.23957 v 3.385412 h 7.66665 v 2.572912 h -7.66665 v 4.156244 h 8.53124 v 2.572912 z"
         style="font-weight:bold;font-family:Arial;-inkscape-font-specification:'Arial Bold';text-align:end;text-anchor:end"
         id="path39270" />
      <path
         d="M 103.98336,95.316406 V 80.045597 h 4.94791 q 2.81249,0 3.66666,0.229166 1.3125,0.34375 2.19791,1.499998 0.88542,1.145831 0.88542,2.968745 0,1.406248 -0.51042,2.36458 -0.51042,0.958332 -1.30208,1.510414 -0.78125,0.541666 -1.59375,0.718749 -1.10416,0.21875 -3.19791,0.21875 h -2.01041 v 5.760407 z m 3.08333,-12.68748 v 4.333327 h 1.68749 q 1.82292,0 2.4375,-0.239583 0.61458,-0.239583 0.95833,-0.749999 0.35417,-0.510416 0.35417,-1.187498 0,-0.833332 -0.48959,-1.374998 -0.48958,-0.541666 -1.23958,-0.677082 -0.55208,-0.104167 -2.21874,-0.104167 z"
         style="font-weight:bold;font-family:Arial;-inkscape-font-specification:'Arial Bold';text-align:end;text-anchor:end"
         id="path39272" />
      <path
         d="m 130.42082,95.316406 h -3.35416 l -1.33333,-3.468744 h -6.10416 l -1.26042,3.468744 h -3.27082 l 5.9479,-15.270809 h 3.26041 z m -5.67708,-6.041657 -2.10416,-5.666658 -2.0625,5.666658 z"
         style="font-weight:bold;font-family:Arial;-inkscape-font-specification:'Arial Bold';text-align:end;text-anchor:end"
         id="path39274" />
      <path
         d="M 132.07706,95.316406 V 80.045597 h 6.48958 q 2.44791,0 3.55208,0.416666 1.11458,0.406249 1.78124,1.458331 0.66667,1.052082 0.66667,2.406246 0,1.718748 -1.01042,2.843746 -1.01041,1.114581 -3.02083,1.406248 1,0.583332 1.64583,1.281248 0.65625,0.697915 1.76042,2.479162 l 1.86458,2.979162 h -3.68749 l -2.22917,-3.322911 q -1.1875,-1.781247 -1.625,-2.23958 -0.43749,-0.468749 -0.92708,-0.635416 -0.48958,-0.177083 -1.55208,-0.177083 h -0.625 v 6.37499 z m 3.08333,-8.812486 h 2.28125 q 2.21875,0 2.77083,-0.1875 0.55208,-0.187499 0.86458,-0.645832 0.3125,-0.458332 0.3125,-1.145831 0,-0.770832 -0.41667,-1.239582 -0.40625,-0.479166 -1.15624,-0.604165 -0.375,-0.05208 -2.25,-0.05208 h -2.40625 z"
         style="font-weight:bold;font-family:Arial;-inkscape-font-specification:'Arial Bold';text-align:end;text-anchor:end"
         id="path39276" />
      <path
         d="m 150.92078,95.316406 v -12.68748 h -4.53124 v -2.583329 h 12.1354 v 2.583329 h -4.52083 v 12.68748 z"
         style="font-weight:bold;font-family:Arial;-inkscape-font-specification:'Arial Bold';text-align:end;text-anchor:end"
         id="path39278" />
      <path
         d="m 172.71241,95.316406 h -3.35416 l -1.33333,-3.468744 h -6.10416 l -1.26041,3.468744 h -3.27083 l 5.94791,-15.270809 h 3.26041 z m -5.67707,-6.041657 -2.10416,-5.666658 -2.0625,5.666658 z"
         style="font-weight:bold;font-family:Arial;-inkscape-font-specification:'Arial Bold';text-align:end;text-anchor:end"
         id="path39280" />
      <path
         d="M 174.31658,95.316406 V 80.045597 h 4.61457 l 2.77083,10.41665 2.73958,-10.41665 h 4.62499 v 15.270809 h -2.86458 V 83.295592 l -3.03124,12.020814 h -2.96875 l -3.02082,-12.020814 v 12.020814 z"
         style="font-weight:bold;font-family:Arial;-inkscape-font-specification:'Arial Bold';text-align:end;text-anchor:end"
         id="path39282" />
      <path
         d="M 192.14988,95.316406 V 80.045597 h 11.3229 v 2.583329 h -8.23957 v 3.385412 h 7.66666 v 2.572912 h -7.66666 v 4.156244 h 8.53124 v 2.572912 z"
         style="font-weight:bold;font-family:Arial;-inkscape-font-specification:'Arial Bold';text-align:end;text-anchor:end"
         id="path39284" />
      <path
         d="M 206.43112,95.316406 V 80.045597 h 2.99999 l 6.24999,10.197901 V 80.045597 h 2.86458 v 15.270809 h -3.09374 l -6.15624,-9.958317 v 9.958317 z"
         style="font-weight:bold;font-family:Arial;-inkscape-font-specification:'Arial Bold';text-align:end;text-anchor:end"
         id="path39286" />
      <path
         d="m 225.254,95.316406 v -12.68748 h -4.53124 v -2.583329 h 12.1354 v 2.583329 h -4.52083 v 12.68748 z"
         style="font-weight:bold;font-family:Arial;-inkscape-font-specification:'Arial Bold';text-align:end;text-anchor:end"
         id="path39288" />
      <path
         d="m 233.85815,87.774751 q 0,-2.333329 0.69792,-3.91666 0.52083,-1.166665 1.41666,-2.093747 0.90625,-0.927082 1.97917,-1.374998 1.42708,-0.604165 3.29166,-0.604165 3.37499,0 5.39582,2.093746 2.03125,2.093747 2.03125,5.822908 0,3.697911 -2.01041,5.791657 -2.01042,2.083331 -5.375,2.083331 -3.40624,0 -5.41665,-2.072914 -2.01042,-2.08333 -2.01042,-5.729158 z m 3.17708,-0.104166 q 0,2.593746 1.19792,3.937494 1.19791,1.333331 3.04166,1.333331 1.84374,0 3.02083,-1.322915 1.18749,-1.333331 1.18749,-3.989577 0,-2.624995 -1.15624,-3.91666 -1.14584,-1.291665 -3.05208,-1.291665 -1.90625,0 -3.07291,1.312498 -1.16667,1.302081 -1.16667,3.937494 z"
         style="font-weight:bold;font-family:Arial;-inkscape-font-specification:'Arial Bold';text-align:end;text-anchor:end"
         id="path39290" />
      <path
         d="m 256.9727,80.045597 h 5.63541 q 1.90625,0 2.90625,0.291666 1.34375,0.395833 2.30208,1.406248 0.95833,1.010415 1.45833,2.479163 0.5,1.458331 0.5,3.604161 0,1.885413 -0.46875,3.249995 -0.57292,1.666664 -1.63542,2.697912 -0.80208,0.781249 -2.16666,1.218748 -1.02083,0.322916 -2.72916,0.322916 h -5.80208 z m 3.08333,2.583329 v 10.114568 h 2.30208 q 1.29167,0 1.86458,-0.145833 0.75,-0.1875 1.23958,-0.635416 0.5,-0.447916 0.8125,-1.468748 0.3125,-1.031248 0.3125,-2.802079 0,-1.77083 -0.3125,-2.718745 -0.3125,-0.947916 -0.875,-1.479165 -0.56249,-0.531249 -1.42708,-0.718749 -0.64583,-0.145833 -2.53124,-0.145833 z"
         style="font-weight:bold;font-family:Arial;-inkscape-font-specification:'Arial Bold';text-align:end;text-anchor:end"
         id="path39292" />
      <path
         d="M 272.39976,95.316406 V 80.045597 h 11.3229 v 2.583329 h -8.23957 v 3.385412 h 7.66666 v 2.572912 h -7.66666 v 4.156244 h 8.53124 v 2.572912 z"
         style="font-weight:bold;font-family:Arial;-inkscape-font-specification:'Arial Bold';text-align:end;text-anchor:end"
         id="path39294" />
      <path
         d="m 13.837668,116.61541 2.989579,0.94791 q -0.687499,2.5 -2.291663,3.71875 -1.593748,1.20833 -4.052077,1.20833 -3.0416622,0 -4.9999924,-2.07291 -1.9583303,-2.08333 -1.9583303,-5.6875 0,-3.81249 1.9687469,-5.91665 1.9687469,-2.11458 5.1770748,-2.11458 2.802079,0 4.552077,1.65624 1.041665,0.97917 1.562497,2.8125 l -3.052078,0.72917 q -0.270833,-1.1875 -1.135415,-1.875 -0.854166,-0.6875 -2.08333,-0.6875 -1.6979144,0 -2.7604127,1.21875 -1.0520817,1.21875 -1.0520817,3.94791 0,2.89583 1.0416651,4.12499 1.041665,1.22917 2.7083293,1.22917 1.229164,0 2.11458,-0.78125 0.885415,-0.78125 1.270831,-2.45833 z"
         style="font-weight:bold;font-family:Arial;-inkscape-font-specification:'Arial Bold';text-align:end;text-anchor:end"
         id="path39296" />
      <path
         d="m 19.389742,122.22998 v -15.27081 h 3.083329 v 15.27081 z"
         style="font-weight:bold;font-family:Arial;-inkscape-font-specification:'Arial Bold';text-align:end;text-anchor:end"
         id="path39298" />
      <path
         d="m 25.40015,122.22998 v -15.27081 h 11.322899 v 2.58333 h -8.239571 v 3.38541 h 7.666655 v 2.57292 h -7.666655 v 4.15624 h 8.531237 v 2.57291 z m 1.95833,-16.14581 2.187497,-3.07291 h 2.708329 l 2.156246,3.07291 h -2.354163 l -1.208331,-1.55208 -1.124998,1.55208 z"
         style="font-weight:bold;font-family:Arial;-inkscape-font-specification:'Arial Bold';text-align:end;text-anchor:end"
         id="path39300" />
      <path
         d="m 39.681375,122.22998 v -15.27081 h 2.999995 l 6.24999,10.1979 v -10.1979 h 2.864579 v 15.27081 h -3.093745 l -6.15624,-9.95831 v 9.95831 z"
         style="font-weight:bold;font-family:Arial;-inkscape-font-specification:'Arial Bold';text-align:end;text-anchor:end"
         id="path39302" />
      <path
         d="m 64.837588,116.61541 2.989579,0.94791 q -0.687499,2.5 -2.291663,3.71875 -1.593748,1.20833 -4.052077,1.20833 -3.041662,0 -4.999993,-2.07291 -1.95833,-2.08333 -1.95833,-5.6875 0,-3.81249 1.968747,-5.91665 1.968747,-2.11458 5.177075,-2.11458 2.802079,0 4.552076,1.65624 1.041665,0.97917 1.562498,2.8125 l -3.052079,0.72917 q -0.270832,-1.1875 -1.135414,-1.875 -0.854166,-0.6875 -2.08333,-0.6875 -1.697914,0 -2.760413,1.21875 -1.052081,1.21875 -1.052081,3.94791 0,2.89583 1.041665,4.12499 1.041665,1.22917 2.708329,1.22917 1.229164,0 2.11458,-0.78125 0.885415,-0.78125 1.270831,-2.45833 z"
         style="font-weight:bold;font-family:Arial;-inkscape-font-specification:'Arial Bold';text-align:end;text-anchor:end"
         id="path39304" />
      <path
         d="m 70.389665,122.22998 v -15.27081 h 3.083329 v 15.27081 z"
         style="font-weight:bold;font-family:Arial;-inkscape-font-specification:'Arial Bold';text-align:end;text-anchor:end"
         id="path39306" />
      <path
         d="m 90.170883,122.22998 h -3.354161 l -1.333331,-3.46874 h -6.104157 l -1.260415,3.46874 h -3.270828 l 5.947907,-15.27081 h 3.260411 z m -5.677074,-6.04165 -2.104164,-5.66666 -2.062496,5.66666 z"
         style="font-weight:bold;font-family:Arial;-inkscape-font-specification:'Arial Bold';text-align:end;text-anchor:end"
         id="path39308" />
      <path
         d="m 96.931289,106.95917 h 5.635411 q 1.90624,0 2.90624,0.29167 1.34375,0.39583 2.30208,1.40625 0.95833,1.01041 1.45833,2.47916 0.5,1.45833 0.5,3.60416 0,1.88542 -0.46875,3.25 -0.57291,1.66666 -1.63541,2.69791 -0.80208,0.78125 -2.16666,1.21875 -1.02084,0.32291 -2.72917,0.32291 h -5.802071 z m 3.083331,2.58333 v 10.11457 h 2.30208 q 1.29166,0 1.86458,-0.14583 0.75,-0.1875 1.23958,-0.63542 0.5,-0.44791 0.8125,-1.46875 0.3125,-1.03124 0.3125,-2.80208 0,-1.77083 -0.3125,-2.71874 -0.3125,-0.94792 -0.875,-1.47917 -0.5625,-0.53124 -1.42708,-0.71874 -0.64583,-0.14584 -2.53125,-0.14584 z"
         style="font-weight:bold;font-family:Arial;-inkscape-font-specification:'Arial Bold';text-align:end;text-anchor:end"
         id="path39310" />
      <path
         d="M 126.12916,122.22998 H 122.775 l -1.33333,-3.46874 h -6.10416 l -1.26042,3.46874 h -3.27082 l 5.9479,-15.27081 h 3.26041 z m -5.67708,-6.04165 -2.10416,-5.66666 -2.0625,5.66666 z"
         style="font-weight:bold;font-family:Arial;-inkscape-font-specification:'Arial Bold';text-align:end;text-anchor:end"
         id="path39312" />
      <path
         d="m 142.6708,116.61541 2.98958,0.94791 q -0.6875,2.5 -2.29167,3.71875 -1.59374,1.20833 -4.05207,1.20833 -3.04167,0 -5,-2.07291 -1.95833,-2.08333 -1.95833,-5.6875 0,-3.81249 1.96875,-5.91665 1.96875,-2.11458 5.17708,-2.11458 2.80208,0 4.55207,1.65624 1.04167,0.97917 1.5625,2.8125 l -3.05208,0.72917 q -0.27083,-1.1875 -1.13541,-1.875 -0.85417,-0.6875 -2.08333,-0.6875 -1.69792,0 -2.76042,1.21875 -1.05208,1.21875 -1.05208,3.94791 0,2.89583 1.04167,4.12499 1.04166,1.22917 2.70833,1.22917 1.22916,0 2.11458,-0.78125 0.88541,-0.78125 1.27083,-2.45833 z"
         style="font-weight:bold;font-family:Arial;-inkscape-font-specification:'Arial Bold';text-align:end;text-anchor:end"
         id="path39314" />
      <path
         d="m 147.69162,114.68833 q 0,-2.33333 0.69792,-3.91666 0.52083,-1.16667 1.41666,-2.09375 0.90625,-0.92708 1.97917,-1.375 1.42708,-0.60416 3.29166,-0.60416 3.37499,0 5.39582,2.09374 2.03125,2.09375 2.03125,5.82291 0,3.69791 -2.01041,5.79166 -2.01042,2.08333 -5.375,2.08333 -3.40624,0 -5.41665,-2.07291 -2.01042,-2.08333 -2.01042,-5.72916 z m 3.17708,-0.10417 q 0,2.59375 1.19792,3.9375 1.19791,1.33333 3.04166,1.33333 1.84374,0 3.02083,-1.32292 1.18749,-1.33333 1.18749,-3.98958 0,-2.62499 -1.15624,-3.91666 -1.14584,-1.29166 -3.05208,-1.29166 -1.90625,0 -3.07291,1.3125 -1.16667,1.30208 -1.16667,3.93749 z"
         style="font-weight:bold;font-family:Arial;-inkscape-font-specification:'Arial Bold';text-align:end;text-anchor:end"
         id="path39316" />
      <path
         d="m 164.85827,122.22998 v -15.27081 h 4.61457 l 2.77083,10.41665 2.73958,-10.41665 h 4.62499 v 15.27081 h -2.86457 v -12.02081 l -3.03125,12.02081 h -2.96874 l -3.02083,-12.02081 v 12.02081 z"
         style="font-weight:bold;font-family:Arial;-inkscape-font-specification:'Arial Bold';text-align:end;text-anchor:end"
         id="path39318" />
      <path
         d="m 182.69158,122.22998 v -15.27081 h 4.9479 q 2.8125,0 3.66667,0.22917 1.31249,0.34375 2.19791,1.5 0.88541,1.14583 0.88541,2.96874 0,1.40625 -0.51041,2.36458 -0.51042,0.95833 -1.30208,1.51042 -0.78125,0.54166 -1.59375,0.71875 -1.10417,0.21875 -3.19791,0.21875 h -2.01042 v 5.7604 z m 3.08332,-12.68748 v 4.33333 h 1.6875 q 1.82292,0 2.4375,-0.23958 0.61458,-0.23959 0.95833,-0.75 0.35417,-0.51042 0.35417,-1.1875 0,-0.83333 -0.48959,-1.375 -0.48958,-0.54166 -1.23958,-0.67708 -0.55208,-0.10417 -2.21875,-0.10417 z"
         style="font-weight:bold;font-family:Arial;-inkscape-font-specification:'Arial Bold';text-align:end;text-anchor:end"
         id="path39320" />
      <path
         d="m 196.92071,106.95917 h 3.08333 v 8.27082 q 0,1.96875 0.11458,2.55208 0.19792,0.9375 0.9375,1.51042 0.75,0.5625 2.04167,0.5625 1.31249,0 1.97916,-0.53125 0.66666,-0.54167 0.80208,-1.32292 0.13542,-0.78125 0.13542,-2.59374 v -8.44791 h 3.08333 v 8.02082 q 0,2.75 -0.25,3.88541 -0.25,1.13542 -0.92709,1.91667 -0.66666,0.78125 -1.79166,1.25 -1.125,0.45833 -2.93749,0.45833 -2.1875,0 -3.32292,-0.5 -1.12499,-0.51042 -1.78124,-1.3125 -0.65625,-0.8125 -0.86459,-1.69791 -0.30208,-1.3125 -0.30208,-3.875 z"
         style="font-weight:bold;font-family:Arial;-inkscape-font-specification:'Arial Bold';text-align:end;text-anchor:end"
         id="path39322" />
      <path
         d="M 215.79568,122.22998 V 109.5425 h -4.53124 v -2.58333 h 12.1354 v 2.58333 h -4.52083 v 12.68748 z"
         style="font-weight:bold;font-family:Arial;-inkscape-font-specification:'Arial Bold';text-align:end;text-anchor:end"
         id="path39324" />
      <path
         d="m 237.58731,122.22998 h -3.35416 l -1.33333,-3.46874 h -6.10416 l -1.26041,3.46874 h -3.27083 l 5.94791,-15.27081 h 3.26041 z m -5.67707,-6.04165 -2.10417,-5.66666 -2.06249,5.66666 z"
         style="font-weight:bold;font-family:Arial;-inkscape-font-specification:'Arial Bold';text-align:end;text-anchor:end"
         id="path39326" />
      <path
         d="m 249.00396,116.61541 2.98958,0.94791 q -0.6875,2.5 -2.29167,3.71875 -1.59374,1.20833 -4.05207,1.20833 -3.04166,0 -5,-2.07291 -1.95833,-2.08333 -1.95833,-5.6875 0,-3.81249 1.96875,-5.91665 1.96875,-2.11458 5.17708,-2.11458 2.80208,0 4.55207,1.65624 1.04167,0.97917 1.5625,2.8125 l -3.05208,0.72917 q -0.27083,-1.1875 -1.13541,-1.875 -0.85417,-0.6875 -2.08333,-0.6875 -1.69792,0 -2.76042,1.21875 -1.05208,1.21875 -1.05208,3.94791 0,2.89583 1.04167,4.12499 1.04166,1.22917 2.70833,1.22917 1.22916,0 2.11458,-0.78125 0.88541,-0.78125 1.27083,-2.45833 z m -6.47916,9.81248 v -1.22916 q 1.07292,0.11458 1.96875,0.11458 0.92708,0 1.375,-0.33333 0.34375,-0.25 0.34375,-0.64583 0,-0.35417 -0.32292,-0.61459 -0.32292,-0.26041 -1,-0.26041 -0.66666,0 -1.36458,0.20833 l 0.27083,-1.03125 q 0.8125,-0.28125 1.75,-0.28125 1.30208,0 1.97916,0.57292 0.67709,0.57291 0.67709,1.39583 0,0.91666 -0.75,1.48958 -1.01042,0.78125 -2.89583,0.78125 -1.34375,0 -2.03125,-0.16667 z"
         style="font-weight:bold;font-family:Arial;-inkscape-font-specification:'Arial Bold';text-align:end;text-anchor:end"
         id="path39328" />
      <path
         d="m 268.42059,122.22998 h -3.35416 l -1.33333,-3.46874 h -6.10416 l -1.26041,3.46874 h -3.27083 l 5.94791,-15.27081 h 3.26041 z m -5.67707,-6.04165 -2.10416,-5.66666 -2.0625,5.66666 z m -4.48958,-10.07291 h -1.33333 q -0.0104,-0.23958 -0.0104,-0.37499 0,-1.09375 0.53125,-1.67709 0.53125,-0.59374 1.36459,-0.59374 0.36458,0 0.67708,0.0833 0.3125,0.0729 1.13541,0.44791 0.83333,0.36459 1.30208,0.36459 0.33334,0 0.55209,-0.20834 0.22916,-0.20833 0.29166,-0.69791 h 1.35417 q -0.0104,1.40625 -0.53125,2.01041 -0.51042,0.60417 -1.32292,0.60417 -0.35416,0 -0.69791,-0.0729 -0.23959,-0.0625 -1.19792,-0.42708 -0.95833,-0.36458 -1.39583,-0.36458 -0.33333,0 -0.52083,0.20833 -0.1875,0.19792 -0.19792,0.69791 z"
         style="font-weight:bold;font-family:Arial;-inkscape-font-specification:'Arial Bold';text-align:end;text-anchor:end"
         id="path39330" />
      <path
         d="m 269.44142,114.68833 q 0,-2.33333 0.69792,-3.91666 0.52083,-1.16667 1.41666,-2.09375 0.90625,-0.92708 1.97917,-1.375 1.42708,-0.60416 3.29166,-0.60416 3.37499,0 5.39582,2.09374 2.03125,2.09375 2.03125,5.82291 0,3.69791 -2.01041,5.79166 -2.01042,2.08333 -5.37499,2.08333 -3.40625,0 -5.41666,-2.07291 -2.01042,-2.08333 -2.01042,-5.72916 z m 3.17708,-0.10417 q 0,2.59375 1.19792,3.9375 1.19791,1.33333 3.04166,1.33333 1.84375,0 3.02083,-1.32292 1.1875,-1.33333 1.1875,-3.98958 0,-2.62499 -1.15625,-3.91666 -1.14583,-1.29166 -3.05208,-1.29166 -1.90625,0 -3.07291,1.3125 -1.16667,1.30208 -1.16667,3.93749 z"
         style="font-weight:bold;font-family:Arial;-inkscape-font-specification:'Arial Bold';text-align:end;text-anchor:end"
         id="path39332" />
    </g>
  </g>
</svg>
