<svg class="lds-flask" width="200px"  height="200px"  xmlns="http://www.w3.org/2000/svg" xmlns:xlink="http://www.w3.org/1999/xlink" viewBox="0 0 100 100" preserveAspectRatio="xMidYMid" style="background: none;"><defs>
<clipPath id="lds-flask-cpid-90716857a9504" clipPathUnits="userSpaceOnUse">
<rect x="0" y="50" width="100" height="50"></rect>
</clipPath>
<pattern id="lds-flask-patid-21929cf812a2f" patternUnits="userSpaceOnUse" x="0" y="0" width="100" height="100">
<rect x="0" y="0" width="100" height="100" fill="#a0ff84"></rect><circle cx="17" cy="0" r="3" fill="#75d02c" transform="translate(0 21.561)">
<animateTransform attributeName="transform" type="translate" values="0 124;0 -24" keyTimes="0;1" dur="3s" begin="-0.06s" repeatCount="indefinite"></animateTransform>
</circle><circle cx="45" cy="0" r="2" fill="#75d02c" transform="translate(0 -4.33468)">
<animateTransform attributeName="transform" type="translate" values="0 123;0 -23" keyTimes="0;1" dur="3s" begin="-0.6s" repeatCount="indefinite"></animateTransform>
</circle><circle cx="84" cy="0" r="2" fill="#75d02c" transform="translate(0 53.397)">
<animateTransform attributeName="transform" type="translate" values="0 111;0 -11" keyTimes="0;1" dur="3s" begin="-2.4s" repeatCount="indefinite"></animateTransform>
</circle><circle cx="1" cy="0" r="2" fill="#75d02c" transform="translate(0 59.0912)">
<animateTransform attributeName="transform" type="translate" values="0 117;0 -17" keyTimes="0;1" dur="3s" begin="-2.28s" repeatCount="indefinite"></animateTransform>
</circle><circle cx="62" cy="0" r="2" fill="#75d02c" transform="translate(0 108.085)">
<animateTransform attributeName="transform" type="translate" values="0 123;0 -23" keyTimes="0;1" dur="3s" begin="-1.29s" repeatCount="indefinite"></animateTransform>
</circle><circle cx="98" cy="0" r="3" fill="#75d02c" transform="translate(0 60.065)">
<animateTransform attributeName="transform" type="translate" values="0 137;0 -37" keyTimes="0;1" dur="3s" begin="-2.31s" repeatCount="indefinite"></animateTransform>
</circle><circle cx="34" cy="0" r="3" fill="#75d02c" transform="translate(0 120.694)">
<animateTransform attributeName="transform" type="translate" values="0 121;0 -21" keyTimes="0;1" dur="3s" begin="-0.99s" repeatCount="indefinite"></animateTransform>
</circle><circle cx="41" cy="0" r="2" fill="#75d02c" transform="translate(0 134.713)">
<animateTransform attributeName="transform" type="translate" values="0 149;0 -49" keyTimes="0;1" dur="3s" begin="-1.2s" repeatCount="indefinite"></animateTransform>
</circle><circle cx="16" cy="0" r="3" fill="#75d02c" transform="translate(0 48.1281)">
<animateTransform attributeName="transform" type="translate" values="0 127;0 -27" keyTimes="0;1" dur="3s" begin="-2.52s" repeatCount="indefinite"></animateTransform>
</circle><circle cx="17" cy="0" r="3" fill="#75d02c" transform="translate(0 47.43)">
<animateTransform attributeName="transform" type="translate" values="0 108;0 -8" keyTimes="0;1" dur="3s" begin="-2.55s" repeatCount="indefinite"></animateTransform>
</circle><circle cx="59" cy="0" r="2" fill="#75d02c" transform="translate(0 99.4472)">
<animateTransform attributeName="transform" type="translate" values="0 104;0 -4" keyTimes="0;1" dur="3s" begin="-1.11s" repeatCount="indefinite"></animateTransform>
</circle><circle cx="46" cy="0" r="2" fill="#75d02c" transform="translate(0 -3.15277)">
<animateTransform attributeName="transform" type="translate" values="0 104;0 -4" keyTimes="0;1" dur="3s" begin="-0.96s" repeatCount="indefinite"></animateTransform>
</circle><circle cx="94" cy="0" r="3" fill="#75d02c" transform="translate(0 66.8238)">
<animateTransform attributeName="transform" type="translate" values="0 128;0 -28" keyTimes="0;1" dur="3s" begin="-2.16s" repeatCount="indefinite"></animateTransform>
</circle><circle cx="59" cy="0" r="3" fill="#75d02c" transform="translate(0 92.5684)">
<animateTransform attributeName="transform" type="translate" values="0 113;0 -13" keyTimes="0;1" dur="3s" begin="-1.47s" repeatCount="indefinite"></animateTransform>
</circle><circle cx="42" cy="0" r="2" fill="#75d02c" transform="translate(0 6.45755)">
<animateTransform attributeName="transform" type="translate" values="0 148;0 -48" keyTimes="0;1" dur="3s" begin="-0.15s" repeatCount="indefinite"></animateTransform>
</circle><circle cx="4" cy="0" r="2" fill="#75d02c" transform="translate(0 32.1219)">
<animateTransform attributeName="transform" type="translate" values="0 147;0 -47" keyTimes="0;1" dur="3s" begin="-2.76s" repeatCount="indefinite"></animateTransform>
</circle><circle cx="14" cy="0" r="2" fill="#75d02c" transform="translate(0 136.968)">
<animateTransform attributeName="transform" type="translate" values="0 141;0 -41" keyTimes="0;1" dur="3s" begin="-1.05s" repeatCount="indefinite"></animateTransform>
</circle><circle cx="99" cy="0" r="2" fill="#75d02c" transform="translate(0 77.59)">
<animateTransform attributeName="transform" type="translate" values="0 108;0 -8" keyTimes="0;1" dur="3s" begin="-1.77s" repeatCount="indefinite"></animateTransform>
</circle><circle cx="21" cy="0" r="3" fill="#75d02c" transform="translate(0 65.2576)">
<animateTransform attributeName="transform" type="translate" values="0 148;0 -48" keyTimes="0;1" dur="3s" begin="-2.25s" repeatCount="indefinite"></animateTransform>
</circle><circle cx="73" cy="0" r="2" fill="#75d02c" transform="translate(0 16.1053)">
<animateTransform attributeName="transform" type="translate" values="0 123;0 -23" keyTimes="0;1" dur="3s" begin="-0.18s" repeatCount="indefinite"></animateTransform>
</circle><circle cx="82" cy="0" r="3" fill="#75d02c" transform="translate(0 -15.188)">
<animateTransform attributeName="transform" type="translate" values="0 140;0 -40" keyTimes="0;1" dur="3s" begin="-0.57s" repeatCount="indefinite"></animateTransform>
</circle><circle cx="18" cy="0" r="2" fill="#75d02c" transform="translate(0 115.476)">
<animateTransform attributeName="transform" type="translate" values="0 139;0 -39" keyTimes="0;1" dur="3s" begin="-1.38s" repeatCount="indefinite"></animateTransform>
</circle><circle cx="44" cy="0" r="2" fill="#75d02c" transform="translate(0 -11.0335)">
<animateTransform attributeName="transform" type="translate" values="0 132;0 -32" keyTimes="0;1" dur="3s" begin="-0.6s" repeatCount="indefinite"></animateTransform>
</circle><circle cx="2" cy="0" r="2" fill="#75d02c" transform="translate(0 23.3046)">
<animateTransform attributeName="transform" type="translate" values="0 151;0 -51" keyTimes="0;1" dur="3s" begin="-2.88s" repeatCount="indefinite"></animateTransform>
</circle><circle cx="60" cy="0" r="2" fill="#75d02c" transform="translate(0 84.5019)">
<animateTransform attributeName="transform" type="translate" values="0 147;0 -47" keyTimes="0;1" dur="3s" begin="-1.95s" repeatCount="indefinite"></animateTransform>
</circle><circle cx="85" cy="0" r="2" fill="#75d02c" transform="translate(0 -2.69193)">
<animateTransform attributeName="transform" type="translate" values="0 127;0 -27" keyTimes="0;1" dur="3s" begin="-0.51s" repeatCount="indefinite"></animateTransform>
</circle><circle cx="71" cy="0" r="2" fill="#75d02c" transform="translate(0 25.6834)">
<animateTransform attributeName="transform" type="translate" values="0 142;0 -42" keyTimes="0;1" dur="3s" begin="-2.88s" repeatCount="indefinite"></animateTransform>
</circle><circle cx="45" cy="0" r="3" fill="#75d02c" transform="translate(0 4.16256)">
<animateTransform attributeName="transform" type="translate" values="0 119;0 -19" keyTimes="0;1" dur="3s" begin="-0.48s" repeatCount="indefinite"></animateTransform>
</circle><circle cx="80" cy="0" r="3" fill="#75d02c" transform="translate(0 145.586)">
<animateTransform attributeName="transform" type="translate" values="0 146;0 -46" keyTimes="0;1" dur="3s" begin="-0.99s" repeatCount="indefinite"></animateTransform>
</circle><circle cx="96" cy="0" r="3" fill="#75d02c" transform="translate(0 13.4629)">
<animateTransform attributeName="transform" type="translate" values="0 105;0 -5" keyTimes="0;1" dur="3s" begin="-0.48s" repeatCount="indefinite"></animateTransform>
</circle><circle cx="64" cy="0" r="2" fill="#75d02c" transform="translate(0 75.1767)">
<animateTransform attributeName="transform" type="translate" values="0 125;0 -25" keyTimes="0;1" dur="3s" begin="-1.98s" repeatCount="indefinite"></animateTransform>
</circle><circle cx="93" cy="0" r="3" fill="#75d02c" transform="translate(0 100.677)">
<animateTransform attributeName="transform" type="translate" values="0 125;0 -25" keyTimes="0;1" dur="3s" begin="-1.47s" repeatCount="indefinite"></animateTransform>
</circle><circle cx="6" cy="0" r="3" fill="#75d02c" transform="translate(0 55.8371)">
<animateTransform attributeName="transform" type="translate" values="0 111;0 -11" keyTimes="0;1" dur="3s" begin="-2.34s" repeatCount="indefinite"></animateTransform>
</circle><circle cx="78" cy="0" r="2" fill="#75d02c" transform="translate(0 112.12)">
<animateTransform attributeName="transform" type="translate" values="0 115;0 -15" keyTimes="0;1" dur="3s" begin="-1.05s" repeatCount="indefinite"></animateTransform>
</circle><circle cx="53" cy="0" r="3" fill="#75d02c" transform="translate(0 0.132736)">
<animateTransform attributeName="transform" type="translate" values="0 112;0 -12" keyTimes="0;1" dur="3s" begin="-0.69s" repeatCount="indefinite"></animateTransform>
</circle><circle cx="76" cy="0" r="2" fill="#75d02c" transform="translate(0 60.1807)">
<animateTransform attributeName="transform" type="translate" values="0 138;0 -38" keyTimes="0;1" dur="3s" begin="-2.31s" repeatCount="indefinite"></animateTransform>
</circle><circle cx="19" cy="0" r="2" fill="#75d02c" transform="translate(0 8.81274)">
<animateTransform attributeName="transform" type="translate" values="0 112;0 -12" keyTimes="0;1" dur="3s" begin="-0.48s" repeatCount="indefinite"></animateTransform>
</circle><circle cx="13" cy="0" r="3" fill="#75d02c" transform="translate(0 26.9312)">
<animateTransform attributeName="transform" type="translate" values="0 117;0 -17" keyTimes="0;1" dur="3s" begin="-3s" repeatCount="indefinite"></animateTransform>
</circle><circle cx="95" cy="0" r="3" fill="#75d02c" transform="translate(0 44.2764)">
<animateTransform attributeName="transform" type="translate" values="0 139;0 -39" keyTimes="0;1" dur="3s" begin="-2.58s" repeatCount="indefinite"></animateTransform>
</circle><circle cx="14" cy="0" r="2" fill="#75d02c" transform="translate(0 8.14222)">
<animateTransform attributeName="transform" type="translate" values="0 133;0 -33" keyTimes="0;1" dur="3s" begin="-0.24s" repeatCount="indefinite"></animateTransform>
</circle><circle cx="47" cy="0" r="3" fill="#75d02c" transform="translate(0 88.0339)">
<animateTransform attributeName="transform" type="translate" values="0 121;0 -21" keyTimes="0;1" dur="3s" begin="-1.68s" repeatCount="indefinite"></animateTransform>
</circle><circle cx="85" cy="0" r="3" fill="#75d02c" transform="translate(0 139.763)">
<animateTransform attributeName="transform" type="translate" values="0 142;0 -42" keyTimes="0;1" dur="3s" begin="-1.02s" repeatCount="indefinite"></animateTransform>
</circle><circle cx="8" cy="0" r="3" fill="#75d02c" transform="translate(0 95.1339)">
<animateTransform attributeName="transform" type="translate" values="0 121;0 -21" keyTimes="0;1" dur="3s" begin="-1.53s" repeatCount="indefinite"></animateTransform>
</circle><circle cx="87" cy="0" r="3" fill="#75d02c" transform="translate(0 -11.9319)">
<animateTransform attributeName="transform" type="translate" values="0 127;0 -27" keyTimes="0;1" dur="3s" begin="-0.69s" repeatCount="indefinite"></animateTransform>
</circle><circle cx="57" cy="0" r="3" fill="#75d02c" transform="translate(0 102.177)">
<animateTransform attributeName="transform" type="translate" values="0 125;0 -25" keyTimes="0;1" dur="3s" begin="-1.44s" repeatCount="indefinite"></animateTransform>
</circle><circle cx="39" cy="0" r="3" fill="#75d02c" transform="translate(0 85.0669)">
<animateTransform attributeName="transform" type="translate" values="0 118;0 -18" keyTimes="0;1" dur="3s" begin="-1.71s" repeatCount="indefinite"></animateTransform>
</circle><circle cx="18" cy="0" r="2" fill="#75d02c" transform="translate(0 53.1764)">
<animateTransform attributeName="transform" type="translate" values="0 139;0 -39" keyTimes="0;1" dur="3s" begin="-2.43s" repeatCount="indefinite"></animateTransform>
</circle><circle cx="99" cy="0" r="2" fill="#75d02c" transform="translate(0 103.767)">
<animateTransform attributeName="transform" type="translate" values="0 104;0 -4" keyTimes="0;1" dur="3s" begin="-0.99s" repeatCount="indefinite"></animateTransform>
</circle><circle cx="5" cy="0" r="3" fill="#75d02c" transform="translate(0 88.03)">
<animateTransform attributeName="transform" type="translate" values="0 108;0 -8" keyTimes="0;1" dur="3s" begin="-1.5s" repeatCount="indefinite"></animateTransform>
</circle><circle cx="58" cy="0" r="3" fill="#75d02c" transform="translate(0 82.23)">
<animateTransform attributeName="transform" type="translate" values="0 108;0 -8" keyTimes="0;1" dur="3s" begin="-1.65s" repeatCount="indefinite"></animateTransform>
</circle>      </pattern></defs>

      <path fill="url(#lds-flask-patid-21929cf812a2f)" clip-path="url(#lds-flask-cpid-90716857a9504)" d="M59,37.3V18.9c3-0.8,5.1-3.6,5.1-6.8C64.1,8.2,61,5,57.1,5H42.9c-3.9,0-7.1,3.2-7.1,7.1c0,3.2,2.2,6,5.1,6.8v18.4c-11.9,3.8-20.6,15-20.6,28.2C20.4,81.8,33.7,95,50,95s29.6-13.2,29.6-29.6C79.6,52.2,70.9,41.1,59,37.3z"></path>

      <path fill="none" stroke="#7bc182" stroke-width="5" d="M59,37.3V18.9c3-0.8,5.1-3.6,5.1-6.8C64.1,8.2,61,5,57.1,5H42.9c-3.9,0-7.1,3.2-7.1,7.1c0,3.2,2.2,6,5.1,6.8v18.4c-11.9,3.8-20.6,15-20.6,28.2C20.4,81.8,33.7,95,50,95s29.6-13.2,29.6-29.6C79.6,52.2,70.9,41.1,59,37.3z"></path>
</svg>