<?xml version="1.0" encoding="utf-8"?>
<!-- Generator: Adobe Illustrator 16.0.0, SVG Export Plug-In . SVG Version: 6.00 Build 0)  -->
<!DOCTYPE svg PUBLIC "-//W3C//DTD SVG 1.0//EN" "http://www.w3.org/TR/2001/REC-SVG-20010904/DTD/svg10.dtd">
<svg version="1.0" id="Camada_1" xmlns="http://www.w3.org/2000/svg" xmlns:xlink="http://www.w3.org/1999/xlink" x="0px" y="0px"
	 width="220px" height="90px" viewBox="0 0 220 90" enable-background="new 0 0 220 90" xml:space="preserve">
<g enable-background="new    ">
	<g>
		<defs>
			<rect id="SVGID_1_" x="-46.779" y="2.707" width="158.884" height="81.514"/>
		</defs>
		<clipPath id="SVGID_2_">
			<use xlink:href="#SVGID_1_"  overflow="visible"/>
		</clipPath>
		<g id="LVsbid_1_" clip-path="url(#SVGID_2_)">
			<g>
				<path fill-rule="evenodd" clip-rule="evenodd" fill="#575756" d="M49.463,20.589c0.346-0.416,0.699-0.826,1.097-1.195
					c0.776-0.725,1.63-1.346,2.533-1.903c0.738-0.455,1.475-0.911,2.224-1.345c0.667-0.389,1.301-0.829,1.962-1.223
					c0.49-0.29,0.922-0.346,1.34,0.123c0.158,0.175,0.19,0.416,0.286,0.624c0,0.181,0,0.364,0,0.546
					c-0.221,0.595-0.725,0.911-1.223,1.226c-0.663,0.423-1.333,0.831-1.997,1.248c-1.151,0.724-2.3,1.448-3.446,2.176
					c-0.732,0.465-1.46,0.935-2.188,1.407c-0.046,0.031-0.095,0.041-0.14,0.063c-0.023-0.079-0.049-0.159-0.068-0.239
					C49.714,21.596,49.588,21.092,49.463,20.589z"/>
				<path fill-rule="evenodd" clip-rule="evenodd" fill="#575756" d="M15.459,52.408c-0.417,0.259-0.832,0.525-1.251,0.779
					c-1.127,0.688-2.257,1.368-3.384,2.056c-0.857,0.523-1.712,1.048-2.565,1.581c-0.27,0.168-0.537,0.331-0.863,0.355
					c-0.307,0.024-0.506-0.151-0.678-0.375c-0.128-0.17-0.174-0.378-0.274-0.559c0-0.23,0-0.455,0-0.683
					c0.102-0.183,0.164-0.381,0.291-0.552c0.326-0.443,0.813-0.646,1.263-0.909c0.832-0.481,1.665-0.956,2.5-1.432
					c0.612-0.347,1.229-0.685,1.843-1.031c0.869-0.488,1.736-0.983,2.604-1.476C15.117,50.913,15.289,51.661,15.459,52.408z"/>
				<path fill-rule="evenodd" clip-rule="evenodd" fill="#575756" d="M38.823,5.469c0.267,0.096,0.525,0.196,0.679,0.468
					c0.074,0.132,0.121,0.278,0.132,0.411c0.062,0.742,0.103,1.486,0.009,2.228c-0.008,0.061-0.001,0.121-0.001,0.182
					c0,1.924,0,3.849-0.001,5.773c0,0.081-0.009,0.165-0.015,0.247c-0.289-0.049-0.542-0.191-0.797-0.32
					c-0.46-0.232-0.933-0.357-1.443-0.182c-0.042-0.164-0.017-0.331-0.018-0.496c-0.004-0.893,0.029-1.789-0.009-2.682
					c-0.063-1.414-0.017-2.828-0.042-4.24c-0.004-0.257,0.025-0.51,0.104-0.745c0.102-0.306,0.312-0.535,0.655-0.599
					c0.031-0.006,0.058-0.009,0.064-0.046C38.368,5.469,38.595,5.469,38.823,5.469z"/>
				<path fill-rule="evenodd" clip-rule="evenodd" fill="#575756" d="M35.588,86.938c0-3.242,0-6.484-0.002-9.726
					c0-0.091,0.026-0.181-0.022-0.269c0.617,0.046,1.229,0.128,1.841,0.209c0.002,1.766,0.043,3.532-0.007,5.295
					c-0.043,1.497-0.005,2.993-0.034,4.49C36.773,86.938,36.181,86.938,35.588,86.938z"/>
				<path fill-rule="evenodd" clip-rule="evenodd" fill="#6BC8EA" d="M37.406,77.153c-0.612-0.081-1.225-0.163-1.841-0.209
					c-0.044-0.038-0.085-0.084-0.134-0.116c-1.768-1.169-3.49-2.407-5.333-3.46c-1.263-0.723-2.572-1.352-3.964-1.791
					c-0.058-0.017-0.118-0.026-0.177-0.039c-0.024-0.157-0.138-0.263-0.222-0.385c-0.279-0.408-0.519-0.842-0.84-1.22
					c0.012-0.059,0.032-0.116,0.032-0.175c0.036-1.009,0.066-2.015,0.104-3.022c0.043-1.2,0.092-2.404,0.138-3.605
					c0.044-1.121,0.08-2.242,0.139-3.359c0.022-0.418,0.025-0.832,0.047-1.251c0.09,0.013,0.182,0.016,0.27,0.034
					c0.627,0.119,1.252,0.328,1.89,0.052c0.003,1.434,0.013,2.867,0.008,4.305c-0.006,1.516-0.044,3.032-0.034,4.549
					c0.007,1.062,0.443,1.902,1.395,2.439c1.836,1.033,3.614,2.168,5.443,3.216c0.36,0.208,0.697,0.473,1.11,0.565
					c0.501,0.118,1.01,0.071,1.511-0.016c1.101-0.195,2.156-0.552,3.183-0.983c1.804-0.755,3.535-1.643,5.036-2.921
					c0.645-0.548,1.041-1.2,0.988-2.086c-0.045-0.803-0.035-1.609-0.057-2.413c-0.01-0.354-0.021-0.715,0.033-1.063
					c0.142-0.894,0.251-1.783,0.206-2.69c-0.041-0.839-0.211-1.649-0.576-2.412c-0.679-1.423-1.834-2.328-3.22-2.982
					c-0.719-0.341-1.481-0.583-2.155-1.021c-0.963-0.619-1.846-1.353-2.795-1.992c0.399-0.578,0.8-1.157,1.198-1.733
					c0.857,0.481,1.716,0.961,2.574,1.445c1.812,1.024,3.623,2.048,5.436,3.072c0.5,0.282,1.005,0.561,1.507,0.84
					c0.012,0.04,0.011,0.081,0.045,0.122c0.318,0.367,0.477,0.808,0.552,1.278c0.049,0.305,0.077,0.609,0.115,0.915
					c-0.108,0.524-0.158,1.06-0.223,1.592c-0.135,1.109-0.224,2.226-0.257,3.343c-0.031,1.081-0.11,2.162-0.03,3.246
					c0.019,0.24,0.003,0.484,0.011,0.725c0.028,0.816,0.061,1.633,0.095,2.451c0.002,0.042,0.021,0.083,0.033,0.13
					c-0.362,0.336-0.643,0.738-0.932,1.135c-0.845,0.296-1.661,0.661-2.466,1.05c-2.083,1.003-4.056,2.205-6.04,3.387
					C38.609,76.453,38.008,76.802,37.406,77.153z"/>
				<path fill-rule="evenodd" clip-rule="evenodd" fill="#8ABF47" d="M27.515,58.606c-0.638,0.276-1.263,0.067-1.89-0.052
					c-0.088-0.019-0.18-0.021-0.27-0.034c-1.216-1.001-2.533-1.869-3.88-2.684c-1.975-1.192-4.018-2.27-6.015-3.429
					c-0.171-0.747-0.343-1.495-0.515-2.244c0.051-3.266,0.105-6.533,0.155-9.8c0.041-0.068,0.031-0.146,0.039-0.22
					c0.068-0.636,0.138-1.271,0.207-1.908c1.119-0.588,2.237-1.177,3.354-1.769c2.295-1.216,4.589-2.433,6.883-3.65
					c0.052-0.029,0.11-0.051,0.164-0.076c0.169,0.444,0.437,0.838,0.646,1.262c0.135,0.274,0.31,0.529,0.41,0.822
					c-0.897,0.494-1.788,0.999-2.69,1.48c-1.932,1.031-3.8,2.18-5.771,3.137c-0.114,0.056-0.223,0.127-0.325,0.206
					c-0.267,0.206-0.416,0.477-0.423,0.818c-0.008,0.379-0.023,0.759-0.029,1.138c-0.044,2.77-0.058,5.54-0.071,8.31
					c-0.002,0.562,0.219,0.944,0.674,1.223c0.726,0.439,1.408,0.947,2.11,1.423c1.136,0.771,2.268,1.542,3.496,2.171
					c1.467,0.745,2.958,0.844,4.504,0.25c1.213-0.466,2.352-1.082,3.498-1.687c0.957-0.507,1.873-1.093,2.867-1.529
					c0.263-0.119,0.497-0.289,0.71-0.488c0.589-0.547,0.806-1.255,0.823-2.028c0.013-0.553-0.021-1.107-0.03-1.662
					c-0.03-1.735,0.026-3.475,0.054-5.212c0.01-0.659,0.028-1.318,0.044-1.978c0.766,0.387,1.572,0.6,2.436,0.547
					c0.093,1.547,0.003,3.092-0.056,4.636c-0.076,1.934-0.116,3.864,0.167,5.786c-0.398,0.576-0.799,1.155-1.198,1.733
					c-1.893,1.032-3.786,2.063-5.679,3.1C30.447,56.999,28.982,57.803,27.515,58.606z"/>
				<path fill-rule="evenodd" clip-rule="evenodd" fill="#F7A72E" d="M37.385,14.276c0.511-0.175,0.983-0.05,1.443,0.182
					c0.255,0.129,0.508,0.271,0.797,0.32c3.178,2.109,6.393,4.153,9.838,5.811c0.125,0.503,0.251,1.007,0.379,1.509
					c0.019,0.08,0.045,0.16,0.068,0.239c-0.125,1.175-0.2,2.354-0.248,3.535c-0.078,1.924-0.047,3.848,0.004,5.773
					c0.015,0.544,0.038,1.089,0.056,1.635c-0.253,0.593-0.505,1.185-0.758,1.777c-1.345,0.712-2.689,1.422-4.033,2.135
					c-1.885,1-3.77,2.002-5.654,3.002c-0.067,0.036-0.137,0.062-0.208,0.092c-0.22-0.429-0.444-0.857-0.663-1.289
					c-0.145-0.281-0.318-0.547-0.411-0.853c1.21-0.582,2.385-1.229,3.552-1.889c1.175-0.665,2.354-1.323,3.431-2.142
					c1.012-0.771,1.787-1.705,2.112-2.961c0.329-1.271,0.321-2.568,0.317-3.865c-0.005-1.298-0.099-2.592-0.087-3.89
					c0.006-0.625-0.11-1.176-0.715-1.539c-2.569-1.54-5.136-3.081-7.708-4.613c-0.52-0.309-0.989-0.321-1.495-0.037
					c-0.702,0.393-1.441,0.708-2.163,1.06c-1.314,0.642-2.642,1.259-3.859,2.083c-0.607,0.411-1.158,0.882-1.588,1.483
					c-0.678,0.944-0.906,2.037-1.031,3.16c-0.146,1.299-0.157,2.605-0.174,3.909c-0.018,1.251-0.015,2.504-0.02,3.757
					c-0.198-0.042-0.395-0.084-0.593-0.125c-0.585-0.125-1.158-0.304-1.75-0.393c-0.004-1.206-0.01-2.411-0.012-3.617
					c-0.004-2.463-0.005-4.926-0.007-7.389c0.137-0.12,0.277-0.235,0.413-0.355c0.503-0.444,1.04-0.851,1.523-1.32
					c3.09-1.511,6.143-3.094,9.004-5.018C37.223,14.39,37.303,14.333,37.385,14.276z"/>
				<path fill-rule="evenodd" clip-rule="evenodd" fill="#C3C54D" d="M26.221,32.144c0.592,0.088,1.165,0.268,1.75,0.393
					c0.199,0.041,0.395,0.083,0.593,0.125c0.061,0.042,0.123,0.088,0.188,0.125c2.814,1.643,5.629,3.287,8.447,4.925
					c0.261,0.151,0.504,0.337,0.796,0.432c0.093,0.306,0.267,0.572,0.411,0.853c0.219,0.432,0.443,0.86,0.663,1.289
					c-0.101,0.238-0.259,0.439-0.391,0.658c-0.864,0.053-1.67-0.16-2.436-0.547c-0.041-0.071-0.114-0.098-0.179-0.136
					c-3.025-1.786-6.05-3.573-9.074-5.357c-0.059-0.035-0.126-0.052-0.187-0.079c-0.1-0.292-0.275-0.548-0.41-0.822
					c-0.209-0.424-0.477-0.818-0.646-1.262C25.883,32.525,26.047,32.33,26.221,32.144z"/>
				<path fill-rule="evenodd" clip-rule="evenodd" fill="#575756" d="M48.965,35.057c0.252-0.592,0.505-1.184,0.758-1.777
					c0.512,0.207,0.994,0.473,1.47,0.748c1.292,0.748,2.463,1.671,3.646,2.569c0.826,0.624,1.666,1.221,2.504,1.821
					c0.279,0.201,0.539,0.459,0.649,0.812c0.137,0.443-0.035,0.81-0.315,1.137c-0.148,0.175-0.315,0.328-0.551,0.398
					c-0.48,0.146-0.822-0.13-1.163-0.378c-0.586-0.426-1.158-0.873-1.736-1.309c-0.718-0.542-1.441-1.079-2.159-1.624
					c-0.83-0.63-1.657-1.262-2.484-1.898C49.374,35.395,49.17,35.225,48.965,35.057z"/>
				<path fill-rule="evenodd" clip-rule="evenodd" fill="#575756" d="M47.715,71.66c0.289-0.396,0.569-0.799,0.932-1.135
					c1.175,0.296,2.221,0.869,3.205,1.557c0.691,0.482,1.347,1.014,2.007,1.54c0.807,0.64,1.626,1.271,2.521,1.788
					c0.426,0.248,0.668,0.587,0.609,1.089c-0.049,0.416-0.29,0.721-0.654,0.907c-0.37,0.19-0.752,0.094-1.068-0.104
					c-1.468-0.935-2.93-1.878-4.376-2.849c-0.684-0.455-1.322-0.978-1.938-1.527C48.511,72.528,48.128,72.082,47.715,71.66z"/>
				<path fill-rule="evenodd" clip-rule="evenodd" fill="#575756" d="M49.018,59.039c-0.038-0.306-0.065-0.61-0.115-0.915
					c-0.075-0.471-0.234-0.911-0.552-1.278c-0.034-0.041-0.033-0.082-0.045-0.122c0.986-0.357,1.908-0.838,2.791-1.396
					c1.28-0.806,2.543-1.641,3.827-2.439c0.417-0.261,0.884-0.457,1.37-0.148c0.411,0.26,0.677,0.627,0.697,1.135
					c0.017,0.426-0.289,0.641-0.597,0.815c-1.216,0.7-2.416,1.427-3.621,2.139c-1.123,0.667-2.259,1.312-3.387,1.97
					C49.26,58.871,49.141,58.957,49.018,59.039z"/>
				<path fill-rule="evenodd" clip-rule="evenodd" fill="#575756" d="M28.138,19.462c-0.484,0.469-1.02,0.876-1.523,1.32
					c-0.136,0.121-0.276,0.236-0.413,0.355c-0.611-0.425-1.223-0.845-1.831-1.273c-0.537-0.377-1.065-0.764-1.601-1.143
					c-1.034-0.733-2.068-1.463-3.103-2.193c-0.354-0.25-0.739-0.468-1.06-0.754c-0.527-0.473-0.639-0.933-0.147-1.617
					c0.396-0.55,0.789-0.556,1.309-0.293c0.618,0.313,1.178,0.724,1.734,1.133c0.869,0.639,1.722,1.298,2.589,1.939
					c0.645,0.476,1.298,0.942,1.977,1.37c0.638,0.405,1.288,0.79,1.983,1.091C28.089,19.414,28.122,19.423,28.138,19.462z"/>
				<path fill-rule="evenodd" clip-rule="evenodd" fill="#575756" d="M15.346,38.236c-0.068,0.637-0.138,1.272-0.207,1.908
					c-0.008,0.075,0.001,0.152-0.039,0.22c-0.444-0.287-0.89-0.573-1.331-0.863c-1.382-0.908-2.758-1.823-4.144-2.726
					c-0.862-0.564-1.748-1.088-2.575-1.703c-0.321-0.238-0.453-0.563-0.368-0.935c0.098-0.427,0.296-0.817,0.689-1.063
					c0.209-0.131,0.433-0.148,0.654-0.039c0.532,0.264,0.964,0.675,1.463,0.987c1.039,0.65,2.085,1.289,3.109,1.964
					c0.781,0.514,1.538,1.061,2.211,1.717C14.99,37.879,15.127,38.099,15.346,38.236z"/>
				<path fill-rule="evenodd" clip-rule="evenodd" fill="#575756" d="M24.896,69.934c0.321,0.378,0.561,0.812,0.84,1.22
					c0.084,0.122,0.198,0.228,0.222,0.385c-1.172,0.824-2.35,1.647-3.517,2.481c-1.089,0.782-2.182,1.557-3.278,2.33
					c-0.437,0.307-0.864,0.615-1.389,0.732c-0.373,0.083-0.729,0.001-1-0.289c-0.293-0.312-0.47-0.677-0.306-1.111
					c0.128-0.34,0.417-0.562,0.705-0.758c0.849-0.573,1.66-1.199,2.483-1.811c1.028-0.766,2.059-1.524,3.174-2.16
					c0.618-0.352,1.245-0.686,1.916-0.927C24.799,70.003,24.846,69.964,24.896,69.934z"/>
				<path fill-rule="evenodd" clip-rule="evenodd" fill="#6BC8EA" d="M39.762,62.62c-0.289,0-0.577-0.002-0.864,0
					c-0.087,0-0.146,0-0.179-0.115c-0.292-1.017-0.71-1.369-1.772-1.469c-0.486-0.049-0.969-0.007-1.433,0.171
					c-0.497,0.196-0.787,0.57-0.794,1.031c-0.007,0.485,0.189,0.789,0.64,0.965c0.544,0.215,1.118,0.324,1.682,0.468
					c0.829,0.211,1.677,0.341,2.472,0.674c1.064,0.447,1.584,1.245,1.64,2.394c0.074,1.528-0.886,2.71-2.191,3.134
					c-1.614,0.521-3.232,0.503-4.769-0.285c-1.061-0.544-1.613-1.454-1.665-2.657c-0.007-0.171,0.044-0.221,0.215-0.219
					c0.554,0.011,1.108,0.006,1.662,0.003c0.111,0,0.204-0.003,0.227,0.148c0.163,1.056,0.786,1.434,1.768,1.534
					c0.504,0.053,1.018,0.043,1.514-0.088c0.53-0.14,0.976-0.381,1.107-0.979c0.108-0.494-0.06-0.893-0.507-1.123
					c-0.497-0.261-1.04-0.368-1.58-0.49c-0.886-0.196-1.78-0.362-2.626-0.705c-0.953-0.385-1.482-1.084-1.594-2.108
					c-0.151-1.375,0.361-2.427,1.537-3.147c0.473-0.289,1.007-0.423,1.549-0.491c0.848-0.111,1.695-0.098,2.518,0.17
					c1.155,0.381,2.042,1.053,2.38,2.29c0.064,0.233,0.096,0.475,0.124,0.714c0.017,0.137-0.025,0.189-0.172,0.186
					C40.355,62.612,40.059,62.62,39.762,62.62z"/>
				<path fill-rule="evenodd" clip-rule="evenodd" fill="#89BF47" d="M30.051,45.209c0.15,0.075,0.309,0.14,0.453,0.23
					c0.732,0.465,1.049,1.15,1.083,2.004c0.029,0.732-0.116,1.408-0.539,2.015c-0.573,0.823-1.395,1.174-2.358,1.277
					c-0.818,0.088-1.638,0.04-2.456,0.048c-0.987,0.008-1.974-0.004-2.959,0.008c-0.175,0-0.212-0.05-0.212-0.217
					c0.005-3.33,0.005-6.662,0-9.996c0-0.188,0.06-0.221,0.231-0.22c1.57,0.006,3.142,0.002,4.711,0.005
					c0.613,0,1.218,0.082,1.782,0.327c0.81,0.352,1.298,0.975,1.441,1.856c0.094,0.579,0.065,1.142-0.193,1.678
					c-0.174,0.357-0.44,0.634-0.791,0.826C30.172,45.089,30.088,45.116,30.051,45.209z M26.659,48.966c0-0.002,0-0.005,0-0.007
					c0.454,0,0.911,0.016,1.365-0.003c1.276-0.059,1.638-1.251,1.216-2.12c-0.23-0.472-0.709-0.577-1.182-0.608
					c-0.908-0.065-1.82-0.016-2.73-0.024c-0.14,0-0.178,0.046-0.178,0.184c0.005,0.797,0.005,1.593,0,2.39
					c-0.001,0.146,0.035,0.196,0.188,0.193C25.778,48.96,26.218,48.966,26.659,48.966z M26.629,44.467c0-0.005,0-0.008,0-0.013
					c0.448,0,0.896,0.017,1.341-0.004c0.419-0.021,0.81-0.153,1.067-0.516c0.172-0.24,0.135-0.53,0.132-0.806
					c-0.003-0.285-0.12-0.525-0.367-0.681c-0.397-0.249-0.858-0.239-1.298-0.259c-0.717-0.033-1.439-0.006-2.158-0.011
					c-0.143-0.002-0.198,0.029-0.197,0.185c0.009,0.636,0.009,1.274,0,1.91c-0.001,0.165,0.057,0.201,0.208,0.197
					C25.782,44.459,26.206,44.467,26.629,44.467z"/>
				<path fill-rule="evenodd" clip-rule="evenodd" fill="#F7A72E" d="M35.207,27.681c0-1.654,0.004-3.308-0.004-4.963
					c0-0.204,0.056-0.255,0.254-0.251c0.562,0.014,1.123,0.013,1.684,0c0.19-0.003,0.242,0.05,0.242,0.241
					c-0.007,2.669-0.005,5.34-0.004,8.012c0,0.344-0.042,0.297,0.306,0.297c1.557,0.002,3.112,0.004,4.667-0.003
					c0.183,0,0.249,0.038,0.242,0.234c-0.015,0.476-0.009,0.956-0.001,1.434c0.003,0.149-0.026,0.211-0.196,0.211
					c-2.33-0.007-4.659-0.007-6.987,0c-0.19,0.001-0.204-0.077-0.204-0.228C35.209,31.003,35.207,29.342,35.207,27.681z"/>
			</g>
		</g>
	</g>
</g>
<g>
	<rect x="68.096" y="82.201" fill="#F7A72E" width="47.349" height="2.02"/>
	<rect x="115.444" y="82.201" fill="#8ABF47" width="47.35" height="2.02"/>
	<rect x="162.794" y="82.201" fill="#6BC8EA" width="47.35" height="2.02"/>
</g>
<g>
	<rect x="68.096" y="5.653" fill="#F7A72E" width="47.35" height="2.02"/>
	<rect x="115.445" y="5.653" fill="#8ABF47" width="47.35" height="2.02"/>
	<rect x="162.795" y="5.653" fill="#6BC8EA" width="47.349" height="2.02"/>
</g>
<g>
	<g>
		<linearGradient id="SVGID_3_" gradientUnits="userSpaceOnUse" x1="71.853" y1="44.3174" x2="201.8301" y2="44.3174">
			<stop  offset="0" style="stop-color:#FFFFFF"/>
			<stop  offset="1" style="stop-color:#000000"/>
		</linearGradient>
		<path fill="url(#SVGID_3_)" d="M72.413,14.377h2.88v11.919h5.101v2.36h-7.98V14.377z"/>
		<linearGradient id="SVGID_4_" gradientUnits="userSpaceOnUse" x1="71.853" y1="44.3174" x2="201.8301" y2="44.3174">
			<stop  offset="0" style="stop-color:#FFFFFF"/>
			<stop  offset="1" style="stop-color:#000000"/>
		</linearGradient>
		<path fill="url(#SVGID_4_)" d="M81.573,20.937c0-0.626,0.1-1.15,0.3-1.57s0.47-0.76,0.81-1.02c0.34-0.26,0.74-0.446,1.2-0.56
			c0.46-0.113,0.95-0.17,1.47-0.17c0.827,0,1.493,0.08,2,0.24c0.507,0.16,0.9,0.387,1.181,0.68c0.279,0.293,0.47,0.644,0.569,1.05
			c0.101,0.407,0.15,0.85,0.15,1.33v5.66c0,0.507,0.023,0.9,0.07,1.18c0.046,0.28,0.136,0.58,0.27,0.9h-2.64
			c-0.094-0.173-0.164-0.356-0.21-0.55c-0.047-0.193-0.09-0.384-0.13-0.57h-0.04c-0.32,0.561-0.69,0.924-1.11,1.09
			c-0.42,0.167-0.964,0.25-1.63,0.25c-0.48,0-0.887-0.083-1.22-0.25c-0.334-0.166-0.601-0.396-0.801-0.689
			c-0.199-0.293-0.347-0.623-0.439-0.99c-0.094-0.366-0.141-0.73-0.141-1.09c0-0.507,0.054-0.943,0.16-1.311
			c0.106-0.366,0.271-0.68,0.49-0.939s0.5-0.477,0.84-0.65c0.34-0.173,0.75-0.326,1.23-0.46l1.56-0.42
			c0.413-0.106,0.7-0.253,0.86-0.44c0.16-0.186,0.24-0.459,0.24-0.819c0-0.413-0.098-0.737-0.29-0.97
			c-0.193-0.233-0.523-0.35-0.99-0.35c-0.427,0-0.747,0.127-0.96,0.38c-0.214,0.253-0.32,0.593-0.32,1.02v0.3h-2.479V20.937z
			 M86.012,23.627c-0.213,0.087-0.406,0.15-0.58,0.19c-0.56,0.12-0.96,0.32-1.2,0.6c-0.239,0.28-0.359,0.66-0.359,1.141
			c0,0.413,0.08,0.767,0.24,1.06c0.159,0.294,0.426,0.44,0.8,0.44c0.187,0,0.38-0.03,0.58-0.091c0.199-0.06,0.383-0.156,0.55-0.29
			c0.166-0.133,0.303-0.306,0.41-0.52c0.106-0.213,0.16-0.467,0.16-0.76v-2.12C86.425,23.424,86.225,23.541,86.012,23.627z"/>
		<linearGradient id="SVGID_5_" gradientUnits="userSpaceOnUse" x1="71.853" y1="44.3174" x2="201.8301" y2="44.3174">
			<stop  offset="0" style="stop-color:#FFFFFF"/>
			<stop  offset="1" style="stop-color:#000000"/>
		</linearGradient>
		<path fill="url(#SVGID_5_)" d="M93.972,14.377v4.52h0.04c0.293-0.427,0.623-0.747,0.99-0.96c0.366-0.213,0.81-0.32,1.33-0.32
			c1.133,0,1.967,0.443,2.5,1.33s0.8,2.33,0.8,4.33s-0.267,3.434-0.8,4.3c-0.533,0.867-1.367,1.3-2.5,1.3c-0.56,0-1.03-0.1-1.41-0.3
			s-0.724-0.553-1.03-1.06h-0.04v1.14h-2.64v-14.28H93.972z M94.243,25.927c0.18,0.594,0.576,0.891,1.189,0.891
			c0.601,0,0.99-0.297,1.17-0.891c0.181-0.593,0.271-1.477,0.271-2.649s-0.09-2.057-0.271-2.65c-0.18-0.593-0.569-0.89-1.17-0.89
			c-0.613,0-1.01,0.297-1.189,0.89c-0.181,0.593-0.271,1.477-0.271,2.65S94.062,25.334,94.243,25.927z"/>
		<linearGradient id="SVGID_6_" gradientUnits="userSpaceOnUse" x1="71.853" y1="44.3174" x2="201.8301" y2="44.3174">
			<stop  offset="0" style="stop-color:#FFFFFF"/>
			<stop  offset="1" style="stop-color:#000000"/>
		</linearGradient>
		<path fill="url(#SVGID_6_)" d="M101.073,20.837c0.146-0.707,0.387-1.297,0.72-1.77s0.77-0.833,1.31-1.08s1.203-0.37,1.99-0.37
			c0.827-0.013,1.514,0.097,2.061,0.33c0.546,0.233,0.979,0.59,1.3,1.07s0.547,1.074,0.68,1.78s0.2,1.534,0.2,2.48
			c0,0.92-0.073,1.733-0.22,2.439c-0.147,0.707-0.387,1.297-0.721,1.771c-0.333,0.474-0.77,0.823-1.31,1.05s-1.203,0.34-1.99,0.34
			c-0.827,0.014-1.514-0.09-2.06-0.31c-0.547-0.22-0.98-0.566-1.3-1.04c-0.32-0.474-0.547-1.066-0.681-1.78
			c-0.133-0.713-0.2-1.536-0.2-2.47C100.852,22.357,100.925,21.544,101.073,20.837z M103.653,24.797
			c0.026,0.467,0.09,0.867,0.189,1.2c0.101,0.334,0.25,0.594,0.45,0.78s0.467,0.28,0.8,0.28c0.561,0,0.946-0.294,1.16-0.881
			c0.213-0.586,0.32-1.553,0.32-2.899s-0.107-2.313-0.32-2.9c-0.214-0.587-0.6-0.88-1.16-0.88c-0.333,0-0.6,0.094-0.8,0.28
			s-0.35,0.447-0.45,0.78c-0.1,0.333-0.163,0.734-0.189,1.2c-0.027,0.467-0.04,0.974-0.04,1.521S103.625,24.331,103.653,24.797z"/>
		<linearGradient id="SVGID_7_" gradientUnits="userSpaceOnUse" x1="71.853" y1="44.3174" x2="201.8301" y2="44.3174">
			<stop  offset="0" style="stop-color:#FFFFFF"/>
			<stop  offset="1" style="stop-color:#000000"/>
		</linearGradient>
		<path fill="url(#SVGID_7_)" d="M113.451,17.897v1.44h0.041c0.279-0.52,0.619-0.937,1.02-1.25s0.887-0.47,1.461-0.47
			c0.08,0,0.162,0.003,0.25,0.01c0.086,0.007,0.17,0.017,0.25,0.03v2.64c-0.146-0.013-0.291-0.023-0.43-0.03
			c-0.141-0.006-0.285-0.01-0.432-0.01c-0.238,0-0.479,0.033-0.719,0.1s-0.461,0.177-0.66,0.33c-0.201,0.154-0.359,0.354-0.48,0.6
			c-0.119,0.247-0.18,0.55-0.18,0.91v6.46h-2.76v-10.76H113.451z"/>
		<linearGradient id="SVGID_8_" gradientUnits="userSpaceOnUse" x1="71.853" y1="44.3174" x2="201.8301" y2="44.3174">
			<stop  offset="0" style="stop-color:#FFFFFF"/>
			<stop  offset="1" style="stop-color:#000000"/>
		</linearGradient>
		<path fill="url(#SVGID_8_)" d="M117.453,20.937c0-0.626,0.1-1.15,0.299-1.57c0.201-0.42,0.471-0.76,0.811-1.02
			c0.34-0.26,0.74-0.446,1.199-0.56c0.461-0.113,0.951-0.17,1.471-0.17c0.826,0,1.492,0.08,2,0.24c0.506,0.16,0.9,0.387,1.18,0.68
			c0.279,0.293,0.471,0.644,0.57,1.05s0.15,0.85,0.15,1.33v5.66c0,0.507,0.023,0.9,0.07,1.18c0.045,0.28,0.135,0.58,0.27,0.9h-2.641
			c-0.094-0.173-0.164-0.356-0.209-0.55c-0.047-0.193-0.09-0.384-0.131-0.57h-0.039c-0.32,0.561-0.691,0.924-1.111,1.09
			c-0.42,0.167-0.963,0.25-1.629,0.25c-0.48,0-0.887-0.083-1.221-0.25c-0.334-0.166-0.6-0.396-0.801-0.689
			c-0.199-0.293-0.346-0.623-0.439-0.99c-0.094-0.366-0.141-0.73-0.141-1.09c0-0.507,0.055-0.943,0.16-1.311
			c0.107-0.366,0.271-0.68,0.49-0.939c0.221-0.26,0.5-0.477,0.84-0.65c0.34-0.173,0.75-0.326,1.23-0.46l1.561-0.42
			c0.412-0.106,0.699-0.253,0.859-0.44c0.16-0.186,0.24-0.459,0.24-0.819c0-0.413-0.098-0.737-0.289-0.97
			c-0.193-0.233-0.523-0.35-0.99-0.35c-0.428,0-0.748,0.127-0.961,0.38s-0.32,0.593-0.32,1.02v0.3h-2.479V20.937z M121.893,23.627
			c-0.213,0.087-0.406,0.15-0.58,0.19c-0.561,0.12-0.961,0.32-1.201,0.6c-0.238,0.28-0.359,0.66-0.359,1.141
			c0,0.413,0.08,0.767,0.24,1.06c0.16,0.294,0.426,0.44,0.801,0.44c0.186,0,0.379-0.03,0.58-0.091
			c0.199-0.06,0.383-0.156,0.549-0.29c0.166-0.133,0.303-0.306,0.41-0.52c0.107-0.213,0.16-0.467,0.16-0.76v-2.12
			C122.305,23.424,122.105,23.541,121.893,23.627z"/>
		<linearGradient id="SVGID_9_" gradientUnits="userSpaceOnUse" x1="71.853" y1="44.3174" x2="201.8301" y2="44.3174">
			<stop  offset="0" style="stop-color:#FFFFFF"/>
			<stop  offset="1" style="stop-color:#000000"/>
		</linearGradient>
		<path fill="url(#SVGID_9_)" d="M130.451,14.817v3.08h1.6v1.88h-1.6v5.82c0,0.427,0.062,0.729,0.189,0.909
			c0.127,0.181,0.391,0.271,0.791,0.271c0.105,0,0.213-0.003,0.32-0.01c0.105-0.007,0.205-0.017,0.299-0.03v1.92
			c-0.307,0-0.604,0.01-0.889,0.03c-0.287,0.02-0.59,0.029-0.91,0.029c-0.533,0-0.971-0.036-1.311-0.109s-0.6-0.22-0.779-0.44
			c-0.182-0.22-0.305-0.51-0.371-0.87c-0.066-0.359-0.1-0.812-0.1-1.359v-6.16h-1.4v-1.88h1.4v-3.08H130.451z"/>
		<linearGradient id="SVGID_10_" gradientUnits="userSpaceOnUse" x1="71.853" y1="44.3174" x2="201.8301" y2="44.3174">
			<stop  offset="0" style="stop-color:#FFFFFF"/>
			<stop  offset="1" style="stop-color:#000000"/>
		</linearGradient>
		<path fill="url(#SVGID_10_)" d="M132.871,20.837c0.146-0.707,0.387-1.297,0.721-1.77c0.332-0.473,0.77-0.833,1.309-1.08
			c0.541-0.247,1.203-0.37,1.99-0.37c0.828-0.013,1.514,0.097,2.061,0.33s0.98,0.59,1.301,1.07s0.547,1.074,0.68,1.78
			s0.199,1.534,0.199,2.48c0,0.92-0.072,1.733-0.219,2.439c-0.148,0.707-0.387,1.297-0.721,1.771s-0.77,0.823-1.311,1.05
			c-0.539,0.227-1.203,0.34-1.99,0.34c-0.826,0.014-1.514-0.09-2.059-0.31c-0.547-0.22-0.98-0.566-1.301-1.04
			s-0.547-1.066-0.68-1.78c-0.133-0.713-0.201-1.536-0.201-2.47C132.65,22.357,132.725,21.544,132.871,20.837z M135.451,24.797
			c0.027,0.467,0.09,0.867,0.189,1.2c0.102,0.334,0.25,0.594,0.451,0.78c0.199,0.187,0.467,0.28,0.799,0.28
			c0.561,0,0.947-0.294,1.16-0.881c0.213-0.586,0.32-1.553,0.32-2.899s-0.107-2.313-0.32-2.9c-0.213-0.587-0.6-0.88-1.16-0.88
			c-0.332,0-0.6,0.094-0.799,0.28c-0.201,0.187-0.35,0.447-0.451,0.78c-0.1,0.333-0.162,0.734-0.189,1.2
			c-0.027,0.467-0.039,0.974-0.039,1.521S135.424,24.331,135.451,24.797z M139.432,13.757l-1.961,2.88h-1.879l1.08-2.88H139.432z"/>
		<linearGradient id="SVGID_11_" gradientUnits="userSpaceOnUse" x1="71.853" y1="44.3174" x2="201.8301" y2="44.3174">
			<stop  offset="0" style="stop-color:#FFFFFF"/>
			<stop  offset="1" style="stop-color:#000000"/>
		</linearGradient>
		<path fill="url(#SVGID_11_)" d="M145.252,17.897v1.44h0.039c0.281-0.52,0.621-0.937,1.021-1.25c0.398-0.313,0.887-0.47,1.459-0.47
			c0.08,0,0.164,0.003,0.25,0.01c0.088,0.007,0.17,0.017,0.25,0.03v2.64c-0.146-0.013-0.289-0.023-0.43-0.03
			c-0.141-0.006-0.283-0.01-0.43-0.01c-0.24,0-0.48,0.033-0.721,0.1s-0.459,0.177-0.66,0.33c-0.199,0.154-0.359,0.354-0.479,0.6
			c-0.121,0.247-0.182,0.55-0.182,0.91v6.46h-2.76v-10.76H145.252z"/>
		<linearGradient id="SVGID_12_" gradientUnits="userSpaceOnUse" x1="71.853" y1="44.3174" x2="201.8301" y2="44.3174">
			<stop  offset="0" style="stop-color:#FFFFFF"/>
			<stop  offset="1" style="stop-color:#000000"/>
		</linearGradient>
		<path fill="url(#SVGID_12_)" d="M152.131,14.217v2.36h-2.76v-2.36H152.131z M152.131,17.897v10.76h-2.76v-10.76H152.131z"/>
		<linearGradient id="SVGID_13_" gradientUnits="userSpaceOnUse" x1="71.853" y1="44.3174" x2="201.8301" y2="44.3174">
			<stop  offset="0" style="stop-color:#FFFFFF"/>
			<stop  offset="1" style="stop-color:#000000"/>
		</linearGradient>
		<path fill="url(#SVGID_13_)" d="M153.932,20.837c0.146-0.707,0.387-1.297,0.719-1.77c0.334-0.473,0.77-0.833,1.311-1.08
			c0.539-0.247,1.203-0.37,1.99-0.37c0.826-0.013,1.514,0.097,2.061,0.33c0.545,0.233,0.979,0.59,1.299,1.07s0.547,1.074,0.68,1.78
			s0.201,1.534,0.201,2.48c0,0.92-0.074,1.733-0.221,2.439c-0.146,0.707-0.387,1.297-0.721,1.771
			c-0.332,0.474-0.77,0.823-1.309,1.05c-0.541,0.227-1.203,0.34-1.99,0.34c-0.828,0.014-1.514-0.09-2.061-0.31
			s-0.98-0.566-1.299-1.04c-0.32-0.474-0.547-1.066-0.682-1.78c-0.133-0.713-0.199-1.536-0.199-2.47
			C153.711,22.357,153.783,21.544,153.932,20.837z M156.512,24.797c0.025,0.467,0.09,0.867,0.189,1.2
			c0.1,0.334,0.25,0.594,0.449,0.78c0.201,0.187,0.467,0.28,0.801,0.28c0.561,0,0.945-0.294,1.16-0.881
			c0.213-0.586,0.32-1.553,0.32-2.899s-0.107-2.313-0.32-2.9c-0.215-0.587-0.6-0.88-1.16-0.88c-0.334,0-0.6,0.094-0.801,0.28
			c-0.199,0.187-0.35,0.447-0.449,0.78c-0.1,0.333-0.164,0.734-0.189,1.2c-0.027,0.467-0.041,0.974-0.041,1.521
			S156.484,24.331,156.512,24.797z"/>
		<linearGradient id="SVGID_14_" gradientUnits="userSpaceOnUse" x1="71.853" y1="44.3174" x2="201.8301" y2="44.3174">
			<stop  offset="0" style="stop-color:#FFFFFF"/>
			<stop  offset="1" style="stop-color:#000000"/>
		</linearGradient>
		<path fill="url(#SVGID_14_)" d="M173.951,27.518c-0.307,0.507-0.65,0.859-1.029,1.06c-0.381,0.2-0.852,0.3-1.41,0.3
			c-1.135,0-1.967-0.433-2.5-1.3c-0.533-0.866-0.801-2.3-0.801-4.3s0.268-3.443,0.801-4.33s1.365-1.33,2.5-1.33
			c0.52,0,0.963,0.107,1.33,0.32c0.365,0.214,0.695,0.534,0.99,0.96h0.039v-4.52h2.76v14.28h-2.639v-1.14H173.951z M171.242,25.927
			c0.18,0.594,0.568,0.891,1.17,0.891c0.611,0,1.01-0.297,1.189-0.891c0.18-0.593,0.27-1.477,0.27-2.649s-0.09-2.057-0.27-2.65
			s-0.578-0.89-1.189-0.89c-0.602,0-0.99,0.297-1.17,0.89c-0.182,0.593-0.271,1.477-0.271,2.65S171.061,25.334,171.242,25.927z"/>
		<linearGradient id="SVGID_15_" gradientUnits="userSpaceOnUse" x1="71.853" y1="44.3174" x2="201.8301" y2="44.3174">
			<stop  offset="0" style="stop-color:#FFFFFF"/>
			<stop  offset="1" style="stop-color:#000000"/>
		</linearGradient>
		<path fill="url(#SVGID_15_)" d="M180.832,24.558c0,0.319,0.021,0.63,0.068,0.93s0.123,0.566,0.23,0.8s0.246,0.42,0.42,0.561
			c0.174,0.14,0.387,0.21,0.641,0.21c0.467,0,0.807-0.167,1.02-0.5c0.213-0.334,0.359-0.841,0.439-1.521h2.48
			c-0.053,1.254-0.387,2.207-1,2.86s-1.58,0.979-2.9,0.979c-1,0-1.779-0.167-2.34-0.5c-0.559-0.333-0.973-0.772-1.24-1.319
			c-0.266-0.547-0.43-1.16-0.488-1.841c-0.061-0.68-0.092-1.359-0.092-2.04c0-0.72,0.051-1.413,0.15-2.079
			c0.1-0.667,0.301-1.26,0.6-1.78c0.301-0.52,0.73-0.933,1.291-1.24c0.561-0.307,1.307-0.46,2.24-0.46
			c0.799,0,1.457,0.13,1.969,0.39c0.514,0.26,0.918,0.627,1.211,1.1s0.492,1.047,0.6,1.72s0.16,1.424,0.16,2.25v0.62h-5.459V24.558z
			 M183.57,20.967c-0.039-0.313-0.109-0.58-0.209-0.8c-0.1-0.22-0.24-0.386-0.42-0.5c-0.18-0.113-0.41-0.17-0.689-0.17
			c-0.281,0-0.51,0.063-0.691,0.19c-0.18,0.127-0.322,0.293-0.43,0.5c-0.107,0.207-0.184,0.437-0.23,0.69s-0.068,0.507-0.068,0.759
			v0.421h2.818C183.639,21.645,183.611,21.281,183.57,20.967z"/>
		<linearGradient id="SVGID_16_" gradientUnits="userSpaceOnUse" x1="71.853" y1="44.3174" x2="201.8301" y2="44.3174">
			<stop  offset="0" style="stop-color:#FFFFFF"/>
			<stop  offset="1" style="stop-color:#000000"/>
		</linearGradient>
		<path fill="url(#SVGID_16_)" d="M77.233,37.377c0.586,0,1.13,0.061,1.63,0.181c0.5,0.119,0.93,0.319,1.29,0.6
			c0.359,0.28,0.64,0.653,0.84,1.12s0.3,1.04,0.3,1.72c0,0.773-0.18,1.438-0.54,1.99c-0.359,0.554-0.899,0.93-1.62,1.13v0.04
			c0.8,0.106,1.434,0.447,1.9,1.02c0.467,0.574,0.7,1.341,0.7,2.301c0,0.56-0.074,1.093-0.221,1.6s-0.396,0.95-0.75,1.33
			s-0.813,0.684-1.38,0.91s-1.27,0.34-2.109,0.34h-4.86v-14.28H77.233z M76.113,43.237c0.8,0,1.383-0.144,1.75-0.43
			c0.366-0.287,0.55-0.771,0.55-1.45c0-0.681-0.167-1.16-0.5-1.44c-0.333-0.279-0.86-0.42-1.58-0.42h-1.04v3.74H76.113z
			 M76.413,49.537c0.693,0,1.253-0.153,1.68-0.46s0.641-0.873,0.641-1.7c0-0.413-0.058-0.756-0.17-1.029
			c-0.114-0.273-0.268-0.493-0.46-0.66c-0.194-0.167-0.424-0.283-0.69-0.351c-0.267-0.066-0.56-0.1-0.88-0.1h-1.24v4.3H76.413z"/>
		<linearGradient id="SVGID_17_" gradientUnits="userSpaceOnUse" x1="71.853" y1="44.3174" x2="201.8301" y2="44.3174">
			<stop  offset="0" style="stop-color:#FFFFFF"/>
			<stop  offset="1" style="stop-color:#000000"/>
		</linearGradient>
		<path fill="url(#SVGID_17_)" d="M86.313,37.217v2.36h-2.761v-2.36H86.313z M86.313,40.897v10.76h-2.761v-10.76H86.313z"/>
		<linearGradient id="SVGID_18_" gradientUnits="userSpaceOnUse" x1="71.853" y1="44.3174" x2="201.8301" y2="44.3174">
			<stop  offset="0" style="stop-color:#FFFFFF"/>
			<stop  offset="1" style="stop-color:#000000"/>
		</linearGradient>
		<path fill="url(#SVGID_18_)" d="M88.113,43.837c0.146-0.706,0.387-1.296,0.72-1.77s0.77-0.833,1.31-1.08s1.203-0.37,1.99-0.37
			c0.827-0.013,1.514,0.097,2.061,0.33c0.546,0.233,0.979,0.59,1.3,1.07c0.32,0.479,0.547,1.073,0.68,1.779
			c0.133,0.707,0.2,1.534,0.2,2.48c0,0.92-0.073,1.733-0.22,2.439c-0.147,0.707-0.387,1.297-0.721,1.771
			c-0.333,0.474-0.77,0.823-1.31,1.05s-1.203,0.34-1.99,0.34c-0.827,0.014-1.514-0.09-2.06-0.31c-0.547-0.22-0.98-0.566-1.3-1.04
			c-0.32-0.474-0.547-1.066-0.681-1.78c-0.133-0.713-0.2-1.536-0.2-2.47C87.892,45.357,87.965,44.544,88.113,43.837z M90.693,47.797
			c0.026,0.467,0.09,0.867,0.189,1.2c0.101,0.334,0.25,0.594,0.45,0.78s0.467,0.28,0.8,0.28c0.561,0,0.946-0.294,1.16-0.881
			c0.213-0.586,0.32-1.553,0.32-2.899s-0.107-2.313-0.32-2.9c-0.214-0.586-0.6-0.88-1.16-0.88c-0.333,0-0.6,0.094-0.8,0.28
			s-0.35,0.446-0.45,0.78c-0.1,0.333-0.163,0.733-0.189,1.199c-0.027,0.467-0.04,0.974-0.04,1.521S90.666,47.331,90.693,47.797z"/>
		<linearGradient id="SVGID_19_" gradientUnits="userSpaceOnUse" x1="71.853" y1="44.3174" x2="201.8301" y2="44.3174">
			<stop  offset="0" style="stop-color:#FFFFFF"/>
			<stop  offset="1" style="stop-color:#000000"/>
		</linearGradient>
		<path fill="url(#SVGID_19_)" d="M100.712,37.217v2.36h-2.761v-2.36H100.712z M100.712,40.897v10.76h-2.761v-10.76H100.712z"/>
		<linearGradient id="SVGID_20_" gradientUnits="userSpaceOnUse" x1="71.853" y1="44.3174" x2="201.8301" y2="44.3174">
			<stop  offset="0" style="stop-color:#FFFFFF"/>
			<stop  offset="1" style="stop-color:#000000"/>
		</linearGradient>
		<path fill="url(#SVGID_20_)" d="M105.292,40.897v1.26h0.04c0.294-0.533,0.674-0.923,1.141-1.17s1-0.37,1.6-0.37
			c0.88,0,1.557,0.24,2.03,0.72c0.473,0.48,0.71,1.261,0.71,2.34v7.98h-2.76v-7.42c0-0.561-0.094-0.95-0.28-1.17
			s-0.487-0.33-0.9-0.33c-0.973,0-1.46,0.594-1.46,1.78v7.14h-2.76v-10.76H105.292z"/>
		<linearGradient id="SVGID_21_" gradientUnits="userSpaceOnUse" x1="71.853" y1="44.3174" x2="201.8301" y2="44.3174">
			<stop  offset="0" style="stop-color:#FFFFFF"/>
			<stop  offset="1" style="stop-color:#000000"/>
		</linearGradient>
		<path fill="url(#SVGID_21_)" d="M111.852,42.777v-1.88h1.4v-1.221c0-0.479,0.066-0.886,0.199-1.22c0.135-0.333,0.324-0.6,0.57-0.8
			s0.551-0.343,0.91-0.43s0.76-0.13,1.201-0.13c0.492,0,0.986,0.02,1.479,0.06v1.96c-0.066-0.013-0.16-0.02-0.279-0.02h-0.26
			c-0.387,0-0.66,0.066-0.82,0.199c-0.16,0.134-0.24,0.354-0.24,0.66v0.94h1.6v1.88h-1.6v8.88h-2.76v-8.88H111.852z"/>
		<linearGradient id="SVGID_22_" gradientUnits="userSpaceOnUse" x1="71.853" y1="44.3174" x2="201.8301" y2="44.3174">
			<stop  offset="0" style="stop-color:#FFFFFF"/>
			<stop  offset="1" style="stop-color:#000000"/>
		</linearGradient>
		<path fill="url(#SVGID_22_)" d="M118.432,43.837c0.146-0.706,0.387-1.296,0.721-1.77c0.332-0.474,0.77-0.833,1.309-1.08
			c0.541-0.247,1.203-0.37,1.99-0.37c0.828-0.013,1.514,0.097,2.061,0.33s0.98,0.59,1.301,1.07c0.32,0.479,0.547,1.073,0.68,1.779
			c0.133,0.707,0.199,1.534,0.199,2.48c0,0.92-0.072,1.733-0.219,2.439c-0.148,0.707-0.387,1.297-0.721,1.771
			s-0.77,0.823-1.311,1.05c-0.539,0.227-1.203,0.34-1.99,0.34c-0.826,0.014-1.514-0.09-2.059-0.31
			c-0.547-0.22-0.98-0.566-1.301-1.04s-0.547-1.066-0.68-1.78c-0.133-0.713-0.201-1.536-0.201-2.47
			C118.211,45.357,118.285,44.544,118.432,43.837z M121.012,47.797c0.027,0.467,0.09,0.867,0.189,1.2
			c0.102,0.334,0.25,0.594,0.451,0.78c0.199,0.187,0.467,0.28,0.799,0.28c0.561,0,0.947-0.294,1.16-0.881
			c0.213-0.586,0.32-1.553,0.32-2.899s-0.107-2.313-0.32-2.9c-0.213-0.586-0.6-0.88-1.16-0.88c-0.332,0-0.6,0.094-0.799,0.28
			c-0.201,0.187-0.35,0.446-0.451,0.78c-0.1,0.333-0.162,0.733-0.189,1.199c-0.027,0.467-0.039,0.974-0.039,1.521
			S120.984,47.331,121.012,47.797z"/>
		<linearGradient id="SVGID_23_" gradientUnits="userSpaceOnUse" x1="71.853" y1="44.3174" x2="201.8301" y2="44.3174">
			<stop  offset="0" style="stop-color:#FFFFFF"/>
			<stop  offset="1" style="stop-color:#000000"/>
		</linearGradient>
		<path fill="url(#SVGID_23_)" d="M130.811,40.897v1.439h0.041c0.279-0.52,0.619-0.937,1.02-1.25c0.4-0.312,0.887-0.47,1.461-0.47
			c0.08,0,0.162,0.004,0.25,0.01c0.086,0.007,0.17,0.018,0.25,0.03v2.64c-0.146-0.013-0.291-0.022-0.43-0.029
			c-0.141-0.007-0.285-0.011-0.432-0.011c-0.238,0-0.479,0.034-0.719,0.101s-0.461,0.177-0.66,0.33
			c-0.201,0.153-0.359,0.354-0.48,0.6c-0.119,0.247-0.18,0.55-0.18,0.91v6.46h-2.76v-10.76H130.811z"/>
		<linearGradient id="SVGID_24_" gradientUnits="userSpaceOnUse" x1="71.853" y1="44.3174" x2="201.8301" y2="44.3174">
			<stop  offset="0" style="stop-color:#FFFFFF"/>
			<stop  offset="1" style="stop-color:#000000"/>
		</linearGradient>
		<path fill="url(#SVGID_24_)" d="M137.471,40.897v1.1h0.041c0.346-0.493,0.736-0.847,1.17-1.06c0.434-0.214,0.949-0.32,1.551-0.32
			c0.639,0,1.176,0.146,1.609,0.44c0.434,0.293,0.723,0.72,0.869,1.279h0.041c0.213-0.573,0.557-1.003,1.029-1.29
			c0.473-0.286,1.037-0.43,1.689-0.43c0.922,0,1.598,0.277,2.031,0.83c0.434,0.554,0.65,1.35,0.65,2.39v7.82h-2.76v-7.52
			c0-0.453-0.084-0.801-0.25-1.04c-0.168-0.24-0.445-0.36-0.83-0.36c-0.441,0-0.791,0.146-1.051,0.439
			c-0.26,0.294-0.391,0.761-0.391,1.4v7.08h-2.76v-7.52c0-0.453-0.084-0.801-0.25-1.04c-0.166-0.24-0.443-0.36-0.83-0.36
			c-0.439,0-0.789,0.146-1.049,0.439c-0.262,0.294-0.391,0.761-0.391,1.4v7.08h-2.76v-10.76H137.471z"/>
		<linearGradient id="SVGID_25_" gradientUnits="userSpaceOnUse" x1="71.853" y1="44.3174" x2="201.8301" y2="44.3174">
			<stop  offset="0" style="stop-color:#FFFFFF"/>
			<stop  offset="1" style="stop-color:#000000"/>
		</linearGradient>
		<path fill="url(#SVGID_25_)" d="M149.973,43.938c0-0.627,0.1-1.15,0.299-1.57c0.201-0.42,0.471-0.76,0.811-1.02
			c0.34-0.261,0.74-0.447,1.199-0.561c0.461-0.113,0.951-0.17,1.471-0.17c0.826,0,1.492,0.08,2,0.24c0.506,0.16,0.9,0.387,1.18,0.68
			c0.279,0.294,0.471,0.644,0.57,1.05c0.1,0.407,0.15,0.851,0.15,1.33v5.66c0,0.507,0.023,0.9,0.07,1.18
			c0.045,0.28,0.135,0.58,0.27,0.9h-2.641c-0.094-0.173-0.164-0.356-0.209-0.55c-0.047-0.193-0.09-0.384-0.131-0.57h-0.039
			c-0.32,0.561-0.691,0.924-1.111,1.09c-0.42,0.167-0.963,0.25-1.629,0.25c-0.48,0-0.887-0.083-1.221-0.25
			c-0.334-0.166-0.6-0.396-0.801-0.689c-0.199-0.293-0.346-0.623-0.439-0.99c-0.094-0.366-0.141-0.73-0.141-1.09
			c0-0.507,0.055-0.943,0.16-1.311c0.107-0.366,0.271-0.68,0.49-0.939c0.221-0.26,0.5-0.477,0.84-0.65
			c0.34-0.173,0.75-0.326,1.23-0.46l1.561-0.42c0.412-0.106,0.699-0.253,0.859-0.439c0.16-0.188,0.24-0.461,0.24-0.82
			c0-0.413-0.098-0.736-0.289-0.97c-0.193-0.233-0.523-0.351-0.99-0.351c-0.428,0-0.748,0.127-0.961,0.38
			c-0.213,0.254-0.32,0.594-0.32,1.021v0.3h-2.479V43.938z M154.412,46.627c-0.213,0.087-0.406,0.15-0.58,0.19
			c-0.561,0.12-0.961,0.32-1.201,0.6c-0.238,0.28-0.359,0.66-0.359,1.141c0,0.413,0.08,0.767,0.24,1.06
			c0.16,0.294,0.426,0.44,0.801,0.44c0.186,0,0.379-0.03,0.58-0.091c0.199-0.06,0.383-0.156,0.549-0.29
			c0.166-0.133,0.303-0.306,0.41-0.52c0.107-0.213,0.16-0.467,0.16-0.76v-2.12C154.824,46.424,154.625,46.541,154.412,46.627z
			 M156.432,36.757l-1.959,2.881h-1.881l1.08-2.881H156.432z"/>
		<linearGradient id="SVGID_26_" gradientUnits="userSpaceOnUse" x1="71.853" y1="44.3174" x2="201.8301" y2="44.3174">
			<stop  offset="0" style="stop-color:#FFFFFF"/>
			<stop  offset="1" style="stop-color:#000000"/>
		</linearGradient>
		<path fill="url(#SVGID_26_)" d="M162.971,37.817v3.08h1.6v1.88h-1.6v5.82c0,0.427,0.062,0.729,0.189,0.909
			c0.127,0.181,0.391,0.271,0.791,0.271c0.105,0,0.213-0.003,0.32-0.01c0.105-0.007,0.205-0.017,0.299-0.03v1.92
			c-0.307,0-0.604,0.01-0.889,0.03c-0.287,0.02-0.59,0.029-0.91,0.029c-0.533,0-0.971-0.036-1.311-0.109s-0.6-0.22-0.779-0.44
			c-0.182-0.22-0.305-0.51-0.371-0.87c-0.066-0.359-0.1-0.812-0.1-1.359v-6.16h-1.4v-1.88h1.4v-3.08H162.971z"/>
		<linearGradient id="SVGID_27_" gradientUnits="userSpaceOnUse" x1="71.853" y1="44.3174" x2="201.8301" y2="44.3174">
			<stop  offset="0" style="stop-color:#FFFFFF"/>
			<stop  offset="1" style="stop-color:#000000"/>
		</linearGradient>
		<path fill="url(#SVGID_27_)" d="M168.391,37.217v2.36h-2.76v-2.36H168.391z M168.391,40.897v10.76h-2.76v-10.76H168.391z"/>
		<linearGradient id="SVGID_28_" gradientUnits="userSpaceOnUse" x1="71.853" y1="44.3174" x2="201.8301" y2="44.3174">
			<stop  offset="0" style="stop-color:#FFFFFF"/>
			<stop  offset="1" style="stop-color:#000000"/>
		</linearGradient>
		<path fill="url(#SVGID_28_)" d="M175.461,43.997c-0.033-0.253-0.094-0.483-0.18-0.689c-0.088-0.207-0.211-0.373-0.371-0.5
			s-0.373-0.19-0.639-0.19c-0.334,0-0.607,0.077-0.82,0.23c-0.215,0.153-0.373,0.38-0.48,0.68s-0.18,0.68-0.221,1.14
			c-0.039,0.46-0.059,1.004-0.059,1.63c0,0.667,0.02,1.237,0.059,1.71c0.041,0.474,0.113,0.864,0.221,1.17
			c0.107,0.308,0.256,0.53,0.449,0.671c0.193,0.14,0.443,0.21,0.75,0.21c0.467,0,0.807-0.2,1.021-0.601
			c0.213-0.399,0.318-1.04,0.318-1.92h2.641c0,1.413-0.316,2.49-0.949,3.23c-0.635,0.739-1.684,1.109-3.15,1.109
			c-0.693,0-1.297-0.083-1.811-0.25c-0.514-0.166-0.939-0.466-1.279-0.899s-0.598-1.014-0.77-1.74
			c-0.174-0.727-0.262-1.63-0.262-2.71c0-1.106,0.107-2.023,0.32-2.75s0.514-1.307,0.9-1.74c0.387-0.433,0.848-0.736,1.381-0.91
			c0.533-0.173,1.119-0.26,1.76-0.26c1.279,0,2.242,0.373,2.889,1.12c0.648,0.747,0.971,1.76,0.971,3.04h-2.641
			C175.51,44.511,175.494,44.251,175.461,43.997z"/>
		<linearGradient id="SVGID_29_" gradientUnits="userSpaceOnUse" x1="71.853" y1="44.3174" x2="201.8301" y2="44.3174">
			<stop  offset="0" style="stop-color:#FFFFFF"/>
			<stop  offset="1" style="stop-color:#000000"/>
		</linearGradient>
		<path fill="url(#SVGID_29_)" d="M179.57,43.938c0-0.627,0.1-1.15,0.301-1.57c0.199-0.42,0.469-0.76,0.809-1.02
			c0.34-0.261,0.74-0.447,1.201-0.561c0.459-0.113,0.949-0.17,1.469-0.17c0.828,0,1.494,0.08,2,0.24
			c0.508,0.16,0.9,0.387,1.182,0.68c0.279,0.294,0.469,0.644,0.568,1.05c0.102,0.407,0.15,0.851,0.15,1.33v5.66
			c0,0.507,0.023,0.9,0.07,1.18c0.047,0.28,0.137,0.58,0.27,0.9h-2.639c-0.094-0.173-0.164-0.356-0.211-0.55s-0.09-0.384-0.129-0.57
			h-0.041c-0.32,0.561-0.689,0.924-1.109,1.09c-0.42,0.167-0.965,0.25-1.631,0.25c-0.48,0-0.887-0.083-1.219-0.25
			c-0.334-0.166-0.602-0.396-0.801-0.689s-0.348-0.623-0.439-0.99c-0.094-0.366-0.141-0.73-0.141-1.09
			c0-0.507,0.053-0.943,0.16-1.311c0.105-0.366,0.27-0.68,0.49-0.939c0.219-0.26,0.5-0.477,0.84-0.65
			c0.34-0.173,0.75-0.326,1.23-0.46l1.559-0.42c0.414-0.106,0.701-0.253,0.861-0.439c0.16-0.188,0.24-0.461,0.24-0.82
			c0-0.413-0.098-0.736-0.291-0.97s-0.523-0.351-0.99-0.351c-0.426,0-0.746,0.127-0.959,0.38c-0.215,0.254-0.32,0.594-0.32,1.021
			v0.3h-2.48V43.938z M184.01,46.627c-0.213,0.087-0.406,0.15-0.58,0.19c-0.559,0.12-0.959,0.32-1.199,0.6
			c-0.24,0.28-0.359,0.66-0.359,1.141c0,0.413,0.08,0.767,0.24,1.06c0.158,0.294,0.426,0.44,0.799,0.44
			c0.188,0,0.381-0.03,0.58-0.091c0.199-0.06,0.383-0.156,0.551-0.29c0.166-0.133,0.303-0.306,0.41-0.52
			c0.105-0.213,0.16-0.467,0.16-0.76v-2.12C184.424,46.424,184.223,46.541,184.01,46.627z"/>
		<linearGradient id="SVGID_30_" gradientUnits="userSpaceOnUse" x1="71.853" y1="44.3174" x2="201.8301" y2="44.3174">
			<stop  offset="0" style="stop-color:#FFFFFF"/>
			<stop  offset="1" style="stop-color:#000000"/>
		</linearGradient>
		<path fill="url(#SVGID_30_)" d="M196.371,47.558c0,0.319,0.021,0.63,0.068,0.93s0.123,0.566,0.23,0.8s0.246,0.42,0.42,0.561
			c0.174,0.14,0.387,0.21,0.641,0.21c0.467,0,0.807-0.167,1.02-0.5c0.213-0.334,0.359-0.841,0.439-1.521h2.48
			c-0.053,1.254-0.387,2.207-1,2.86s-1.58,0.979-2.9,0.979c-1,0-1.779-0.167-2.34-0.5c-0.559-0.333-0.973-0.772-1.24-1.319
			c-0.266-0.547-0.43-1.16-0.488-1.841c-0.061-0.68-0.092-1.359-0.092-2.04c0-0.72,0.051-1.413,0.15-2.079
			c0.1-0.667,0.301-1.261,0.6-1.78c0.301-0.521,0.73-0.934,1.291-1.24s1.307-0.46,2.24-0.46c0.799,0,1.457,0.13,1.969,0.39
			c0.514,0.261,0.918,0.627,1.211,1.101s0.492,1.047,0.6,1.72c0.107,0.674,0.16,1.424,0.16,2.25v0.62h-5.459V47.558z
			 M199.109,43.967c-0.039-0.312-0.109-0.579-0.209-0.8c-0.1-0.22-0.24-0.387-0.42-0.5s-0.41-0.17-0.689-0.17
			c-0.281,0-0.51,0.063-0.691,0.19c-0.18,0.127-0.322,0.293-0.43,0.5s-0.184,0.437-0.23,0.689c-0.047,0.254-0.068,0.507-0.068,0.761
			v0.42h2.818C199.178,44.645,199.15,44.28,199.109,43.967z"/>
		<linearGradient id="SVGID_31_" gradientUnits="userSpaceOnUse" x1="71.853" y1="44.3174" x2="201.8301" y2="44.3174">
			<stop  offset="0" style="stop-color:#FFFFFF"/>
			<stop  offset="1" style="stop-color:#000000"/>
		</linearGradient>
		<path fill="url(#SVGID_31_)" d="M74.733,70.617c0,0.333,0.026,0.637,0.08,0.91c0.053,0.273,0.152,0.503,0.3,0.689
			c0.146,0.188,0.343,0.334,0.59,0.44c0.246,0.106,0.557,0.16,0.93,0.16c0.44,0,0.837-0.144,1.19-0.43
			c0.353-0.287,0.53-0.73,0.53-1.33c0-0.32-0.044-0.597-0.131-0.83s-0.229-0.443-0.43-0.63s-0.463-0.357-0.79-0.511
			c-0.327-0.152-0.729-0.31-1.21-0.47c-0.64-0.213-1.193-0.446-1.66-0.7c-0.467-0.253-0.856-0.55-1.17-0.89s-0.543-0.733-0.689-1.18
			c-0.147-0.447-0.221-0.964-0.221-1.551c0-1.413,0.394-2.466,1.181-3.159c0.786-0.693,1.866-1.04,3.239-1.04
			c0.641,0,1.23,0.069,1.771,0.21c0.54,0.14,1.007,0.366,1.4,0.68c0.393,0.313,0.699,0.713,0.92,1.2
			c0.22,0.486,0.33,1.069,0.33,1.75v0.399h-2.761c0-0.68-0.12-1.203-0.359-1.569c-0.24-0.367-0.641-0.551-1.2-0.551
			c-0.32,0-0.587,0.047-0.8,0.141c-0.214,0.093-0.384,0.217-0.511,0.37s-0.213,0.33-0.26,0.529c-0.047,0.2-0.07,0.407-0.07,0.62
			c0,0.44,0.094,0.811,0.28,1.11s0.587,0.577,1.2,0.83l2.22,0.96c0.547,0.24,0.993,0.49,1.34,0.75s0.624,0.54,0.83,0.84
			c0.207,0.3,0.351,0.63,0.431,0.99c0.08,0.359,0.12,0.76,0.12,1.2c0,1.507-0.438,2.604-1.311,3.29s-2.09,1.029-3.649,1.029
			c-1.627,0-2.79-0.353-3.49-1.06s-1.05-1.72-1.05-3.04v-0.58h2.88V70.617z"/>
		<linearGradient id="SVGID_32_" gradientUnits="userSpaceOnUse" x1="71.853" y1="44.3174" x2="201.8301" y2="44.3174">
			<stop  offset="0" style="stop-color:#FFFFFF"/>
			<stop  offset="1" style="stop-color:#000000"/>
		</linearGradient>
		<path fill="url(#SVGID_32_)" d="M85.573,60.217v2.36h-2.761v-2.36H85.573z M85.573,63.897v10.76h-2.761v-10.76H85.573z"/>
		<linearGradient id="SVGID_33_" gradientUnits="userSpaceOnUse" x1="71.853" y1="44.3174" x2="201.8301" y2="44.3174">
			<stop  offset="0" style="stop-color:#FFFFFF"/>
			<stop  offset="1" style="stop-color:#000000"/>
		</linearGradient>
		<path fill="url(#SVGID_33_)" d="M89.533,71.497c0,0.467,0.123,0.844,0.369,1.13c0.247,0.287,0.604,0.431,1.07,0.431
			c0.427,0,0.767-0.107,1.021-0.32c0.253-0.213,0.38-0.533,0.38-0.96c0-0.347-0.101-0.61-0.3-0.79c-0.2-0.18-0.434-0.323-0.7-0.43
			l-1.94-0.7c-0.76-0.267-1.333-0.644-1.72-1.13c-0.387-0.487-0.58-1.11-0.58-1.87c0-0.44,0.073-0.856,0.22-1.25
			s0.38-0.736,0.7-1.03c0.32-0.293,0.73-0.526,1.23-0.7c0.5-0.173,1.103-0.26,1.81-0.26c1.253,0,2.18,0.267,2.78,0.8
			c0.6,0.533,0.899,1.287,0.899,2.26v0.44h-2.479c0-0.56-0.09-0.97-0.271-1.229c-0.18-0.261-0.496-0.391-0.949-0.391
			c-0.348,0-0.65,0.097-0.91,0.29c-0.261,0.193-0.391,0.483-0.391,0.87c0,0.267,0.083,0.507,0.25,0.72
			c0.167,0.214,0.483,0.394,0.95,0.54l1.66,0.561c0.866,0.293,1.479,0.677,1.84,1.149c0.36,0.474,0.54,1.117,0.54,1.931
			c0,0.573-0.1,1.069-0.3,1.489s-0.477,0.771-0.83,1.051c-0.354,0.279-0.773,0.479-1.26,0.6c-0.487,0.12-1.023,0.18-1.61,0.18
			c-0.773,0-1.417-0.073-1.93-0.22c-0.514-0.146-0.92-0.366-1.221-0.66c-0.3-0.293-0.51-0.649-0.63-1.07
			c-0.12-0.42-0.18-0.89-0.18-1.409v-0.38h2.48V71.497z"/>
		<linearGradient id="SVGID_34_" gradientUnits="userSpaceOnUse" x1="71.853" y1="44.3174" x2="201.8301" y2="44.3174">
			<stop  offset="0" style="stop-color:#FFFFFF"/>
			<stop  offset="1" style="stop-color:#000000"/>
		</linearGradient>
		<path fill="url(#SVGID_34_)" d="M99.752,60.817v3.08h1.6v1.88h-1.6v5.82c0,0.427,0.062,0.729,0.189,0.909
			c0.127,0.181,0.391,0.271,0.79,0.271c0.106,0,0.213-0.003,0.32-0.01c0.106-0.007,0.206-0.017,0.3-0.03v1.92
			c-0.307,0-0.604,0.01-0.89,0.03c-0.287,0.02-0.59,0.029-0.91,0.029c-0.533,0-0.97-0.036-1.311-0.109
			c-0.34-0.073-0.6-0.22-0.779-0.44c-0.181-0.22-0.304-0.51-0.37-0.87c-0.067-0.359-0.101-0.812-0.101-1.359v-6.16h-1.399v-1.88
			h1.399v-3.08H99.752z"/>
		<linearGradient id="SVGID_35_" gradientUnits="userSpaceOnUse" x1="71.853" y1="44.3174" x2="201.8301" y2="44.3174">
			<stop  offset="0" style="stop-color:#FFFFFF"/>
			<stop  offset="1" style="stop-color:#000000"/>
		</linearGradient>
		<path fill="url(#SVGID_35_)" d="M104.672,70.558c0,0.319,0.022,0.63,0.069,0.93s0.123,0.566,0.23,0.8
			c0.106,0.233,0.246,0.42,0.42,0.561c0.173,0.14,0.387,0.21,0.64,0.21c0.467,0,0.807-0.167,1.021-0.5
			c0.213-0.334,0.359-0.841,0.439-1.521h2.48c-0.054,1.254-0.387,2.207-1,2.86s-1.58,0.979-2.9,0.979c-1,0-1.779-0.167-2.34-0.5
			c-0.56-0.333-0.974-0.772-1.24-1.319s-0.43-1.16-0.489-1.841c-0.061-0.68-0.091-1.359-0.091-2.04c0-0.72,0.051-1.413,0.15-2.079
			c0.1-0.667,0.3-1.261,0.6-1.78c0.301-0.521,0.73-0.934,1.29-1.24c0.561-0.307,1.307-0.46,2.24-0.46c0.8,0,1.457,0.13,1.97,0.39
			c0.514,0.261,0.917,0.627,1.211,1.101c0.293,0.474,0.492,1.047,0.6,1.72c0.106,0.674,0.16,1.424,0.16,2.25v0.62h-5.46V70.558z
			 M107.412,66.967c-0.039-0.312-0.109-0.579-0.21-0.8c-0.1-0.22-0.239-0.387-0.42-0.5c-0.18-0.113-0.409-0.17-0.689-0.17
			s-0.51,0.063-0.69,0.19c-0.18,0.127-0.323,0.293-0.43,0.5c-0.107,0.207-0.184,0.437-0.23,0.689
			c-0.047,0.254-0.069,0.507-0.069,0.761v0.42h2.819C107.479,67.645,107.452,67.28,107.412,66.967z"/>
		<linearGradient id="SVGID_36_" gradientUnits="userSpaceOnUse" x1="71.853" y1="44.3174" x2="201.8301" y2="44.3174">
			<stop  offset="0" style="stop-color:#FFFFFF"/>
			<stop  offset="1" style="stop-color:#000000"/>
		</linearGradient>
		<path fill="url(#SVGID_36_)" d="M114.211,63.897v1.1h0.041c0.346-0.493,0.736-0.847,1.17-1.06c0.434-0.214,0.949-0.32,1.551-0.32
			c0.639,0,1.176,0.146,1.609,0.44c0.434,0.293,0.723,0.72,0.869,1.279h0.041c0.213-0.573,0.557-1.003,1.029-1.29
			c0.473-0.286,1.037-0.43,1.689-0.43c0.922,0,1.598,0.277,2.031,0.83c0.434,0.554,0.65,1.35,0.65,2.39v7.82h-2.76v-7.52
			c0-0.453-0.084-0.801-0.25-1.04c-0.168-0.24-0.445-0.36-0.83-0.36c-0.441,0-0.791,0.146-1.051,0.439
			c-0.26,0.294-0.391,0.761-0.391,1.4v7.08h-2.76v-7.52c0-0.453-0.084-0.801-0.25-1.04c-0.166-0.24-0.443-0.36-0.83-0.36
			c-0.439,0-0.789,0.146-1.049,0.439c-0.262,0.294-0.391,0.761-0.391,1.4v7.08h-2.76v-10.76H114.211z"/>
		<linearGradient id="SVGID_37_" gradientUnits="userSpaceOnUse" x1="71.853" y1="44.3174" x2="201.8301" y2="44.3174">
			<stop  offset="0" style="stop-color:#FFFFFF"/>
			<stop  offset="1" style="stop-color:#000000"/>
		</linearGradient>
		<path fill="url(#SVGID_37_)" d="M126.713,66.938c0-0.627,0.1-1.15,0.299-1.57c0.201-0.42,0.471-0.76,0.811-1.02
			c0.34-0.261,0.74-0.447,1.199-0.561c0.461-0.113,0.951-0.17,1.471-0.17c0.826,0,1.492,0.08,2,0.24c0.506,0.16,0.9,0.387,1.18,0.68
			c0.279,0.294,0.471,0.644,0.57,1.05c0.1,0.407,0.15,0.851,0.15,1.33v5.66c0,0.507,0.023,0.9,0.07,1.18
			c0.045,0.28,0.135,0.58,0.27,0.9h-2.641c-0.094-0.173-0.164-0.356-0.209-0.55c-0.047-0.193-0.09-0.384-0.131-0.57h-0.039
			c-0.32,0.561-0.691,0.924-1.111,1.09c-0.42,0.167-0.963,0.25-1.629,0.25c-0.48,0-0.887-0.083-1.221-0.25
			c-0.334-0.166-0.6-0.396-0.801-0.689c-0.199-0.293-0.346-0.623-0.439-0.99c-0.094-0.366-0.141-0.73-0.141-1.09
			c0-0.507,0.055-0.943,0.16-1.311c0.107-0.366,0.271-0.68,0.49-0.939c0.221-0.26,0.5-0.477,0.84-0.65
			c0.34-0.173,0.75-0.326,1.23-0.46l1.561-0.42c0.412-0.106,0.699-0.253,0.859-0.439c0.16-0.188,0.24-0.461,0.24-0.82
			c0-0.413-0.098-0.736-0.289-0.97c-0.193-0.233-0.523-0.351-0.99-0.351c-0.428,0-0.748,0.127-0.961,0.38
			c-0.213,0.254-0.32,0.594-0.32,1.021v0.3h-2.479V66.938z M131.152,69.627c-0.213,0.087-0.406,0.15-0.58,0.19
			c-0.561,0.12-0.961,0.32-1.201,0.6c-0.238,0.28-0.359,0.66-0.359,1.141c0,0.413,0.08,0.767,0.24,1.06
			c0.16,0.294,0.426,0.44,0.801,0.44c0.186,0,0.379-0.03,0.58-0.091c0.199-0.06,0.383-0.156,0.549-0.29
			c0.166-0.133,0.303-0.306,0.41-0.52c0.107-0.213,0.16-0.467,0.16-0.76v-2.12C131.564,69.424,131.365,69.541,131.152,69.627z"/>
		<linearGradient id="SVGID_38_" gradientUnits="userSpaceOnUse" x1="71.853" y1="44.3174" x2="201.8301" y2="44.3174">
			<stop  offset="0" style="stop-color:#FFFFFF"/>
			<stop  offset="1" style="stop-color:#000000"/>
		</linearGradient>
		<path fill="url(#SVGID_38_)" d="M138.371,71.497c0,0.467,0.123,0.844,0.369,1.13c0.248,0.287,0.604,0.431,1.07,0.431
			c0.428,0,0.768-0.107,1.021-0.32c0.252-0.213,0.379-0.533,0.379-0.96c0-0.347-0.1-0.61-0.299-0.79
			c-0.201-0.18-0.434-0.323-0.701-0.43l-1.939-0.7c-0.76-0.267-1.334-0.644-1.721-1.13c-0.387-0.487-0.58-1.11-0.58-1.87
			c0-0.44,0.074-0.856,0.221-1.25s0.379-0.736,0.699-1.03c0.32-0.293,0.73-0.526,1.23-0.7c0.5-0.173,1.104-0.26,1.811-0.26
			c1.252,0,2.18,0.267,2.779,0.8s0.9,1.287,0.9,2.26v0.44h-2.48c0-0.56-0.09-0.97-0.27-1.229c-0.18-0.261-0.496-0.391-0.949-0.391
			c-0.348,0-0.65,0.097-0.91,0.29c-0.262,0.193-0.391,0.483-0.391,0.87c0,0.267,0.082,0.507,0.25,0.72
			c0.166,0.214,0.482,0.394,0.949,0.54l1.66,0.561c0.867,0.293,1.48,0.677,1.84,1.149c0.361,0.474,0.541,1.117,0.541,1.931
			c0,0.573-0.1,1.069-0.301,1.489c-0.199,0.42-0.477,0.771-0.83,1.051c-0.354,0.279-0.773,0.479-1.26,0.6s-1.023,0.18-1.609,0.18
			c-0.773,0-1.418-0.073-1.93-0.22c-0.514-0.146-0.92-0.366-1.221-0.66c-0.301-0.293-0.51-0.649-0.631-1.07
			c-0.119-0.42-0.18-0.89-0.18-1.409v-0.38h2.48V71.497z"/>
	</g>
	<g>
		<path fill="#575756" d="M72.413,14.377h2.88v11.919h5.101v2.36h-7.98V14.377z"/>
		<path fill="#575756" d="M81.573,20.937c0-0.626,0.1-1.15,0.3-1.57s0.47-0.76,0.81-1.02c0.34-0.26,0.74-0.446,1.2-0.56
			c0.46-0.113,0.95-0.17,1.47-0.17c0.827,0,1.493,0.08,2,0.24c0.507,0.16,0.9,0.387,1.181,0.68c0.279,0.293,0.47,0.644,0.569,1.05
			c0.101,0.407,0.15,0.85,0.15,1.33v5.66c0,0.507,0.023,0.9,0.07,1.18c0.046,0.28,0.136,0.58,0.27,0.9h-2.64
			c-0.094-0.173-0.164-0.356-0.21-0.55c-0.047-0.193-0.09-0.384-0.13-0.57h-0.04c-0.32,0.561-0.69,0.924-1.11,1.09
			c-0.42,0.167-0.964,0.25-1.63,0.25c-0.48,0-0.887-0.083-1.22-0.25c-0.334-0.166-0.601-0.396-0.801-0.689
			c-0.199-0.293-0.347-0.623-0.439-0.99c-0.094-0.366-0.141-0.73-0.141-1.09c0-0.507,0.054-0.943,0.16-1.311
			c0.106-0.366,0.271-0.68,0.49-0.939s0.5-0.477,0.84-0.65c0.34-0.173,0.75-0.326,1.23-0.46l1.56-0.42
			c0.413-0.106,0.7-0.253,0.86-0.44c0.16-0.186,0.24-0.459,0.24-0.819c0-0.413-0.098-0.737-0.29-0.97
			c-0.193-0.233-0.523-0.35-0.99-0.35c-0.427,0-0.747,0.127-0.96,0.38c-0.214,0.253-0.32,0.593-0.32,1.02v0.3h-2.479V20.937z
			 M86.012,23.627c-0.213,0.087-0.406,0.15-0.58,0.19c-0.56,0.12-0.96,0.32-1.2,0.6c-0.239,0.28-0.359,0.66-0.359,1.141
			c0,0.413,0.08,0.767,0.24,1.06c0.159,0.294,0.426,0.44,0.8,0.44c0.187,0,0.38-0.03,0.58-0.091c0.199-0.06,0.383-0.156,0.55-0.29
			c0.166-0.133,0.303-0.306,0.41-0.52c0.106-0.213,0.16-0.467,0.16-0.76v-2.12C86.425,23.424,86.225,23.541,86.012,23.627z"/>
		<path fill="#575756" d="M93.972,14.377v4.52h0.04c0.293-0.427,0.623-0.747,0.99-0.96c0.366-0.213,0.81-0.32,1.33-0.32
			c1.133,0,1.967,0.443,2.5,1.33s0.8,2.33,0.8,4.33s-0.267,3.434-0.8,4.3c-0.533,0.867-1.367,1.3-2.5,1.3c-0.56,0-1.03-0.1-1.41-0.3
			s-0.724-0.553-1.03-1.06h-0.04v1.14h-2.64v-14.28H93.972z M94.243,25.927c0.18,0.594,0.576,0.891,1.189,0.891
			c0.601,0,0.99-0.297,1.17-0.891c0.181-0.593,0.271-1.477,0.271-2.649s-0.09-2.057-0.271-2.65c-0.18-0.593-0.569-0.89-1.17-0.89
			c-0.613,0-1.01,0.297-1.189,0.89c-0.181,0.593-0.271,1.477-0.271,2.65S94.062,25.334,94.243,25.927z"/>
		<path fill="#575756" d="M101.073,20.837c0.146-0.707,0.387-1.297,0.72-1.77s0.77-0.833,1.31-1.08s1.203-0.37,1.99-0.37
			c0.827-0.013,1.514,0.097,2.061,0.33c0.546,0.233,0.979,0.59,1.3,1.07s0.547,1.074,0.68,1.78s0.2,1.534,0.2,2.48
			c0,0.92-0.073,1.733-0.22,2.439c-0.147,0.707-0.387,1.297-0.721,1.771c-0.333,0.474-0.77,0.823-1.31,1.05s-1.203,0.34-1.99,0.34
			c-0.827,0.014-1.514-0.09-2.06-0.31c-0.547-0.22-0.98-0.566-1.3-1.04c-0.32-0.474-0.547-1.066-0.681-1.78
			c-0.133-0.713-0.2-1.536-0.2-2.47C100.852,22.357,100.925,21.544,101.073,20.837z M103.653,24.797
			c0.026,0.467,0.09,0.867,0.189,1.2c0.101,0.334,0.25,0.594,0.45,0.78s0.467,0.28,0.8,0.28c0.561,0,0.946-0.294,1.16-0.881
			c0.213-0.586,0.32-1.553,0.32-2.899s-0.107-2.313-0.32-2.9c-0.214-0.587-0.6-0.88-1.16-0.88c-0.333,0-0.6,0.094-0.8,0.28
			s-0.35,0.447-0.45,0.78c-0.1,0.333-0.163,0.734-0.189,1.2c-0.027,0.467-0.04,0.974-0.04,1.521S103.625,24.331,103.653,24.797z"/>
		<path fill="#575756" d="M113.451,17.897v1.44h0.041c0.279-0.52,0.619-0.937,1.02-1.25s0.887-0.47,1.461-0.47
			c0.08,0,0.162,0.003,0.25,0.01c0.086,0.007,0.17,0.017,0.25,0.03v2.64c-0.146-0.013-0.291-0.023-0.43-0.03
			c-0.141-0.006-0.285-0.01-0.432-0.01c-0.238,0-0.479,0.033-0.719,0.1s-0.461,0.177-0.66,0.33c-0.201,0.154-0.359,0.354-0.48,0.6
			c-0.119,0.247-0.18,0.55-0.18,0.91v6.46h-2.76v-10.76H113.451z"/>
		<path fill="#575756" d="M117.453,20.937c0-0.626,0.1-1.15,0.299-1.57c0.201-0.42,0.471-0.76,0.811-1.02
			c0.34-0.26,0.74-0.446,1.199-0.56c0.461-0.113,0.951-0.17,1.471-0.17c0.826,0,1.492,0.08,2,0.24c0.506,0.16,0.9,0.387,1.18,0.68
			c0.279,0.293,0.471,0.644,0.57,1.05s0.15,0.85,0.15,1.33v5.66c0,0.507,0.023,0.9,0.07,1.18c0.045,0.28,0.135,0.58,0.27,0.9h-2.641
			c-0.094-0.173-0.164-0.356-0.209-0.55c-0.047-0.193-0.09-0.384-0.131-0.57h-0.039c-0.32,0.561-0.691,0.924-1.111,1.09
			c-0.42,0.167-0.963,0.25-1.629,0.25c-0.48,0-0.887-0.083-1.221-0.25c-0.334-0.166-0.6-0.396-0.801-0.689
			c-0.199-0.293-0.346-0.623-0.439-0.99c-0.094-0.366-0.141-0.73-0.141-1.09c0-0.507,0.055-0.943,0.16-1.311
			c0.107-0.366,0.271-0.68,0.49-0.939c0.221-0.26,0.5-0.477,0.84-0.65c0.34-0.173,0.75-0.326,1.23-0.46l1.561-0.42
			c0.412-0.106,0.699-0.253,0.859-0.44c0.16-0.186,0.24-0.459,0.24-0.819c0-0.413-0.098-0.737-0.289-0.97
			c-0.193-0.233-0.523-0.35-0.99-0.35c-0.428,0-0.748,0.127-0.961,0.38s-0.32,0.593-0.32,1.02v0.3h-2.479V20.937z M121.893,23.627
			c-0.213,0.087-0.406,0.15-0.58,0.19c-0.561,0.12-0.961,0.32-1.201,0.6c-0.238,0.28-0.359,0.66-0.359,1.141
			c0,0.413,0.08,0.767,0.24,1.06c0.16,0.294,0.426,0.44,0.801,0.44c0.186,0,0.379-0.03,0.58-0.091
			c0.199-0.06,0.383-0.156,0.549-0.29c0.166-0.133,0.303-0.306,0.41-0.52c0.107-0.213,0.16-0.467,0.16-0.76v-2.12
			C122.305,23.424,122.105,23.541,121.893,23.627z"/>
		<path fill="#575756" d="M130.451,14.817v3.08h1.6v1.88h-1.6v5.82c0,0.427,0.062,0.729,0.189,0.909
			c0.127,0.181,0.391,0.271,0.791,0.271c0.105,0,0.213-0.003,0.32-0.01c0.105-0.007,0.205-0.017,0.299-0.03v1.92
			c-0.307,0-0.604,0.01-0.889,0.03c-0.287,0.02-0.59,0.029-0.91,0.029c-0.533,0-0.971-0.036-1.311-0.109s-0.6-0.22-0.779-0.44
			c-0.182-0.22-0.305-0.51-0.371-0.87c-0.066-0.359-0.1-0.812-0.1-1.359v-6.16h-1.4v-1.88h1.4v-3.08H130.451z"/>
		<path fill="#575756" d="M132.871,20.837c0.146-0.707,0.387-1.297,0.721-1.77c0.332-0.473,0.77-0.833,1.309-1.08
			c0.541-0.247,1.203-0.37,1.99-0.37c0.828-0.013,1.514,0.097,2.061,0.33s0.98,0.59,1.301,1.07s0.547,1.074,0.68,1.78
			s0.199,1.534,0.199,2.48c0,0.92-0.072,1.733-0.219,2.439c-0.148,0.707-0.387,1.297-0.721,1.771s-0.77,0.823-1.311,1.05
			c-0.539,0.227-1.203,0.34-1.99,0.34c-0.826,0.014-1.514-0.09-2.059-0.31c-0.547-0.22-0.98-0.566-1.301-1.04
			s-0.547-1.066-0.68-1.78c-0.133-0.713-0.201-1.536-0.201-2.47C132.65,22.357,132.725,21.544,132.871,20.837z M135.451,24.797
			c0.027,0.467,0.09,0.867,0.189,1.2c0.102,0.334,0.25,0.594,0.451,0.78c0.199,0.187,0.467,0.28,0.799,0.28
			c0.561,0,0.947-0.294,1.16-0.881c0.213-0.586,0.32-1.553,0.32-2.899s-0.107-2.313-0.32-2.9c-0.213-0.587-0.6-0.88-1.16-0.88
			c-0.332,0-0.6,0.094-0.799,0.28c-0.201,0.187-0.35,0.447-0.451,0.78c-0.1,0.333-0.162,0.734-0.189,1.2
			c-0.027,0.467-0.039,0.974-0.039,1.521S135.424,24.331,135.451,24.797z M139.432,13.757l-1.961,2.88h-1.879l1.08-2.88H139.432z"/>
		<path fill="#575756" d="M145.252,17.897v1.44h0.039c0.281-0.52,0.621-0.937,1.021-1.25c0.398-0.313,0.887-0.47,1.459-0.47
			c0.08,0,0.164,0.003,0.25,0.01c0.088,0.007,0.17,0.017,0.25,0.03v2.64c-0.146-0.013-0.289-0.023-0.43-0.03
			c-0.141-0.006-0.283-0.01-0.43-0.01c-0.24,0-0.48,0.033-0.721,0.1s-0.459,0.177-0.66,0.33c-0.199,0.154-0.359,0.354-0.479,0.6
			c-0.121,0.247-0.182,0.55-0.182,0.91v6.46h-2.76v-10.76H145.252z"/>
		<path fill="#575756" d="M152.131,14.217v2.36h-2.76v-2.36H152.131z M152.131,17.897v10.76h-2.76v-10.76H152.131z"/>
		<path fill="#575756" d="M153.932,20.837c0.146-0.707,0.387-1.297,0.719-1.77c0.334-0.473,0.77-0.833,1.311-1.08
			c0.539-0.247,1.203-0.37,1.99-0.37c0.826-0.013,1.514,0.097,2.061,0.33c0.545,0.233,0.979,0.59,1.299,1.07s0.547,1.074,0.68,1.78
			s0.201,1.534,0.201,2.48c0,0.92-0.074,1.733-0.221,2.439c-0.146,0.707-0.387,1.297-0.721,1.771
			c-0.332,0.474-0.77,0.823-1.309,1.05c-0.541,0.227-1.203,0.34-1.99,0.34c-0.828,0.014-1.514-0.09-2.061-0.31
			s-0.98-0.566-1.299-1.04c-0.32-0.474-0.547-1.066-0.682-1.78c-0.133-0.713-0.199-1.536-0.199-2.47
			C153.711,22.357,153.783,21.544,153.932,20.837z M156.512,24.797c0.025,0.467,0.09,0.867,0.189,1.2
			c0.1,0.334,0.25,0.594,0.449,0.78c0.201,0.187,0.467,0.28,0.801,0.28c0.561,0,0.945-0.294,1.16-0.881
			c0.213-0.586,0.32-1.553,0.32-2.899s-0.107-2.313-0.32-2.9c-0.215-0.587-0.6-0.88-1.16-0.88c-0.334,0-0.6,0.094-0.801,0.28
			c-0.199,0.187-0.35,0.447-0.449,0.78c-0.1,0.333-0.164,0.734-0.189,1.2c-0.027,0.467-0.041,0.974-0.041,1.521
			S156.484,24.331,156.512,24.797z"/>
		<path fill="#575756" d="M173.951,27.518c-0.307,0.507-0.65,0.859-1.029,1.06c-0.381,0.2-0.852,0.3-1.41,0.3
			c-1.135,0-1.967-0.433-2.5-1.3c-0.533-0.866-0.801-2.3-0.801-4.3s0.268-3.443,0.801-4.33s1.365-1.33,2.5-1.33
			c0.52,0,0.963,0.107,1.33,0.32c0.365,0.214,0.695,0.534,0.99,0.96h0.039v-4.52h2.76v14.28h-2.639v-1.14H173.951z M171.242,25.927
			c0.18,0.594,0.568,0.891,1.17,0.891c0.611,0,1.01-0.297,1.189-0.891c0.18-0.593,0.27-1.477,0.27-2.649s-0.09-2.057-0.27-2.65
			s-0.578-0.89-1.189-0.89c-0.602,0-0.99,0.297-1.17,0.89c-0.182,0.593-0.271,1.477-0.271,2.65S171.061,25.334,171.242,25.927z"/>
		<path fill="#575756" d="M180.832,24.558c0,0.319,0.021,0.63,0.068,0.93s0.123,0.566,0.23,0.8s0.246,0.42,0.42,0.561
			c0.174,0.14,0.387,0.21,0.641,0.21c0.467,0,0.807-0.167,1.02-0.5c0.213-0.334,0.359-0.841,0.439-1.521h2.48
			c-0.053,1.254-0.387,2.207-1,2.86s-1.58,0.979-2.9,0.979c-1,0-1.779-0.167-2.34-0.5c-0.559-0.333-0.973-0.772-1.24-1.319
			c-0.266-0.547-0.43-1.16-0.488-1.841c-0.061-0.68-0.092-1.359-0.092-2.04c0-0.72,0.051-1.413,0.15-2.079
			c0.1-0.667,0.301-1.26,0.6-1.78c0.301-0.52,0.73-0.933,1.291-1.24c0.561-0.307,1.307-0.46,2.24-0.46
			c0.799,0,1.457,0.13,1.969,0.39c0.514,0.26,0.918,0.627,1.211,1.1s0.492,1.047,0.6,1.72s0.16,1.424,0.16,2.25v0.62h-5.459V24.558z
			 M183.57,20.967c-0.039-0.313-0.109-0.58-0.209-0.8c-0.1-0.22-0.24-0.386-0.42-0.5c-0.18-0.113-0.41-0.17-0.689-0.17
			c-0.281,0-0.51,0.063-0.691,0.19c-0.18,0.127-0.322,0.293-0.43,0.5c-0.107,0.207-0.184,0.437-0.23,0.69s-0.068,0.507-0.068,0.759
			v0.421h2.818C183.639,21.645,183.611,21.281,183.57,20.967z"/>
		<path fill="#575756" d="M77.233,37.377c0.586,0,1.13,0.061,1.63,0.181c0.5,0.119,0.93,0.319,1.29,0.6
			c0.359,0.28,0.64,0.653,0.84,1.12s0.3,1.04,0.3,1.72c0,0.773-0.18,1.438-0.54,1.99c-0.359,0.554-0.899,0.93-1.62,1.13v0.04
			c0.8,0.106,1.434,0.447,1.9,1.02c0.467,0.574,0.7,1.341,0.7,2.301c0,0.56-0.074,1.093-0.221,1.6s-0.396,0.95-0.75,1.33
			s-0.813,0.684-1.38,0.91s-1.27,0.34-2.109,0.34h-4.86v-14.28H77.233z M76.113,43.237c0.8,0,1.383-0.144,1.75-0.43
			c0.366-0.287,0.55-0.771,0.55-1.45c0-0.681-0.167-1.16-0.5-1.44c-0.333-0.279-0.86-0.42-1.58-0.42h-1.04v3.74H76.113z
			 M76.413,49.537c0.693,0,1.253-0.153,1.68-0.46s0.641-0.873,0.641-1.7c0-0.413-0.058-0.756-0.17-1.029
			c-0.114-0.273-0.268-0.493-0.46-0.66c-0.194-0.167-0.424-0.283-0.69-0.351c-0.267-0.066-0.56-0.1-0.88-0.1h-1.24v4.3H76.413z"/>
		<path fill="#575756" d="M86.313,37.217v2.36h-2.761v-2.36H86.313z M86.313,40.897v10.76h-2.761v-10.76H86.313z"/>
		<path fill="#575756" d="M88.113,43.837c0.146-0.706,0.387-1.296,0.72-1.77s0.77-0.833,1.31-1.08s1.203-0.37,1.99-0.37
			c0.827-0.013,1.514,0.097,2.061,0.33c0.546,0.233,0.979,0.59,1.3,1.07c0.32,0.479,0.547,1.073,0.68,1.779
			c0.133,0.707,0.2,1.534,0.2,2.48c0,0.92-0.073,1.733-0.22,2.439c-0.147,0.707-0.387,1.297-0.721,1.771
			c-0.333,0.474-0.77,0.823-1.31,1.05s-1.203,0.34-1.99,0.34c-0.827,0.014-1.514-0.09-2.06-0.31c-0.547-0.22-0.98-0.566-1.3-1.04
			c-0.32-0.474-0.547-1.066-0.681-1.78c-0.133-0.713-0.2-1.536-0.2-2.47C87.892,45.357,87.965,44.544,88.113,43.837z M90.693,47.797
			c0.026,0.467,0.09,0.867,0.189,1.2c0.101,0.334,0.25,0.594,0.45,0.78s0.467,0.28,0.8,0.28c0.561,0,0.946-0.294,1.16-0.881
			c0.213-0.586,0.32-1.553,0.32-2.899s-0.107-2.313-0.32-2.9c-0.214-0.586-0.6-0.88-1.16-0.88c-0.333,0-0.6,0.094-0.8,0.28
			s-0.35,0.446-0.45,0.78c-0.1,0.333-0.163,0.733-0.189,1.199c-0.027,0.467-0.04,0.974-0.04,1.521S90.666,47.331,90.693,47.797z"/>
		<path fill="#575756" d="M100.712,37.217v2.36h-2.761v-2.36H100.712z M100.712,40.897v10.76h-2.761v-10.76H100.712z"/>
		<path fill="#575756" d="M105.292,40.897v1.26h0.04c0.294-0.533,0.674-0.923,1.141-1.17s1-0.37,1.6-0.37
			c0.88,0,1.557,0.24,2.03,0.72c0.473,0.48,0.71,1.261,0.71,2.34v7.98h-2.76v-7.42c0-0.561-0.094-0.95-0.28-1.17
			s-0.487-0.33-0.9-0.33c-0.973,0-1.46,0.594-1.46,1.78v7.14h-2.76v-10.76H105.292z"/>
		<path fill="#575756" d="M111.852,42.777v-1.88h1.4v-1.221c0-0.479,0.066-0.886,0.199-1.22c0.135-0.333,0.324-0.6,0.57-0.8
			s0.551-0.343,0.91-0.43s0.76-0.13,1.201-0.13c0.492,0,0.986,0.02,1.479,0.06v1.96c-0.066-0.013-0.16-0.02-0.279-0.02h-0.26
			c-0.387,0-0.66,0.066-0.82,0.199c-0.16,0.134-0.24,0.354-0.24,0.66v0.94h1.6v1.88h-1.6v8.88h-2.76v-8.88H111.852z"/>
		<path fill="#575756" d="M118.432,43.837c0.146-0.706,0.387-1.296,0.721-1.77c0.332-0.474,0.77-0.833,1.309-1.08
			c0.541-0.247,1.203-0.37,1.99-0.37c0.828-0.013,1.514,0.097,2.061,0.33s0.98,0.59,1.301,1.07c0.32,0.479,0.547,1.073,0.68,1.779
			c0.133,0.707,0.199,1.534,0.199,2.48c0,0.92-0.072,1.733-0.219,2.439c-0.148,0.707-0.387,1.297-0.721,1.771
			s-0.77,0.823-1.311,1.05c-0.539,0.227-1.203,0.34-1.99,0.34c-0.826,0.014-1.514-0.09-2.059-0.31
			c-0.547-0.22-0.98-0.566-1.301-1.04s-0.547-1.066-0.68-1.78c-0.133-0.713-0.201-1.536-0.201-2.47
			C118.211,45.357,118.285,44.544,118.432,43.837z M121.012,47.797c0.027,0.467,0.09,0.867,0.189,1.2
			c0.102,0.334,0.25,0.594,0.451,0.78c0.199,0.187,0.467,0.28,0.799,0.28c0.561,0,0.947-0.294,1.16-0.881
			c0.213-0.586,0.32-1.553,0.32-2.899s-0.107-2.313-0.32-2.9c-0.213-0.586-0.6-0.88-1.16-0.88c-0.332,0-0.6,0.094-0.799,0.28
			c-0.201,0.187-0.35,0.446-0.451,0.78c-0.1,0.333-0.162,0.733-0.189,1.199c-0.027,0.467-0.039,0.974-0.039,1.521
			S120.984,47.331,121.012,47.797z"/>
		<path fill="#575756" d="M130.811,40.897v1.439h0.041c0.279-0.52,0.619-0.937,1.02-1.25c0.4-0.312,0.887-0.47,1.461-0.47
			c0.08,0,0.162,0.004,0.25,0.01c0.086,0.007,0.17,0.018,0.25,0.03v2.64c-0.146-0.013-0.291-0.022-0.43-0.029
			c-0.141-0.007-0.285-0.011-0.432-0.011c-0.238,0-0.479,0.034-0.719,0.101s-0.461,0.177-0.66,0.33
			c-0.201,0.153-0.359,0.354-0.48,0.6c-0.119,0.247-0.18,0.55-0.18,0.91v6.46h-2.76v-10.76H130.811z"/>
		<path fill="#575756" d="M137.471,40.897v1.1h0.041c0.346-0.493,0.736-0.847,1.17-1.06c0.434-0.214,0.949-0.32,1.551-0.32
			c0.639,0,1.176,0.146,1.609,0.44c0.434,0.293,0.723,0.72,0.869,1.279h0.041c0.213-0.573,0.557-1.003,1.029-1.29
			c0.473-0.286,1.037-0.43,1.689-0.43c0.922,0,1.598,0.277,2.031,0.83c0.434,0.554,0.65,1.35,0.65,2.39v7.82h-2.76v-7.52
			c0-0.453-0.084-0.801-0.25-1.04c-0.168-0.24-0.445-0.36-0.83-0.36c-0.441,0-0.791,0.146-1.051,0.439
			c-0.26,0.294-0.391,0.761-0.391,1.4v7.08h-2.76v-7.52c0-0.453-0.084-0.801-0.25-1.04c-0.166-0.24-0.443-0.36-0.83-0.36
			c-0.439,0-0.789,0.146-1.049,0.439c-0.262,0.294-0.391,0.761-0.391,1.4v7.08h-2.76v-10.76H137.471z"/>
		<path fill="#575756" d="M149.973,43.938c0-0.627,0.1-1.15,0.299-1.57c0.201-0.42,0.471-0.76,0.811-1.02
			c0.34-0.261,0.74-0.447,1.199-0.561c0.461-0.113,0.951-0.17,1.471-0.17c0.826,0,1.492,0.08,2,0.24c0.506,0.16,0.9,0.387,1.18,0.68
			c0.279,0.294,0.471,0.644,0.57,1.05c0.1,0.407,0.15,0.851,0.15,1.33v5.66c0,0.507,0.023,0.9,0.07,1.18
			c0.045,0.28,0.135,0.58,0.27,0.9h-2.641c-0.094-0.173-0.164-0.356-0.209-0.55c-0.047-0.193-0.09-0.384-0.131-0.57h-0.039
			c-0.32,0.561-0.691,0.924-1.111,1.09c-0.42,0.167-0.963,0.25-1.629,0.25c-0.48,0-0.887-0.083-1.221-0.25
			c-0.334-0.166-0.6-0.396-0.801-0.689c-0.199-0.293-0.346-0.623-0.439-0.99c-0.094-0.366-0.141-0.73-0.141-1.09
			c0-0.507,0.055-0.943,0.16-1.311c0.107-0.366,0.271-0.68,0.49-0.939c0.221-0.26,0.5-0.477,0.84-0.65
			c0.34-0.173,0.75-0.326,1.23-0.46l1.561-0.42c0.412-0.106,0.699-0.253,0.859-0.439c0.16-0.188,0.24-0.461,0.24-0.82
			c0-0.413-0.098-0.736-0.289-0.97c-0.193-0.233-0.523-0.351-0.99-0.351c-0.428,0-0.748,0.127-0.961,0.38
			c-0.213,0.254-0.32,0.594-0.32,1.021v0.3h-2.479V43.938z M154.412,46.627c-0.213,0.087-0.406,0.15-0.58,0.19
			c-0.561,0.12-0.961,0.32-1.201,0.6c-0.238,0.28-0.359,0.66-0.359,1.141c0,0.413,0.08,0.767,0.24,1.06
			c0.16,0.294,0.426,0.44,0.801,0.44c0.186,0,0.379-0.03,0.58-0.091c0.199-0.06,0.383-0.156,0.549-0.29
			c0.166-0.133,0.303-0.306,0.41-0.52c0.107-0.213,0.16-0.467,0.16-0.76v-2.12C154.824,46.424,154.625,46.541,154.412,46.627z
			 M156.432,36.757l-1.959,2.881h-1.881l1.08-2.881H156.432z"/>
		<path fill="#575756" d="M162.971,37.817v3.08h1.6v1.88h-1.6v5.82c0,0.427,0.062,0.729,0.189,0.909
			c0.127,0.181,0.391,0.271,0.791,0.271c0.105,0,0.213-0.003,0.32-0.01c0.105-0.007,0.205-0.017,0.299-0.03v1.92
			c-0.307,0-0.604,0.01-0.889,0.03c-0.287,0.02-0.59,0.029-0.91,0.029c-0.533,0-0.971-0.036-1.311-0.109s-0.6-0.22-0.779-0.44
			c-0.182-0.22-0.305-0.51-0.371-0.87c-0.066-0.359-0.1-0.812-0.1-1.359v-6.16h-1.4v-1.88h1.4v-3.08H162.971z"/>
		<path fill="#575756" d="M168.391,37.217v2.36h-2.76v-2.36H168.391z M168.391,40.897v10.76h-2.76v-10.76H168.391z"/>
		<path fill="#575756" d="M175.461,43.997c-0.033-0.253-0.094-0.483-0.18-0.689c-0.088-0.207-0.211-0.373-0.371-0.5
			s-0.373-0.19-0.639-0.19c-0.334,0-0.607,0.077-0.82,0.23c-0.215,0.153-0.373,0.38-0.48,0.68s-0.18,0.68-0.221,1.14
			c-0.039,0.46-0.059,1.004-0.059,1.63c0,0.667,0.02,1.237,0.059,1.71c0.041,0.474,0.113,0.864,0.221,1.17
			c0.107,0.308,0.256,0.53,0.449,0.671c0.193,0.14,0.443,0.21,0.75,0.21c0.467,0,0.807-0.2,1.021-0.601
			c0.213-0.399,0.318-1.04,0.318-1.92h2.641c0,1.413-0.316,2.49-0.949,3.23c-0.635,0.739-1.684,1.109-3.15,1.109
			c-0.693,0-1.297-0.083-1.811-0.25c-0.514-0.166-0.939-0.466-1.279-0.899s-0.598-1.014-0.77-1.74
			c-0.174-0.727-0.262-1.63-0.262-2.71c0-1.106,0.107-2.023,0.32-2.75s0.514-1.307,0.9-1.74c0.387-0.433,0.848-0.736,1.381-0.91
			c0.533-0.173,1.119-0.26,1.76-0.26c1.279,0,2.242,0.373,2.889,1.12c0.648,0.747,0.971,1.76,0.971,3.04h-2.641
			C175.51,44.511,175.494,44.251,175.461,43.997z"/>
		<path fill="#575756" d="M179.57,43.938c0-0.627,0.1-1.15,0.301-1.57c0.199-0.42,0.469-0.76,0.809-1.02
			c0.34-0.261,0.74-0.447,1.201-0.561c0.459-0.113,0.949-0.17,1.469-0.17c0.828,0,1.494,0.08,2,0.24
			c0.508,0.16,0.9,0.387,1.182,0.68c0.279,0.294,0.469,0.644,0.568,1.05c0.102,0.407,0.15,0.851,0.15,1.33v5.66
			c0,0.507,0.023,0.9,0.07,1.18c0.047,0.28,0.137,0.58,0.27,0.9h-2.639c-0.094-0.173-0.164-0.356-0.211-0.55s-0.09-0.384-0.129-0.57
			h-0.041c-0.32,0.561-0.689,0.924-1.109,1.09c-0.42,0.167-0.965,0.25-1.631,0.25c-0.48,0-0.887-0.083-1.219-0.25
			c-0.334-0.166-0.602-0.396-0.801-0.689s-0.348-0.623-0.439-0.99c-0.094-0.366-0.141-0.73-0.141-1.09
			c0-0.507,0.053-0.943,0.16-1.311c0.105-0.366,0.27-0.68,0.49-0.939c0.219-0.26,0.5-0.477,0.84-0.65
			c0.34-0.173,0.75-0.326,1.23-0.46l1.559-0.42c0.414-0.106,0.701-0.253,0.861-0.439c0.16-0.188,0.24-0.461,0.24-0.82
			c0-0.413-0.098-0.736-0.291-0.97s-0.523-0.351-0.99-0.351c-0.426,0-0.746,0.127-0.959,0.38c-0.215,0.254-0.32,0.594-0.32,1.021
			v0.3h-2.48V43.938z M184.01,46.627c-0.213,0.087-0.406,0.15-0.58,0.19c-0.559,0.12-0.959,0.32-1.199,0.6
			c-0.24,0.28-0.359,0.66-0.359,1.141c0,0.413,0.08,0.767,0.24,1.06c0.158,0.294,0.426,0.44,0.799,0.44
			c0.188,0,0.381-0.03,0.58-0.091c0.199-0.06,0.383-0.156,0.551-0.29c0.166-0.133,0.303-0.306,0.41-0.52
			c0.105-0.213,0.16-0.467,0.16-0.76v-2.12C184.424,46.424,184.223,46.541,184.01,46.627z"/>
		<path fill="#575756" d="M196.371,47.558c0,0.319,0.021,0.63,0.068,0.93s0.123,0.566,0.23,0.8s0.246,0.42,0.42,0.561
			c0.174,0.14,0.387,0.21,0.641,0.21c0.467,0,0.807-0.167,1.02-0.5c0.213-0.334,0.359-0.841,0.439-1.521h2.48
			c-0.053,1.254-0.387,2.207-1,2.86s-1.58,0.979-2.9,0.979c-1,0-1.779-0.167-2.34-0.5c-0.559-0.333-0.973-0.772-1.24-1.319
			c-0.266-0.547-0.43-1.16-0.488-1.841c-0.061-0.68-0.092-1.359-0.092-2.04c0-0.72,0.051-1.413,0.15-2.079
			c0.1-0.667,0.301-1.261,0.6-1.78c0.301-0.521,0.73-0.934,1.291-1.24s1.307-0.46,2.24-0.46c0.799,0,1.457,0.13,1.969,0.39
			c0.514,0.261,0.918,0.627,1.211,1.101s0.492,1.047,0.6,1.72c0.107,0.674,0.16,1.424,0.16,2.25v0.62h-5.459V47.558z
			 M199.109,43.967c-0.039-0.312-0.109-0.579-0.209-0.8c-0.1-0.22-0.24-0.387-0.42-0.5s-0.41-0.17-0.689-0.17
			c-0.281,0-0.51,0.063-0.691,0.19c-0.18,0.127-0.322,0.293-0.43,0.5s-0.184,0.437-0.23,0.689c-0.047,0.254-0.068,0.507-0.068,0.761
			v0.42h2.818C199.178,44.645,199.15,44.28,199.109,43.967z"/>
		<path fill="#575756" d="M74.733,70.617c0,0.333,0.026,0.637,0.08,0.91c0.053,0.273,0.152,0.503,0.3,0.689
			c0.146,0.188,0.343,0.334,0.59,0.44c0.246,0.106,0.557,0.16,0.93,0.16c0.44,0,0.837-0.144,1.19-0.43
			c0.353-0.287,0.53-0.73,0.53-1.33c0-0.32-0.044-0.597-0.131-0.83s-0.229-0.443-0.43-0.63s-0.463-0.357-0.79-0.511
			c-0.327-0.152-0.729-0.31-1.21-0.47c-0.64-0.213-1.193-0.446-1.66-0.7c-0.467-0.253-0.856-0.55-1.17-0.89s-0.543-0.733-0.689-1.18
			c-0.147-0.447-0.221-0.964-0.221-1.551c0-1.413,0.394-2.466,1.181-3.159c0.786-0.693,1.866-1.04,3.239-1.04
			c0.641,0,1.23,0.069,1.771,0.21c0.54,0.14,1.007,0.366,1.4,0.68c0.393,0.313,0.699,0.713,0.92,1.2
			c0.22,0.486,0.33,1.069,0.33,1.75v0.399h-2.761c0-0.68-0.12-1.203-0.359-1.569c-0.24-0.367-0.641-0.551-1.2-0.551
			c-0.32,0-0.587,0.047-0.8,0.141c-0.214,0.093-0.384,0.217-0.511,0.37s-0.213,0.33-0.26,0.529c-0.047,0.2-0.07,0.407-0.07,0.62
			c0,0.44,0.094,0.811,0.28,1.11s0.587,0.577,1.2,0.83l2.22,0.96c0.547,0.24,0.993,0.49,1.34,0.75s0.624,0.54,0.83,0.84
			c0.207,0.3,0.351,0.63,0.431,0.99c0.08,0.359,0.12,0.76,0.12,1.2c0,1.507-0.438,2.604-1.311,3.29s-2.09,1.029-3.649,1.029
			c-1.627,0-2.79-0.353-3.49-1.06s-1.05-1.72-1.05-3.04v-0.58h2.88V70.617z"/>
		<path fill="#575756" d="M85.573,60.217v2.36h-2.761v-2.36H85.573z M85.573,63.897v10.76h-2.761v-10.76H85.573z"/>
		<path fill="#575756" d="M89.533,71.497c0,0.467,0.123,0.844,0.369,1.13c0.247,0.287,0.604,0.431,1.07,0.431
			c0.427,0,0.767-0.107,1.021-0.32c0.253-0.213,0.38-0.533,0.38-0.96c0-0.347-0.101-0.61-0.3-0.79c-0.2-0.18-0.434-0.323-0.7-0.43
			l-1.94-0.7c-0.76-0.267-1.333-0.644-1.72-1.13c-0.387-0.487-0.58-1.11-0.58-1.87c0-0.44,0.073-0.856,0.22-1.25
			s0.38-0.736,0.7-1.03c0.32-0.293,0.73-0.526,1.23-0.7c0.5-0.173,1.103-0.26,1.81-0.26c1.253,0,2.18,0.267,2.78,0.8
			c0.6,0.533,0.899,1.287,0.899,2.26v0.44h-2.479c0-0.56-0.09-0.97-0.271-1.229c-0.18-0.261-0.496-0.391-0.949-0.391
			c-0.348,0-0.65,0.097-0.91,0.29c-0.261,0.193-0.391,0.483-0.391,0.87c0,0.267,0.083,0.507,0.25,0.72
			c0.167,0.214,0.483,0.394,0.95,0.54l1.66,0.561c0.866,0.293,1.479,0.677,1.84,1.149c0.36,0.474,0.54,1.117,0.54,1.931
			c0,0.573-0.1,1.069-0.3,1.489s-0.477,0.771-0.83,1.051c-0.354,0.279-0.773,0.479-1.26,0.6c-0.487,0.12-1.023,0.18-1.61,0.18
			c-0.773,0-1.417-0.073-1.93-0.22c-0.514-0.146-0.92-0.366-1.221-0.66c-0.3-0.293-0.51-0.649-0.63-1.07
			c-0.12-0.42-0.18-0.89-0.18-1.409v-0.38h2.48V71.497z"/>
		<path fill="#575756" d="M99.752,60.817v3.08h1.6v1.88h-1.6v5.82c0,0.427,0.062,0.729,0.189,0.909
			c0.127,0.181,0.391,0.271,0.79,0.271c0.106,0,0.213-0.003,0.32-0.01c0.106-0.007,0.206-0.017,0.3-0.03v1.92
			c-0.307,0-0.604,0.01-0.89,0.03c-0.287,0.02-0.59,0.029-0.91,0.029c-0.533,0-0.97-0.036-1.311-0.109
			c-0.34-0.073-0.6-0.22-0.779-0.44c-0.181-0.22-0.304-0.51-0.37-0.87c-0.067-0.359-0.101-0.812-0.101-1.359v-6.16h-1.399v-1.88
			h1.399v-3.08H99.752z"/>
		<path fill="#575756" d="M104.672,70.558c0,0.319,0.022,0.63,0.069,0.93s0.123,0.566,0.23,0.8c0.106,0.233,0.246,0.42,0.42,0.561
			c0.173,0.14,0.387,0.21,0.64,0.21c0.467,0,0.807-0.167,1.021-0.5c0.213-0.334,0.359-0.841,0.439-1.521h2.48
			c-0.054,1.254-0.387,2.207-1,2.86s-1.58,0.979-2.9,0.979c-1,0-1.779-0.167-2.34-0.5c-0.56-0.333-0.974-0.772-1.24-1.319
			s-0.43-1.16-0.489-1.841c-0.061-0.68-0.091-1.359-0.091-2.04c0-0.72,0.051-1.413,0.15-2.079c0.1-0.667,0.3-1.261,0.6-1.78
			c0.301-0.521,0.73-0.934,1.29-1.24c0.561-0.307,1.307-0.46,2.24-0.46c0.8,0,1.457,0.13,1.97,0.39
			c0.514,0.261,0.917,0.627,1.211,1.101c0.293,0.474,0.492,1.047,0.6,1.72c0.106,0.674,0.16,1.424,0.16,2.25v0.62h-5.46V70.558z
			 M107.412,66.967c-0.039-0.312-0.109-0.579-0.21-0.8c-0.1-0.22-0.239-0.387-0.42-0.5c-0.18-0.113-0.409-0.17-0.689-0.17
			s-0.51,0.063-0.69,0.19c-0.18,0.127-0.323,0.293-0.43,0.5c-0.107,0.207-0.184,0.437-0.23,0.689
			c-0.047,0.254-0.069,0.507-0.069,0.761v0.42h2.819C107.479,67.645,107.452,67.28,107.412,66.967z"/>
		<path fill="#575756" d="M114.211,63.897v1.1h0.041c0.346-0.493,0.736-0.847,1.17-1.06c0.434-0.214,0.949-0.32,1.551-0.32
			c0.639,0,1.176,0.146,1.609,0.44c0.434,0.293,0.723,0.72,0.869,1.279h0.041c0.213-0.573,0.557-1.003,1.029-1.29
			c0.473-0.286,1.037-0.43,1.689-0.43c0.922,0,1.598,0.277,2.031,0.83c0.434,0.554,0.65,1.35,0.65,2.39v7.82h-2.76v-7.52
			c0-0.453-0.084-0.801-0.25-1.04c-0.168-0.24-0.445-0.36-0.83-0.36c-0.441,0-0.791,0.146-1.051,0.439
			c-0.26,0.294-0.391,0.761-0.391,1.4v7.08h-2.76v-7.52c0-0.453-0.084-0.801-0.25-1.04c-0.166-0.24-0.443-0.36-0.83-0.36
			c-0.439,0-0.789,0.146-1.049,0.439c-0.262,0.294-0.391,0.761-0.391,1.4v7.08h-2.76v-10.76H114.211z"/>
		<path fill="#575756" d="M126.713,66.938c0-0.627,0.1-1.15,0.299-1.57c0.201-0.42,0.471-0.76,0.811-1.02
			c0.34-0.261,0.74-0.447,1.199-0.561c0.461-0.113,0.951-0.17,1.471-0.17c0.826,0,1.492,0.08,2,0.24c0.506,0.16,0.9,0.387,1.18,0.68
			c0.279,0.294,0.471,0.644,0.57,1.05c0.1,0.407,0.15,0.851,0.15,1.33v5.66c0,0.507,0.023,0.9,0.07,1.18
			c0.045,0.28,0.135,0.58,0.27,0.9h-2.641c-0.094-0.173-0.164-0.356-0.209-0.55c-0.047-0.193-0.09-0.384-0.131-0.57h-0.039
			c-0.32,0.561-0.691,0.924-1.111,1.09c-0.42,0.167-0.963,0.25-1.629,0.25c-0.48,0-0.887-0.083-1.221-0.25
			c-0.334-0.166-0.6-0.396-0.801-0.689c-0.199-0.293-0.346-0.623-0.439-0.99c-0.094-0.366-0.141-0.73-0.141-1.09
			c0-0.507,0.055-0.943,0.16-1.311c0.107-0.366,0.271-0.68,0.49-0.939c0.221-0.26,0.5-0.477,0.84-0.65
			c0.34-0.173,0.75-0.326,1.23-0.46l1.561-0.42c0.412-0.106,0.699-0.253,0.859-0.439c0.16-0.188,0.24-0.461,0.24-0.82
			c0-0.413-0.098-0.736-0.289-0.97c-0.193-0.233-0.523-0.351-0.99-0.351c-0.428,0-0.748,0.127-0.961,0.38
			c-0.213,0.254-0.32,0.594-0.32,1.021v0.3h-2.479V66.938z M131.152,69.627c-0.213,0.087-0.406,0.15-0.58,0.19
			c-0.561,0.12-0.961,0.32-1.201,0.6c-0.238,0.28-0.359,0.66-0.359,1.141c0,0.413,0.08,0.767,0.24,1.06
			c0.16,0.294,0.426,0.44,0.801,0.44c0.186,0,0.379-0.03,0.58-0.091c0.199-0.06,0.383-0.156,0.549-0.29
			c0.166-0.133,0.303-0.306,0.41-0.52c0.107-0.213,0.16-0.467,0.16-0.76v-2.12C131.564,69.424,131.365,69.541,131.152,69.627z"/>
		<path fill="#575756" d="M138.371,71.497c0,0.467,0.123,0.844,0.369,1.13c0.248,0.287,0.604,0.431,1.07,0.431
			c0.428,0,0.768-0.107,1.021-0.32c0.252-0.213,0.379-0.533,0.379-0.96c0-0.347-0.1-0.61-0.299-0.79
			c-0.201-0.18-0.434-0.323-0.701-0.43l-1.939-0.7c-0.76-0.267-1.334-0.644-1.721-1.13c-0.387-0.487-0.58-1.11-0.58-1.87
			c0-0.44,0.074-0.856,0.221-1.25s0.379-0.736,0.699-1.03c0.32-0.293,0.73-0.526,1.23-0.7c0.5-0.173,1.104-0.26,1.811-0.26
			c1.252,0,2.18,0.267,2.779,0.8s0.9,1.287,0.9,2.26v0.44h-2.48c0-0.56-0.09-0.97-0.27-1.229c-0.18-0.261-0.496-0.391-0.949-0.391
			c-0.348,0-0.65,0.097-0.91,0.29c-0.262,0.193-0.391,0.483-0.391,0.87c0,0.267,0.082,0.507,0.25,0.72
			c0.166,0.214,0.482,0.394,0.949,0.54l1.66,0.561c0.867,0.293,1.48,0.677,1.84,1.149c0.361,0.474,0.541,1.117,0.541,1.931
			c0,0.573-0.1,1.069-0.301,1.489c-0.199,0.42-0.477,0.771-0.83,1.051c-0.354,0.279-0.773,0.479-1.26,0.6s-1.023,0.18-1.609,0.18
			c-0.773,0-1.418-0.073-1.93-0.22c-0.514-0.146-0.92-0.366-1.221-0.66c-0.301-0.293-0.51-0.649-0.631-1.07
			c-0.119-0.42-0.18-0.89-0.18-1.409v-0.38h2.48V71.497z"/>
	</g>
</g>
</svg>
